<?xml version="1.0" standalone="no"?>
<!DOCTYPE svg PUBLIC "-//W3C//DTD SVG 1.1//EN" "http://www.w3.org/Graphics/SVG/1.1/DTD/svg11.dtd" >
<svg xmlns="http://www.w3.org/2000/svg">
<metadata>
This is a custom SVG webfont generated by Font Squirrel.
Copyright   : Copyright  2010 ParaType Ltd All rights reserved
Designer    : AKorolkova OUmpeleva VYefimov
Foundry     : ParaType Ltd
Foundry URL : httpwwwparatypecom
</metadata>
<defs>
<font id="webfont5q8ZklZi" horiz-adv-x="1228" >
<font-face units-per-em="2048" ascent="1593" descent="-455" />
<missing-glyph horiz-adv-x="561" />
<glyph unicode="&#xfb01;" horiz-adv-x="1384" d="M1300 0h-518v102h152v871h-473v-871h170v-102h-537v102h152v871h-174v102h174v33q0 133 46 217t120.5 131t170 63.5t193.5 16.5q45 0 101.5 -10t108.5 -25.5t96 -33t67 -33.5v-172h-215v143q-35 10 -70 15t-71 5q-61 0 -122 -15t-107 -51t-74.5 -94.5t-28.5 -144.5v-45 h688v-973h151v-102z" />
<glyph unicode="&#xfb02;" horiz-adv-x="1392" d="M942 1413q-80 12 -151 12q-154 0 -242 -63.5t-88 -222.5v-64h262v-102h-262v-871h186v-102h-553v102h152v871h-174v102h174v53q0 125 40 205t110.5 125t169 61.5t212.5 16.5h379v-1434h152v-102h-518v102h151v1311z" />
<glyph unicode=" "  horiz-adv-x="561" />
<glyph unicode="&#x09;" horiz-adv-x="561" />
<glyph unicode="&#xa0;" horiz-adv-x="561" />
<glyph unicode="!" horiz-adv-x="753" d="M399 446l-77 363v625h215v-625l-76 -363h-62zM272 119q0 63 44 100t114 37q72 0 117 -37t45 -100q0 -61 -45 -98t-117 -37q-70 0 -114 37t-44 98z" />
<glyph unicode="&#x22;" horiz-adv-x="876" d="M480 1434h200l-55 -404h-90zM199 1434h200l-55 -404h-90z" />
<glyph unicode="#" d="M707 477h-328l-94 -358h-121l94 358h-184l35 96h174l82 306h-177l35 96h170l90 340h121l-90 -340h326l92 340h121l-92 -340h184l-41 -96h-170l-82 -306h178l-43 -96h-160l-94 -358h-121zM408 573h323l82 306h-328z" />
<glyph unicode="$" d="M547 -25q-70 0 -131.5 12.5t-111.5 32t-89 41t-63 39.5v285h147v-205l41 -53q37 -18 80 -30.5t127 -14.5v582q-2 0 -16.5 5t-69.5 27q-68 27 -129.5 59.5t-109.5 79t-76.5 109t-28.5 148.5q0 74 31.5 137t89 112.5t136.5 79t173 35.5v100h123v-100q111 -6 189.5 -25.5 t139.5 -46.5v-268h-147v168l-41 41q-72 25 -141 25v-545q98 -41 180 -80t141.5 -88t92 -115.5t32.5 -161.5q0 -152 -117.5 -254t-328.5 -124v-125h-123v118zM901 344q0 53 -18.5 94t-50 73t-74.5 57.5t-92 45.5v-520q104 25 169.5 88.5t65.5 161.5zM332 1126 q0 -106 62.5 -167.5t156.5 -106.5v496q-102 -10 -160.5 -73t-58.5 -149z" />
<glyph unicode="%" horiz-adv-x="1859" d="M1550 1462l84 -78l-1345 -1404l-80 79zM118 1110q0 80 31 143.5t84 109.5t128 70.5t161 24.5q88 0 161.5 -21.5t127 -64.5t83 -108.5t29.5 -153.5q0 -80 -29.5 -144.5t-83 -109.5t-127 -69.5t-161.5 -24.5q-86 0 -161 21.5t-128 64.5t-84 108.5t-31 153.5zM315 1110 q0 -123 53 -196.5t154 -73.5q205 0 205 270t-205 270q-100 0 -153.5 -67.5t-53.5 -202.5zM934 326q0 80 31 143.5t84 109.5t128 70.5t161 24.5q88 0 161.5 -21.5t127 -64.5t83 -108.5t29.5 -153.5q0 -80 -29.5 -144.5t-83 -109.5t-127 -69.5t-161.5 -24.5q-86 0 -161 21.5 t-128 64.5t-84 108.5t-31 153.5zM1131 326q0 -123 53 -196.5t154 -73.5q205 0 205 270t-205 270q-100 0 -153.5 -67.5t-53.5 -202.5z" />
<glyph unicode="&#x26;" horiz-adv-x="2000" d="M1239 252q-70 55 -150 130l-157 152q-76 77 -139.5 148.5t-98.5 118.5q-96 -84 -141 -165t-45 -187q0 -78 28.5 -144.5t80 -115t123 -76t155.5 -27.5q100 0 188 41t156 125zM653 1194q0 -37 16.5 -78t42 -83t57.5 -80t60 -68q84 61 129.5 138t45.5 194q0 66 -43 110.5 t-134 44.5q-49 0 -82.5 -15.5t-53 -41t-29 -57t-9.5 -64.5zM1597 0l-119 71q-73 42 -159 113q-31 -37 -80 -73.5t-113.5 -67.5t-145.5 -49.5t-173 -18.5q-125 0 -224.5 34t-168 89.5t-105.5 127t-37 149.5q0 100 41 180t97.5 141.5t118.5 103.5l106 68q-66 66 -112 153 t-46 163q0 51 22.5 101t67.5 88t110.5 61.5t149.5 23.5q154 0 248 -59.5t94 -169.5q0 -68 -26.5 -125t-67.5 -106.5t-93 -90.5t-103 -76q94 -104 217 -213.5l260 -220.5q16 20 40.5 66.5t47 110t39 138t16.5 152.5v29q0 14 -2 29h-135v102h471v-102h-154 q-20 -119 -51 -217.5t-64.5 -173t-65.5 -127t-50 -76.5q86 -63 170 -118.5t186 -107.5h125v-102h-332z" />
<glyph unicode="'" horiz-adv-x="512" d="M199 1434h200l-55 -404h-90z" />
<glyph unicode="(" horiz-adv-x="796" d="M698 -430q-117 74 -219 164t-178 201.5t-120 251t-44 311.5q0 168 45 304t122 248.5t180.5 207t220.5 180.5l57 -62q-92 -88 -169 -177t-132 -191.5t-86 -227.5t-31 -282q0 -152 33 -278t89 -230.5t131 -191.5t161 -160z" />
<glyph unicode=")" horiz-adv-x="796" d="M41 -369q86 74 160.5 165t131 200.5t88.5 240t32 281.5q0 158 -31 279t-86 221t-132 185t-169 173l57 62q119 -78 222.5 -169t180 -202t120.5 -246t44 -303q0 -170 -42 -310t-117.5 -257t-178 -211t-225.5 -170z" />
<glyph unicode="*" horiz-adv-x="1069" d="M944 1034l-127 -221l-211 231l33 58zM815 1419l127 -225l-301 -55l-37 51zM399 1522h263l-97 -303h-71zM115 1194l139 225l205 -227l-33 -53zM252 813l-137 221l313 72l31 -59zM662 715h-263l95 303h71z" />
<glyph unicode="+" d="M139 760h414v428h123v-428h414v-111h-414v-440h-123v440h-414v111z" />
<glyph unicode="," horiz-adv-x="653" d="M125 -295q43 14 79 44t63.5 67t43 80t15.5 86v18h-144q-20 33 -28.5 61.5t-8.5 57.5q0 35 10.5 65.5t26.5 61.5h258q20 -51 28.5 -99.5t8.5 -93.5q0 -82 -25.5 -151.5t-69.5 -123.5t-100.5 -91t-117.5 -54z" />
<glyph unicode="-" horiz-adv-x="972" d="M164 643h647v-131h-647v131z" />
<glyph unicode="." horiz-adv-x="643" d="M164 119q0 63 43 100t115 37t116.5 -37t44.5 -100q0 -61 -45 -98t-116 -37q-72 0 -115 37t-43 98z" />
<glyph unicode="/" horiz-adv-x="790" d="M750 1460l100 -39l-840 -1687l-98 41z" />
<glyph unicode="0" d="M76 717q0 369 140 555t398 186q276 0 407.5 -183t131.5 -558q0 -369 -141.5 -555.5t-411.5 -186.5q-141 0 -240.5 50.5t-162 145.5t-92 232.5t-29.5 313.5zM305 717q0 -147 15.5 -268t51.5 -207t91 -133.5t135 -47.5q180 0 253 159t73 497q0 147 -13.5 268t-49.5 207 t-95 133t-152 47q-170 0 -239.5 -158.5t-69.5 -496.5z" />
<glyph unicode="1" d="M981 0h-678v131h234v1155l-242 -127l-55 101l297 174h215v-1303h229v-131z" />
<glyph unicode="2" d="M348 1092h-196v227q80 61 192.5 98t247.5 37q115 0 198.5 -28.5t138 -77t80 -111.5t25.5 -135q0 -129 -63.5 -258t-159.5 -244t-211 -211t-219 -164l-45 -28l-33 -22l-22 -15v-8l133 12h475l41 41v196h131v-401h-930v172q53 31 124 82t146.5 118.5t149.5 148.5t131 170 t93 182.5t36 187.5q0 59 -17.5 110.5t-51 90t-84 60t-113.5 21.5q-68 0 -112 -10t-85 -26v-215z" />
<glyph unicode="3" d="M555 90q76 0 137.5 23.5t106.5 64.5t69.5 95.5t24.5 117.5q0 74 -26.5 130.5t-72.5 94t-107.5 57t-131.5 19.5h-145v139l460 443v8l-122 -12h-412l-41 -41v-164h-131v369h885v-160l-385 -361l-48 -43l-33 -30q-15 -14 -20 -17v-4q2 0 14.5 2t26.5 6q16 4 37 7 q109 -4 197 -32t151.5 -80t97 -127t33.5 -173q0 -102 -44 -184t-119.5 -139.5t-178 -88t-219.5 -30.5q-53 0 -113.5 8t-118 21.5t-107.5 32.5t-83 44v242h197v-183q29 -20 89 -37.5t132 -17.5z" />
<glyph unicode="4" d="M1122 0h-602v131h211v264h-702v131l702 908h215v-908h254v-131h-254v-264h176v-131zM731 1124l14 148h-6l-80 -148l-426 -544l-75 -68l147 14h426v598z" />
<glyph unicode="5" d="M897 1536h131v-266h-625v-389h132q115 0 211 -29t164.5 -82t106.5 -133t38 -180q0 -119 -46 -208t-122 -149.5t-175.5 -90t-203.5 -29.5q-94 0 -184.5 20t-155.5 68v219h197v-178l61 -12q39 -7 80 -7q76 0 137.5 23.5t105.5 66.5t67.5 101.5t23.5 130.5q0 82 -33 140 t-90.5 96t-134 55.5t-164.5 17.5h-146v713h584l41 41v61z" />
<glyph unicode="6" d="M1157 434q0 -96 -37 -180t-103.5 -145.5t-160.5 -97.5t-211 -36q-129 0 -229.5 40t-168 112t-102 170t-34.5 215q0 193 70.5 350.5t189 276t272.5 196.5t320 113l28 -102q-106 -31 -213.5 -86.5t-196.5 -135.5t-151.5 -184t-77.5 -233q18 27 52 53t79 46.5t101.5 34 t120.5 13.5q98 0 182 -28.5t143.5 -82t93 -131.5t33.5 -178zM928 416q0 147 -77 237t-216 90q-109 0 -182.5 -47t-108.5 -106q-4 -29 -4 -68v-61q0 -66 19.5 -134.5t58.5 -125t99.5 -93t139.5 -36.5q72 0 123 29.5t84 78.5t48.5 111t15.5 125z" />
<glyph unicode="7" d="M276 1063h-131v371h963v-162l-514 -1272h-217l565 1184l70 96l-117 -10h-578l-41 -41v-166z" />
<glyph unicode="8" d="M113 322q0 70 25.5 132t71.5 114.5t107.5 94.5t133.5 72q-129 59 -204 143.5t-75 219.5q0 80 32 145.5t91 113.5t144 74.5t190 26.5q205 0 318.5 -91t113.5 -234q0 -119 -77 -218.5t-210 -148.5q162 -78 255 -175t93 -241q0 -78 -33.5 -145.5t-100 -118.5t-163 -81 t-221.5 -30t-217 29t-153.5 76t-91 110.5t-29.5 131.5zM911 313q0 70 -30.5 125.5t-83 99.5t-119 80.5t-139.5 67.5q-63 -35 -106.5 -77t-69 -88t-36 -91t-10.5 -84q0 -49 16.5 -98t52.5 -88t94.5 -63.5t142.5 -24.5q72 0 126 21.5t89.5 55t54 77.5t18.5 87zM383 1126 q0 -61 24.5 -109t66.5 -85t97.5 -67.5t116.5 -57.5q96 70 132 138.5t36 152.5q0 127 -60.5 195.5t-170.5 68.5q-61 0 -106.5 -20.5t-75 -53.5t-45 -75t-15.5 -87z" />
<glyph unicode="9" d="M106 997q0 100 35 184.5t100.5 146t162 96t219.5 34.5q135 0 232 -40t161.5 -111.5t95.5 -175t31 -228.5q0 -190 -65.5 -351t-178.5 -283t-263.5 -196.5t-322.5 -92.5l-28 102q270 53 424.5 217t191.5 395q-53 -49 -126 -82.5t-193 -33.5q-104 0 -191.5 27.5t-150 81.5 t-98.5 132t-36 178zM336 999q0 -59 20.5 -115.5t58.5 -99.5t92 -69.5t122 -26.5q106 0 178 33t106 84q4 27 5.5 65.5t1.5 63.5q0 74 -16.5 150.5t-53.5 138t-95.5 100.5t-140.5 39q-137 0 -207.5 -97.5t-70.5 -265.5z" />
<glyph unicode=":" horiz-adv-x="753" d="M275 903q0 63 43 100t115 37t116.5 -37t44.5 -100q0 -61 -45 -98t-116 -37q-72 0 -115 37t-43 98zM275 119q0 63 43 100t115 37t116.5 -37t44.5 -100q0 -61 -45 -98t-116 -37q-72 0 -115 37t-43 98z" />
<glyph unicode=";" horiz-adv-x="763" d="M283 903q0 63 43 100t115 37t116.5 -37t44.5 -100q0 -61 -45 -98t-116 -37q-72 0 -115 37t-43 98zM244 -295q43 14 79 44t63.5 67t43 80t15.5 86v18h-144q-20 33 -28.5 61.5t-8.5 57.5q0 35 10.5 65.5t26.5 61.5h258q20 -51 28.5 -99.5t8.5 -93.5q0 -82 -25.5 -151.5 t-69.5 -123.5t-100.5 -91t-117.5 -54z" />
<glyph unicode="&#x3c;" d="M106 664v63l883 481l62 -121l-719 -380l731 -381l-76 -115z" />
<glyph unicode="=" d="M96 926h1034v-111h-1034v111zM96 594h1034v-111h-1034v111z" />
<glyph unicode="&#x3e;" d="M1128 756v-64l-884 -481l-68 113l725 397l-731 375l76 112z" />
<glyph unicode="?" horiz-adv-x="1087" d="M356 1122h-196v248q86 47 180 67.5t205 20.5q242 0 354.5 -109.5t112.5 -304.5q0 -90 -32 -167.5t-92.5 -139t-146.5 -103.5t-196 -56v-205h-131v291q92 18 160.5 46.5t114.5 73.5t69.5 109.5t23.5 155.5q0 55 -14 109t-45 97t-79 70t-116 27q-72 0 -111.5 -11.5 t-60.5 -27.5v-191zM317 119q0 63 43 100t115 37t117 -37t45 -100q0 -61 -45 -98t-117 -37t-115 37t-43 98z" />
<glyph unicode="@" horiz-adv-x="2275" d="M1622 1004l-117 -584v-303h27q92 0 171 40t135 112.5t89 174t33 224.5q0 156 -62.5 281.5t-169 214.5t-251 136.5t-306.5 47.5q-195 0 -352 -65.5t-269 -181.5t-173.5 -271.5t-61.5 -333.5q0 -182 72 -322.5t190.5 -236t271 -145.5t314.5 -50q66 0 151 14.5t154 42.5 l37 -94q-82 -41 -178 -57.5t-213 -16.5q-104 0 -215 23.5t-214 71t-194.5 119t-159 165.5t-107.5 213t-40 260q0 223 80 403.5t216 307.5t317.5 195.5t384.5 68.5q193 0 359.5 -54t288.5 -155.5t191.5 -248t69.5 -332.5q0 -121 -34 -241t-108.5 -214t-193.5 -152.5 t-289 -58.5q-35 0 -68.5 3t-72.5 7v361h-12q-27 -66 -71 -129.5t-101.5 -115.5t-122 -84t-131.5 -32q-137 0 -212 85t-75 227q0 129 48 253.5t131 223t192.5 158t232.5 59.5q82 0 133.5 -13.5t104.5 -35.5zM1403 870q-35 20 -74 30.5t-94 10.5q-88 0 -165 -54t-134 -137 t-91 -183.5t-34 -190.5q0 -98 35 -151.5t127 -53.5q43 0 93 37t99 97.5t95.5 135t82.5 152.5z" />
<glyph unicode="A" horiz-adv-x="1546" d="M502 0h-502v115h160l530 1319h217l486 -1319h153v-115h-585v115h182l-133 360h-545l-139 -360h176v-115zM512 590h463l-168 473l-51 217h-8l-60 -221z" />
<glyph unicode="B" horiz-adv-x="1413" d="M66 0v115h186v1204h-186v115h268q43 0 82 2t82 4t93 4t111 2q90 0 184.5 -13.5t170.5 -50t124 -103.5t48 -173q0 -55 -19.5 -108.5t-57.5 -98.5t-95.5 -80t-132.5 -51v-8q68 -10 135 -35t121.5 -67t87 -103t32.5 -147q0 -111 -54 -191t-142 -131t-199.5 -74.5 t-226.5 -23.5q-80 0 -179.5 6t-191.5 6h-241zM694 102q80 0 148.5 21.5t118 60.5t77 93.5t27.5 119.5q0 82 -34 136.5t-90 86t-132 44t-160 12.5h-168v-555q31 -8 75 -13.5t138 -5.5zM592 782q41 0 91 3t85 8q104 33 167.5 105.5t63.5 170.5q0 135 -86 198.5t-233 63.5 q-70 0 -118 -3t-81 -7v-539h111z" />
<glyph unicode="C" horiz-adv-x="1429" d="M1165 377h131v-322q-63 -35 -167.5 -57.5t-206.5 -22.5q-188 0 -338 43t-253.5 134.5t-158.5 230.5t-55 334q0 201 61.5 341t166 229t241.5 130t288 41q74 0 133.5 -5t107.5 -15.5t89 -24.5t80 -31v-350h-131v215l-29 41q-23 10 -70.5 24.5t-154.5 14.5q-111 0 -207 -35 t-166.5 -108.5t-111.5 -189t-41 -277.5q0 -293 148.5 -452t416.5 -159q74 0 124 11.5t75 29.5l28 39v191z" />
<glyph unicode="D" horiz-adv-x="1601" d="M66 0v115h186v1204h-186v115h251q39 0 91.5 2t107.5 5l105.5 6t85.5 3q190 0 335.5 -48t243.5 -139.5t148.5 -224.5t50.5 -303q0 -164 -47 -301t-147.5 -238.5t-257 -157.5t-374.5 -56q-33 0 -75.5 3t-90.5 6l-98 6q-49 3 -92 3h-237zM676 1335q-57 0 -110.5 -2t-84.5 -8 v-1221q12 -2 41 -3t62.5 -2l64.5 -2t43 -1q154 0 256.5 52.5t165 139.5t89 202.5t26.5 244.5q0 100 -25.5 207t-89 195t-170 143t-268.5 55z" />
<glyph unicode="E" horiz-adv-x="1320" d="M1155 1434v-336h-131v176l-41 45h-502v-531h346l31 31v86h131v-350h-131v86l-31 33h-346v-559h537l41 41v200h131v-356h-1124v115h186v1204h-186v115h1089z" />
<glyph unicode="F" horiz-adv-x="1275" d="M481 115h219v-115h-634v115h186v1204h-186v115h1108v-336h-132v176l-41 45h-520v-561h371l31 30v99h131v-375h-131v98l-31 33h-371v-528z" />
<glyph unicode="G" horiz-adv-x="1585" d="M1370 98q-43 -25 -98 -47t-115.5 -38.5t-122 -27t-119.5 -10.5q-190 0 -338.5 44t-251 135.5t-155.5 231.5t-53 331q0 201 64.5 342t171 230t244.5 129t284 40q152 0 250 -20.5t176 -55.5v-350h-131v215l-29 41q-18 10 -47 17.5t-60.5 12.5t-65.5 7t-63 2 q-113 0 -211 -35t-170.5 -108.5t-114.5 -189t-42 -277.5q0 -291 144.5 -451t414.5 -160q68 0 116 9.5t85 23.5l30 37v387h-217v115h567v-115h-143v-465z" />
<glyph unicode="H" horiz-adv-x="1679" d="M651 115v-115h-585v115h186v1204h-186v115h585v-115h-170v-526h717v526h-170v115h586v-115h-187v-1204h187v-115h-586v115h170v563h-717v-563h170z" />
<glyph unicode="I" horiz-adv-x="815" d="M709 0h-603v115h187v1204h-187v115h603v-115h-187v-1204h187v-115z" />
<glyph unicode="J" horiz-adv-x="778" d="M74 -231q35 16 67.5 39.5t58 65.5t41 109.5t15.5 176.5v1159h-170v115h586v-115h-187v-1139q0 -145 -37.5 -238.5t-93 -149.5t-119 -82.5t-114.5 -37.5z" />
<glyph unicode="K" horiz-adv-x="1458" d="M614 782l447 537h-166v115h506v-115h-162l-487 -547l579 -657h127v-115h-330l-538 680h-109v-565h170v-115h-585v115h186v1204h-186v115h585v-115h-170v-537h133z" />
<glyph unicode="L" horiz-adv-x="1247" d="M66 1319v115h636v-115h-221v-1204h545l41 45v282h147v-442h-1148v115h186v1204h-186z" />
<glyph unicode="M" horiz-adv-x="2015" d="M66 1319v115h466l484 -918l493 918h441v-115h-187v-1204h187v-115h-594v115h186v913q2 10 3 48t3 81q2 51 4 111h-18l-88 -219l-420 -742h-125l-409 742l-91 239h-20v-127q0 -47 1 -89t1 -44v-913h174v-115h-491v115h186v1204h-186z" />
<glyph unicode="N" horiz-adv-x="1679" d="M1110 1434h504v-115h-187v-1344h-133l-833 1125l-90 157h-9l21 -159v-983h186v-115h-503v115h186v1204h-186v115h409l717 -965l106 -176h11l-13 176v850h-186v115z" />
<glyph unicode="O" horiz-adv-x="1699" d="M117 717q0 160 49 296t142 235.5t229.5 154.5t310.5 55t311 -55t231.5 -154.5t143.5 -235.5t49 -296t-49 -296t-143.5 -235.5t-231.5 -155t-311 -55.5t-310.5 55.5t-229.5 155t-142 235.5t-49 296zM373 717q0 -131 29.5 -246t91 -199t154.5 -133t220 -49q117 0 203 49 t142.5 133t85 199t28.5 246t-29.5 245.5t-91 198.5t-155 133t-222.5 49q-123 0 -210 -49t-142 -133t-79.5 -198.5t-24.5 -245.5z" />
<glyph unicode="P" horiz-adv-x="1366" d="M66 1319v115h213q92 0 199.5 8t207.5 8q113 0 221.5 -21.5t192.5 -72.5t136 -136t52 -212q0 -121 -53 -208t-140 -142.5t-201 -82t-235 -26.5h-36q-25 0 -52.5 1t-52 3t-37.5 4v-442h205v-115h-620v115h186v1204h-186zM481 674q10 -4 32 -5t46.5 -3t47.5 -2h36 q80 0 150.5 19t124 60t84 106.5t30.5 158.5q0 168 -105.5 247.5t-287.5 79.5q-55 0 -92 -3t-66 -9v-649z" />
<glyph unicode="Q" horiz-adv-x="1699" d="M1759 -268q-90 -76 -193.5 -111t-213.5 -35q-94 0 -204 35t-230.5 79t-249.5 86t-265 56l17 82q49 6 96 6q117 0 231.5 -25.5t231.5 -56t235.5 -56t241.5 -25.5q66 0 133.5 10t136.5 33zM117 717q0 160 49 296t142 235.5t229.5 154.5t310.5 55t311 -55t231.5 -154.5 t143.5 -235.5t49 -296t-49 -296t-143.5 -235.5t-231.5 -155t-311 -55.5t-310.5 55.5t-229.5 155t-142 235.5t-49 296zM373 717q0 -131 29.5 -246t91 -199t154.5 -133t220 -49q117 0 203 49t142.5 133t85 199t28.5 246t-29.5 245.5t-91 198.5t-155 133t-222.5 49 q-123 0 -210 -49t-142 -133t-79.5 -198.5t-24.5 -245.5z" />
<glyph unicode="R" horiz-adv-x="1449" d="M481 115h176v-115h-591v115h186v1204h-186v115h206q92 0 201 8t213 8q113 0 212 -23.5t171 -72.5t114 -126t42 -184q0 -147 -91.5 -250.5t-238.5 -146.5l408 -532h127v-115h-332l-408 618h-209v-503zM643 725q158 0 247 86t89 233q0 152 -94 221.5t-250 69.5 q-53 0 -89 -4t-65 -8v-598h162z" />
<glyph unicode="S" horiz-adv-x="1220" d="M258 201l37 -49q37 -27 101.5 -44.5t142.5 -17.5q74 0 136 15.5t109 46t74 77.5t27 113q0 84 -56.5 139.5t-140.5 98.5t-182 84t-182 96t-140.5 133t-56.5 197q0 174 132 271t357 97q141 0 244 -18.5t174 -48.5v-353h-131v222l-33 51q-39 16 -112.5 24t-145.5 8 q-123 0 -192.5 -56t-69.5 -159q0 -84 56.5 -140t140.5 -101t182 -87t182 -96.5t140.5 -130t56.5 -188.5q0 -199 -153.5 -304.5t-419.5 -105.5q-145 0 -252 31t-156 66v372h131v-243z" />
<glyph unicode="T" horiz-adv-x="1429" d="M1040 0h-651v115h211v1204h-367l-40 -45v-264h-148v424h1339v-424h-147v264l-41 45h-367v-1204h211v-115z" />
<glyph unicode="U" horiz-adv-x="1560" d="M1350 489q0 -131 -39 -226t-110 -157.5t-171 -93t-223 -30.5q-291 0 -443.5 115.5t-152.5 357.5v864h-186v115h581v-115h-166v-821q0 -106 27 -179t77 -117t123.5 -63.5t168.5 -19.5q180 0 281.5 90t101.5 295v815h-166v115h483v-115h-186v-830z" />
<glyph unicode="V" horiz-adv-x="1579" d="M1257 1319h-186v115h508v-115h-168l-475 -1319h-227l-533 1319h-176v115h629v-115h-197l369 -957l59 -194h8l62 199z" />
<glyph unicode="W" horiz-adv-x="2162" d="M1837 1319h-178v115h504v-115h-170l-342 -1319h-238l-319 1135l-322 -1135h-237l-359 1319h-176v115h612v-115h-194l219 -877l53 -272h8l80 276q0 2 13 47l32 113l45 159l52 181l139 488h151l291 -988l64 -272h10l61 277z" />
<glyph unicode="X" horiz-adv-x="1548" d="M920 1434h516v-115h-168l-402 -551l471 -653h187v-115h-596v115h149l-360 506l-340 -506h158v-115h-515v115h173l448 606l-430 598h-182v115h610v-115h-164l318 -457l307 457h-180v115z" />
<glyph unicode="Y" horiz-adv-x="1488" d="M979 1434h510v-115h-174l-436 -711v-493h186v-115h-602v115h186v491l-463 713h-186v115h618v-115h-172l371 -596l350 596h-188v115z" />
<glyph unicode="Z" horiz-adv-x="1376" d="M82 115l938 1204h-698l-41 -45v-256h-148v416h1149v-115l-938 -1204h762l41 45v256h147v-416h-1212v115z" />
<glyph unicode="[" horiz-adv-x="708" d="M188 1434h441v-86h-236v-1733h236v-86h-441v1905z" />
<glyph unicode="\" horiz-adv-x="876" d="M940 -219l-119 -55l-932 1685l119 59z" />
<glyph unicode="]" horiz-adv-x="708" d="M520 -471h-440v86h235v1733h-235v86h440v-1905z" />
<glyph unicode="^" d="M582 1456h80l391 -567h-209l-258 407l-299 -407h-131z" />
<glyph unicode="_" horiz-adv-x="942" d="M0 -289h942v-112h-942v112z" />
<glyph unicode="`" horiz-adv-x="704" d="M582 1260l-58 -48l-401 240v84h258z" />
<glyph unicode="a" horiz-adv-x="1165" d="M950 285q0 -47 2 -95.5t6 -87.5h136v-102h-322l-20 195h-11q-10 -41 -37.5 -80t-69.5 -70t-99.5 -49.5t-126.5 -18.5q-70 0 -128.5 20.5t-101.5 57.5t-66.5 89.5t-23.5 117.5q0 100 42 166t124 103.5t205 54t286 18.5q4 33 5 63v58q0 127 -43 193.5t-154 66.5 q-41 0 -88 -4t-86 -25v-188h-184v227q74 39 174 70t235 31q117 0 187.5 -30t108.5 -78t49.5 -108.5t11.5 -119.5q0 -129 -5.5 -246.5t-5.5 -228.5zM502 115q49 0 88 15t68.5 39t51 52.5t35.5 54.5v244q-133 0 -216 -17.5t-130 -46t-64.5 -68.5t-17.5 -85q0 -92 49.5 -140 t135.5 -48z" />
<glyph unicode="b" horiz-adv-x="1257" d="M174 1434h-174v102h389v-672h6q39 109 131 170.5t207 61.5q209 0 320.5 -131t111.5 -408q0 -285 -154.5 -431t-441.5 -146q-57 0 -115.5 7t-112.5 18t-97 25.5t-70 30.5v1373zM666 958q-111 0 -177.5 -66.5t-99.5 -170.5v-596q41 -23 99.5 -36t125.5 -13q152 0 236 123 t84 358q0 84 -14.5 157.5t-47 128t-82.5 85t-124 30.5z" />
<glyph unicode="c" horiz-adv-x="1071" d="M987 137q-43 -59 -136 -109.5t-220 -50.5q-135 0 -236.5 40t-169 113t-100.5 176.5t-33 230.5q0 272 144.5 415.5t392.5 143.5q113 0 186.5 -14.5t134.5 -45.5v-266h-184v197q-31 18 -123 18q-78 0 -137.5 -22.5t-100 -73.5t-61 -137t-20.5 -211q0 -82 22.5 -157 t67.5 -131t113.5 -89t160.5 -33q49 0 87 10.5t66.5 21.5t51 25.5t43.5 30.5z" />
<glyph unicode="d" horiz-adv-x="1280" d="M856 213q-12 -47 -40 -90t-67.5 -76t-91 -51.5t-110.5 -18.5q-227 0 -341 134.5t-114 418.5q0 137 38 243t107.5 177.5t168 108.5t219.5 37q43 0 73.5 -2t57 -6.5t51.5 -11.5l53 -15v373h-174v102h389v-1434h139v-102h-331l-19 213h-8zM594 115q113 0 176.5 63.5 t89.5 175.5v604q-41 20 -91 30.5t-132 10.5q-76 0 -134.5 -32.5t-98 -94t-60 -148.5t-20.5 -194q0 -86 15 -161.5t48 -132t84 -89t123 -32.5z" />
<glyph unicode="e" horiz-adv-x="1159" d="M1022 141q-53 -76 -150.5 -120t-226.5 -44q-135 0 -238.5 40t-173 113t-105.5 176.5t-36 230.5q0 274 137.5 416.5t384.5 142.5q82 0 161 -20.5t140.5 -67.5t99.5 -125t38 -193q0 -35 -4.5 -73.5t-12.5 -81.5h-712q0 -90 23.5 -164t71.5 -127.5t119.5 -83t170.5 -29.5 q80 0 148.5 26.5t109.5 61.5zM606 999q-63 0 -111.5 -18t-83 -61t-55 -114t-26.5 -175h493q2 18 3 37.5t1 36.5q0 135 -54 214.5t-167 79.5z" />
<glyph unicode="f" horiz-adv-x="788" d="M711 1536q72 0 128 -12.5t85 -22.5v-198h-197v131q-68 0 -118 -12.5t-82.5 -47.5t-49 -95t-16.5 -159v-45h262v-131h-262v-842h219v-102h-586v102h152v842h-174v131h174v33q0 207 124 317.5t341 110.5z" />
<glyph unicode="g" horiz-adv-x="1212" d="M1192 1075v-131h-240q29 -29 53.5 -80t24.5 -123q0 -152 -118.5 -243.5t-342.5 -91.5q-41 0 -69.5 1t-61.5 9q-10 -20 -25.5 -44t-15.5 -50q0 -43 53.5 -64.5t133.5 -39t174 -35t175 -51.5t134 -89t53 -145q0 -78 -40 -136.5t-112.5 -96.5t-173 -56.5t-219.5 -18.5 q-256 0 -382.5 68t-126.5 186q0 115 77.5 176.5t218.5 102.5q-53 23 -85.5 49.5t-32.5 79.5q0 25 12 50.5t32.5 49t45 43t47.5 31.5q-131 35 -201.5 119t-70.5 200q0 150 116.5 240t343.5 90h623zM905 -152q0 68 -48 108t-120.5 65.5t-156.5 42t-158 38.5 q-86 -51 -113.5 -103t-27.5 -112q0 -86 86 -143t249 -57q84 0 139.5 13t89.5 35.5t47 51t13 61.5zM324 745q0 -53 12 -98t39.5 -76.5t75 -50t118.5 -18.5q131 0 188.5 66.5t57.5 176.5q0 43 -3 72t-8 51.5t-11 39.5l-13 36q-47 20 -100 27.5t-111 7.5q-139 0 -192 -57.5 t-53 -176.5z" />
<glyph unicode="h" horiz-adv-x="1353" d="M1315 0h-502v102h135v504q0 170 -45 261t-160 91q-61 0 -114.5 -20t-94 -53t-70.5 -73t-44 -79v-631h135v-102h-502v102h152v1332h-174v102h389v-678h2q47 100 148.5 169t242.5 69q80 0 145.5 -19.5t110.5 -71t69.5 -137.5t24.5 -219v-547h152v-102z" />
<glyph unicode="i" horiz-adv-x="694" d="M610 0h-518v102h152v871h-152v102h367v-973h151v-102zM199 1407q0 59 42 94t107 35q70 0 110 -35t40 -94t-40 -94t-110 -35q-66 0 -107.5 35t-41.5 94z" />
<glyph unicode="j" horiz-adv-x="667" d="M244 973h-152v102h367v-948q0 -154 -42 -254t-99.5 -162.5t-116 -92.5t-90.5 -40l-56 88q27 12 59.5 38t61.5 73t48.5 121.5t19.5 187.5v887zM197 1407q0 59 42 94t107 35q70 0 110 -35t40 -94t-40 -94t-110 -35q-66 0 -107.5 35t-41.5 94z" />
<glyph unicode="k" horiz-adv-x="1191" d="M649 1075h451v-102h-131l-318 -367l418 -504h102v-102h-294l-381 510h-76v-408h151v-102h-518v102h152v1332h-174v102h389v-944h72l313 381h-156v102z" />
<glyph unicode="l" horiz-adv-x="694" d="M610 0h-518v102h152v1332h-174v102h389v-1434h151v-102z" />
<glyph unicode="m" horiz-adv-x="1988" d="M1264 0h-496v102h133v498q0 86 -7 153.5t-28.5 112.5t-62.5 68.5t-107 23.5q-49 0 -90 -17t-73.5 -48t-56 -71t-38.5 -85v-635h133v-102h-499v102h151v871h-151v102h366v-217h2q35 100 124 169t218 69q53 0 105.5 -10.5t95.5 -39t75 -78.5t44 -132q20 51 54 98t80 83 t103.5 57.5t124.5 21.5q84 0 146.5 -20.5t104.5 -71t62.5 -137.5t20.5 -222v-543h152v-102h-500v102h133v537q0 76 -8 136.5t-30.5 100t-63.5 61t-109 21.5q-109 0 -169 -66.5t-87 -174.5v-615h148v-102z" />
<glyph unicode="n" horiz-adv-x="1372" d="M1333 0h-502v102h136v514q0 162 -49.5 252t-180.5 90q-57 0 -105 -18t-86 -49t-65.5 -72t-42.5 -86v-631h135v-102h-501v102h151v871h-151v102h366v-213h2q47 98 138.5 166t220.5 68q92 0 163.5 -19.5t119.5 -71t74 -137.5t26 -219v-547h151v-102z" />
<glyph unicode="o" horiz-adv-x="1273" d="M92 537q0 135 39 239.5t109.5 175t172 107.5t224.5 37q143 0 246.5 -40t169 -113t97.5 -176t32 -230q0 -135 -38 -238.5t-108.5 -174.5t-172 -107.5t-226.5 -36.5q-139 0 -241.5 39.5t-170 112.5t-100.5 175.5t-33 229.5zM324 537q0 -98 18 -182.5t60 -146t109 -97 t163 -35.5q121 0 198.5 110.5t77.5 350.5q0 98 -18.5 183t-58 147.5t-102 97t-153.5 34.5q-135 0 -214.5 -110t-79.5 -352z" />
<glyph unicode="p" horiz-adv-x="1302" d="M588 -410h-518v103h151v1280h-151v102h366v-215h2q45 109 128 172.5t218 63.5q203 0 314.5 -125t111.5 -410q0 -135 -37.5 -243.5t-108.5 -184.5t-170 -116t-222 -40q-41 0 -73 2.5t-58.5 6.5t-52 12t-52.5 18v-323h152v-103zM705 958q-111 0 -175.5 -62t-93.5 -177v-600 q41 -27 91.5 -36t134.5 -9q76 0 135 35.5t100 100t62.5 154t21.5 197.5q0 88 -14.5 161t-46 125t-84.5 81.5t-131 29.5z" />
<glyph unicode="q" horiz-adv-x="1261" d="M854 190q-16 -43 -45 -80.5t-69 -67.5t-91 -47.5t-114 -17.5q-217 0 -330 135.5t-113 415.5q0 281 149.5 424.5t430.5 143.5q61 0 122.5 -6.5t116 -16.5t98.5 -21.5t68 -23.5v-1335h152v-103h-518v103h151v497h-8zM594 115q111 0 175.5 63.5t92.5 173.5v617 q-41 10 -97 20t-128 10q-152 0 -232.5 -111.5t-80.5 -352.5q0 -90 14 -167t46 -133.5t83 -88t127 -31.5z" />
<glyph unicode="r" horiz-adv-x="886" d="M582 891q-47 -25 -78 -57.5t-66 -94.5v-637h180v-102h-546v102h151v871h-151v102h366v-207h8q35 68 82 118t107 89h196v-184h-249z" />
<glyph unicode="s" horiz-adv-x="995" d="M680 244q0 55 -41 97t-102.5 78t-133 71.5t-133 81.5t-102.5 108.5t-41 150.5q0 59 28.5 107.5t77 83.5t114 54.5t138.5 19.5q61 0 108.5 -4.5t86.5 -11.5t73.5 -17t71.5 -23v-276h-131v162l-39 45q-27 6 -57.5 10t-65.5 4q-98 0 -146 -38t-48 -95q0 -55 41 -96 t102.5 -77t133 -71t133 -79t102.5 -101t41 -137q0 -74 -34 -131.5t-92 -97t-137 -61t-167 -21.5q-98 0 -191.5 25.5t-146.5 60.5v268h131v-156l41 -43q27 -20 63.5 -32.5t96.5 -12.5q98 0 161.5 41t63.5 113z" />
<glyph unicode="t" horiz-adv-x="856" d="M35 1075h182v256h215v-256h340v-131h-340v-598q0 -129 33 -182t106 -53q63 0 109.5 22.5t85.5 48.5l51 -80q-18 -18 -50 -39.5t-73 -40t-91 -30.5t-103 -12q-137 0 -210 70.5t-73 234.5v659h-182v131z" />
<glyph unicode="u" horiz-adv-x="1325" d="M178 426q0 135 6 276.5t6 270.5h-151v102h364q-4 -160 -7 -306t-3 -304q0 -84 9.5 -148.5t35 -109.5t70.5 -67.5t115 -22.5q102 0 171.5 65.5t106.5 175.5v615h-149v102h364v-973h152v-102h-342l-15 233h-10q-10 -43 -40 -88t-75 -81.5t-104 -60t-129 -23.5 q-92 0 -161.5 19t-117 70.5t-72 137.5t-24.5 219z" />
<glyph unicode="v" horiz-adv-x="1169" d="M487 0l-393 973h-117v102h488v-102h-137l245 -645l54 -224h10l57 224l230 645h-125v102h393v-102h-127l-356 -973h-222z" />
<glyph unicode="w" horiz-adv-x="1679" d="M360 0l-260 973h-123v102h484v-102h-137l170 -690l24 -158h12l31 160l246 764h162l209 -719l45 -205h10l39 201l162 647h-127v102h395v-102h-129l-270 -973h-240l-164 612q-2 2 -7 30t-13 63q-8 39 -21 88h-12l-25 -88l-18 -62q-8 -27 -8 -31l-209 -612h-226z" />
<glyph unicode="x" horiz-adv-x="1200" d="M692 575l363 -473h121v-102h-500v102h137l-252 357l-254 -357h113v-102h-395v102h129l342 430l-344 441h-113v102h491v-102h-133l236 -326l229 326h-112v102h385v-102h-127z" />
<glyph unicode="y" horiz-adv-x="1163" d="M96 973h-121v102h529v-102h-172l278 -680l41 -156h11l38 158l220 678h-125v102h393v-102h-131l-336 -973q-29 -84 -62.5 -154.5t-65.5 -125t-61.5 -88t-50.5 -42.5h-207v185h209q14 16 26.5 32.5t25 41t26.5 60.5t33 91h-76z" />
<glyph unicode="z" horiz-adv-x="1124" d="M1006 371v-371h-889v102l674 871h-445l-41 -41v-205h-131v348h852v-102l-678 -871h486l40 41v228h132z" />
<glyph unicode="{" horiz-adv-x="800" d="M307 225q0 104 -47 164t-137 60v65q90 0 137 62.5t47 152.5v488q0 98 55.5 157.5t165.5 59.5h211v-86h-108q-61 0 -90 -29t-29 -94v-477q0 -68 -24.5 -115t-61.5 -77t-82 -45t-86 -19v-13q39 -4 84 -20.5t83 -49t62.5 -80.5t24.5 -114v-477q0 -63 28.5 -93t94.5 -30h104 v-86h-211q-102 0 -161.5 54.5t-59.5 160.5v481z" />
<glyph unicode="|" horiz-adv-x="544" d="M211 1434h121v-1700h-121v1700z" />
<glyph unicode="}" horiz-adv-x="800" d="M494 739q0 -104 48 -163.5t136 -59.5v-65q-88 0 -136 -62.5t-48 -152.5v-490q0 -98 -55.5 -157.5t-168.5 -59.5h-209v86h109q61 0 90 28.5t29 94.5v479q0 68 20.5 115t54 76.5t74.5 45t82 19.5v12q-41 4 -82 20.5t-73.5 49.5t-54 81t-21.5 114v475q0 63 -28 93t-93 30 h-107v86h211q102 0 162 -54.5t60 -160.5v-480z" />
<glyph unicode="~" d="M125 678q84 111 168 144.5t156 33.5q59 0 113 -21.5t107.5 -48t106.5 -48t111 -21.5q43 0 87 15.5t91 53.5l39 -65q-66 -86 -134.5 -111.5t-133.5 -25.5q-59 0 -115.5 21.5t-112 48t-111 48t-110.5 21.5q-51 0 -101 -21.5t-104 -85.5z" />
<glyph unicode="&#xa1;" horiz-adv-x="753" d="M355.024 586.027l76.9951 -362.978v-624.962h-214.986v624.962l75.9951 362.978h61.9961zM482.017 913.007q0 -62.9961 -43.9971 -99.9932q-43.998 -36.998 -113.993 -36.998q-71.9961 0 -116.993 36.998q-44.9971 36.9971 -44.9971 99.9932q0 60.9971 44.9971 97.9941 q44.9971 36.998 116.993 36.998q69.9951 0 113.993 -36.998q43.9971 -36.9971 43.9971 -97.9941z" />
<glyph unicode="&#xa2;" d="M1120 160q-20 -37 -56 -70t-84 -58.5t-104.5 -41t-119.5 -15.5v-323h-131v332q-109 12 -198 55t-153.5 111.5t-99.5 160.5t-35 201q0 127 35 227.5t99.5 172t153.5 115.5t198 60v265h131v-256q111 0 179.5 -16.5t129.5 -45.5v-342h-131v281q-6 4 -23.5 9t-40 10t-47 8.5 t-49.5 3.5h-22v-902q8 0 16 -1t16 -1q78 0 147.5 29t137.5 94zM371 551q0 -145 65.5 -253t196.5 -159v848q-117 -33 -189.5 -144.5t-72.5 -291.5z" />
<glyph unicode="&#xa3;" d="M70 780h194q-35 66 -61.5 137.5t-26.5 176.5q0 84 35 151.5t97.5 114.5t149.5 72.5t193 25.5q141 0 248 -19.5t172 -47.5v-353h-131v236l-41 49l-43 11q-20 5 -48 8.5t-65.5 4.5t-93.5 1q-49 0 -95 -14.5t-81 -43t-55.5 -70.5t-20.5 -98q0 -104 31 -185l59 -157h355v-106 h-314q16 -51 20.5 -102.5t4.5 -108.5q0 -33 -5 -64.5t-23.5 -66.5t-53.5 -74t-92 -88h571l41 41v190h131v-401h-1046v68q147 55 220 135t73 203q0 66 -11.5 128t-40.5 140h-247v106z" />
<glyph unicode="&#xa4;" d="M82 350l190 166l78 25q-33 35 -45 76.5t-12 91.5q0 47 14.5 90t42.5 78l-78 24l-188 168l125 115l188 -170l29 -70q41 27 87 41t101 14q115 -4 189 -55l28 70l187 168l127 -115l-189 -166l-77 -22q29 -35 42 -78t15 -92q0 -100 -57 -170l77 -23l189 -168l-129 -115 l-187 168l-26 70q-78 -49 -189 -49q-55 0 -102 13.5t-92 35.5l-23 -68l-190 -167zM614 541q84 0 139.5 47t55.5 121t-55.5 123t-139.5 49t-139 -49.5t-55 -122.5q0 -74 55 -121t139 -47z" />
<glyph unicode="&#xa5;" d="M827 1434h506v-103h-176l-362 -645h325v-106h-370v-129h370v-107h-370v-242h186v-102h-602v102h186v242h-370v107h370v129h-370v106h323l-395 645h-187v103h621v-103h-176l350 -612l328 612h-187v103z" />
<glyph unicode="&#xa6;" horiz-adv-x="544" d="M211 389h121v-655h-121v655zM332 778h-121v656h121v-656z" />
<glyph unicode="&#xa7;" horiz-adv-x="1218" d="M799 88q0 61 -49.5 98t-123 65t-159.5 53.5t-160 64.5t-123 98t-49 156q0 51 23.5 95t64.5 81t95.5 66.5t117.5 54.5q-47 20 -89 44.5t-72.5 58.5t-49 78t-18.5 101q0 55 27.5 102.5t77.5 81t121 53t157 19.5q123 0 212 -12t163 -35v-209h-148v129q-25 10 -72 23.5 t-100 13.5q-61 0 -104 -13.5t-71 -34t-40 -47t-12 -52.5q0 -61 49 -100.5t123 -70t160 -59t159.5 -66.5t122.5 -94.5t49 -140.5q0 -59 -27.5 -107t-70.5 -86t-95 -69t-102 -51q45 -18 86 -40t72 -50.5t48.5 -64.5t17.5 -83q0 -72 -32 -128t-91.5 -96t-143.5 -61.5 t-186 -21.5q-199 0 -373 62v215h148v-129q25 -16 84 -37t137 -21q111 0 178.5 49t67.5 117zM870 639q0 49 -27.5 84t-73.5 61.5t-105 48.5l-121 44q-37 -16 -73 -39t-63.5 -49.5t-44 -57.5t-16.5 -63q0 -53 28.5 -92t76 -68t107.5 -50.5t124 -41.5q37 20 70.5 48t60.5 57.5 t42 59t15 58.5z" />
<glyph unicode="&#xa8;" horiz-adv-x="1011" d="M123 1409q0 59 36 95t95 36t95 -36t36 -95q0 -55 -36 -91t-95 -36t-95 36t-36 91zM627 1409q0 59 37.5 95t95.5 36q59 0 94 -36t35 -95q0 -55 -35 -91t-94 -36q-57 0 -95 36t-38 91z" />
<glyph unicode="&#xa9;" horiz-adv-x="1857" d="M160 594q0 170 63.5 304t170 226.5t245.5 141.5t289 49t286 -49t239 -141.5t163.5 -226.5t60.5 -304t-60.5 -304t-163.5 -226.5t-239.5 -141.5t-285.5 -49q-166 0 -306.5 49t-244 141.5t-160.5 226.5t-57 304zM270 594q0 -141 49.5 -256t137.5 -196t208.5 -126t262.5 -45 q143 0 261 45t202 126t130 196t46 256t-49.5 256t-135.5 196.5t-202.5 126t-251.5 44.5q-152 0 -272.5 -45.5t-207 -126t-132.5 -195.5t-46 -256zM1116 424h94v-205q-41 -29 -100 -40t-125 -11q-111 0 -204 27.5t-160.5 82t-105.5 134.5t-38 184q0 106 42 186t109.5 133.5 t153.5 81t174 27.5q92 0 153.5 -11.5t109.5 -33.5v-223h-103v159q-6 4 -23.5 8.5t-38 7.5t-43 5t-38.5 2q-129 0 -202 -91t-73 -251q0 -68 16.5 -130.5t52.5 -109.5t93.5 -74.5t136.5 -27.5q43 0 76 10t43 19v141z" />
<glyph unicode="&#xaa;" horiz-adv-x="991" d="M197 1229l-13 149l60.5 24.5t73.5 21t96.5 13.5t128.5 5q147 0 202.5 -53.5t55.5 -153.5q0 -39 -1 -87l-2 -97l-2 -93.5t-1 -76.5h114v-103h-252l-20 121h-10q-12 -18 -33 -43t-52.5 -45t-78.5 -34.5t-111 -14.5q-106 0 -172.5 50t-66.5 140q0 63 35.5 103.5t97 63 t143.5 31.5t172 9q16 0 31.5 -1t32.5 -1q2 12 2 36v34q0 27 -6.5 51.5t-24.5 43.5t-50 30.5t-81 11.5q-27 0 -58.5 -5t-64.5 -16v-114h-145zM422 858q47 0 81 13.5t58.5 32t38.5 40l25 39.5v107q-23 2 -47 2h-48q-45 0 -87 -7.5t-73.5 -22.5t-50 -40t-18.5 -57q0 -41 31 -74 t90 -33z" />
<glyph unicode="&#xab;" horiz-adv-x="1085" d="M504 530l391 422l59 -41l-243 -366l256 -387l-56 -43zM55 530l494 426l59 -43l-317 -370l332 -387l-62 -45z" />
<glyph unicode="&#xac;" d="M137 795h979v-389h-145v258h-834v131z" />
<glyph unicode="&#xad;" horiz-adv-x="972" d="M164 643h647v-131h-647v131z" />
<glyph unicode="&#xae;" horiz-adv-x="1607" d="M223 924q0 131 47 233.5t127 172t185.5 105t222.5 35.5q121 0 227.5 -35.5t185 -105t125 -172t46.5 -233.5q0 -133 -47.5 -234.5t-128 -171t-186 -105.5t-222.5 -36q-115 0 -219.5 36t-185.5 105.5t-129 171t-48 234.5zM322 924q0 -106 39.5 -191.5t106.5 -146t154 -92 t183 -31.5q100 0 188 31.5t154.5 91t104.5 144.5t38 194q0 106 -40 191t-106.5 144.5t-154.5 92t-184 32.5q-102 0 -190.5 -32.5t-154 -92t-102 -144.5t-36.5 -191zM729 702h82v-69h-287v69h80v474h-80v69h90q41 0 98.5 4t94.5 4q51 0 99 -9t84 -30.5t57.5 -54.5t21.5 -78 q0 -63 -44 -105t-107 -61l149 -213h55v-69h-157l-156 274h-80v-205zM797 1186q-27 0 -40.5 -1t-27.5 -5v-211h72q133 0 133 112q0 53 -39 79t-98 26z" />
<glyph unicode="&#xaf;" horiz-adv-x="835" d="M123 1368v113h590v-113h-590z" />
<glyph unicode="&#xb0;" horiz-adv-x="970" d="M207 1169q0 63 22.5 116.5t63.5 91.5t97 59.5t124 21.5q135 0 222 -72.5t87 -216.5q0 -135 -87 -211.5t-222 -76.5q-68 0 -124 19.5t-97 57t-63.5 90.5t-22.5 121zM330 1169q0 -82 53 -134t131 -52q88 0 137 48t49 138q0 86 -50 136.5t-136 50.5q-88 0 -136 -50.5 t-48 -136.5z" />
<glyph unicode="&#xb1;" d="M98 1006h455v428h123v-428h454v-111h-454v-313h-123v313h-455v111zM98 473h1032v-111h-1032v111z" />
<glyph unicode="&#xb2;" horiz-adv-x="983" d="M293 1296h-131v254q35 23 67.5 41.5t71.5 32.5t88 21.5t119 7.5q88 0 148.5 -19.5t97.5 -51.5t53 -75t16 -92q0 -68 -36.5 -136.5t-104.5 -134t-161 -126t-204 -111.5v-12l72 12h352v139h131v-268h-737v129q94 47 182.5 102.5t157 117t110.5 127t42 132.5q0 39 -8.5 69 t-30 51.5t-58 32.5t-94.5 11q-41 0 -76.5 -6t-66.5 -22v-226z" />
<glyph unicode="&#xb3;" horiz-adv-x="983" d="M473 860q55 0 94 14.5t63.5 37t36 50t11.5 54.5q0 86 -54.5 123t-179.5 37h-77v65l299 295h-390v-193h-131v295h684v-102l-301 -268v-2l72 8q55 0 104.5 -15.5t87 -45t60 -74.5t22.5 -105q0 -133 -115.5 -201.5t-312.5 -68.5q-94 0 -182 32.5t-147 71.5v148h184v-109 q20 -12 61 -29.5t111 -17.5z" />
<glyph unicode="&#xb4;" horiz-adv-x="704" d="M324 1536h258v-84l-402 -240l-57 48z" />
<glyph unicode="&#xb5;" horiz-adv-x="1337" d="M362 -410h-172v1383h-151v102h367v-610q0 -84 9 -149.5t34.5 -111.5t70.5 -69.5t115 -23.5q102 0 172 68.5t106 178.5v615h-151v102h366v-973h152v-102h-358v233h-11q-10 -43 -38.5 -89t-73.5 -83.5t-103.5 -62.5t-126.5 -25q-72 0 -117.5 16.5t-89.5 49.5v-449z" />
<glyph unicode="&#x3bc;" horiz-adv-x="1337" d="M362 -410h-172v1383h-151v102h367v-610q0 -84 9 -149.5t34.5 -111.5t70.5 -69.5t115 -23.5q102 0 172 68.5t106 178.5v615h-151v102h366v-973h152v-102h-358v233h-11q-10 -43 -38.5 -89t-73.5 -83.5t-103.5 -62.5t-126.5 -25q-72 0 -117.5 16.5t-89.5 49.5v-449z" />
<glyph unicode="&#xb6;" horiz-adv-x="1212" d="M909 193q0 -137 -24.5 -224.5t-67.5 -139.5t-101.5 -77.5t-125.5 -38.5q-47 -66 -108.5 -98.5t-121.5 -48.5l-47 67q51 18 94.5 46t74 74t48 118t17.5 178v586q-74 0 -146.5 20.5t-131 66.5t-95.5 121t-37 181q0 86 29 161t86 130t144 87t204 32h481v-103h-172v-1138z M635 -193q72 27 107.5 115t35.5 271v1138h-100v-1282q0 -82 -8 -140.5t-35 -101.5z" />
<glyph unicode="&#xb7;" horiz-adv-x="550" d="M121 631q0 63 43 100t115 37t116.5 -37t44.5 -100q0 -61 -45 -98t-116 -37q-72 0 -115 37t-43 98z" />
<glyph unicode="&#xb8;" horiz-adv-x="626" d="M256 -125q129 -4 188.5 -36t59.5 -99q0 -66 -36 -104.5t-91 -59t-123 -28t-131 -7.5v66q43 2 79 6t60.5 14.5t37.5 28.5t13 51q0 53 -47 65.5t-141 20.5l86 209h104z" />
<glyph unicode="&#xb9;" horiz-adv-x="983" d="M840 778h-645v103h229v632l-203 -75l-45 92l248 108h186v-757h230v-103z" />
<glyph unicode="&#xba;" horiz-adv-x="1003" d="M98 1110q0 80 31 143.5t84 109.5t128 70.5t161 24.5q88 0 161.5 -21.5t127 -64.5t83 -108.5t29.5 -153.5q0 -80 -29.5 -144.5t-83 -109.5t-127 -69.5t-161.5 -24.5q-86 0 -161 21.5t-128 64.5t-84 108.5t-31 153.5zM295 1110q0 -123 53 -196.5t154 -73.5q205 0 205 270 t-205 270q-100 0 -153.5 -67.5t-53.5 -202.5z" />
<glyph unicode="&#xbb;" horiz-adv-x="1085" d="M180 115l-59 43l256 377l-244 376l60 41l391 -422zM526 111l-63 45l336 376l-322 381l60 43l495 -426z" />
<glyph unicode="&#xbc;" horiz-adv-x="2160" d="M805 573h-645v103h229v632l-203 -75l-45 92l248 108h186v-757h230v-103zM1730 1462l84 -78l-1345 -1404l-80 79zM1927 0h-492v103h183v141h-512v102l512 514h172v-514h194v-102h-194v-141h137v-103zM1618 705l-367 -359h367v359z" />
<glyph unicode="&#xbd;" horiz-adv-x="2312" d="M805 573h-645v103h229v632l-203 -75l-45 92l248 108h186v-757h230v-103zM1730 1462l84 -78l-1345 -1404l-80 79zM1571 518h-131v254q35 23 67.5 41.5t71.5 32.5t88 21.5t119 7.5q88 0 148.5 -19.5t97.5 -51.5t53 -75t16 -92q0 -68 -36.5 -136.5t-104.5 -134t-161 -126 t-204 -111.5v-12l72 12h352v139h131v-268h-737v129q94 47 182.5 102.5t157 117t110.5 127t42 132.5q0 39 -8.5 69t-30 51.5t-58 32.5t-94.5 11q-41 0 -76.5 -6t-66.5 -22v-226z" />
<glyph unicode="&#xbe;" horiz-adv-x="2275" d="M532 655q55 0 94 14.5t63.5 37t36 50t11.5 54.5q0 86 -54.5 123t-179.5 37h-77v65l299 295h-390v-193h-131v295h684v-102l-301 -268v-2l72 8q55 0 104.5 -15.5t87 -45t60 -74.5t22.5 -105q0 -133 -115.5 -201.5t-312.5 -68.5q-94 0 -182 32.5t-147 71.5v148h184v-109 q20 -12 61 -29.5t111 -17.5zM1845 1462l84 -78l-1345 -1404l-80 79zM2044 0h-492v103h183v141h-512v102l512 514h172v-514h194v-102h-194v-141h137v-103zM1735 705l-367 -359h367v359z" />
<glyph unicode="&#xbf;" horiz-adv-x="1087" d="M721.021 -89.9316h195.988v-247.984q-85.9951 -46.9971 -179.989 -67.4961t-204.987 -20.499q-241.985 0 -354.479 109.493t-112.493 304.481q0 89.9951 31.998 167.49t92.4941 138.991q60.4971 61.4961 146.491 103.494q85.9951 41.9971 195.988 55.9961v204.987 h130.992v-290.981q-91.9941 -17.999 -160.49 -46.498q-68.4961 -28.498 -114.493 -73.4951t-69.4961 -109.493q-23.498 -64.4961 -23.498 -155.49q0 -54.9971 13.999 -108.994q13.999 -53.9961 44.9971 -96.9941q30.998 -42.9971 78.9951 -69.9951 q47.9971 -26.999 115.993 -26.999q71.9951 0 111.493 11.5q39.498 11.499 60.4961 27.498v190.988zM760.02 913.007q0 -62.9961 -42.998 -99.9932q-42.9971 -36.998 -114.992 -36.998q-71.9961 0 -116.993 36.998q-44.9971 36.9971 -44.9971 99.9932 q0 60.9971 44.9971 97.9941q44.9971 36.998 116.993 36.998q71.9951 0 114.992 -36.998q42.998 -36.9971 42.998 -97.9941z" />
<glyph unicode="&#xc0;" horiz-adv-x="1546" d="M502 0h-502v115h160l530 1319h217l486 -1319h153v-115h-585v115h182l-133 360h-545l-139 -360h176v-115zM512 590h463l-168 473l-51 217h-8l-60 -221zM887 1624l-27 -49l-524 147v82l252 68z" />
<glyph unicode="&#xc1;" horiz-adv-x="1546" d="M502 0h-502v115h160l530 1319h217l486 -1319h153v-115h-585v115h182l-133 360h-545l-139 -360h176v-115zM512 590h463l-168 473l-51 217h-8l-60 -221zM993 1872l252 -68v-82l-524 -147l-27 49z" />
<glyph unicode="&#xc2;" horiz-adv-x="1546" d="M502 0h-502v115h160l530 1319h217l486 -1319h153v-115h-585v115h182l-133 360h-545l-139 -360h176v-115zM512 590h463l-168 473l-51 217h-8l-60 -221zM500 1559l-33 40l291 273h63l289 -266l-37 -45l-291 114z" />
<glyph unicode="&#xc3;" horiz-adv-x="1546" d="M502 0h-502v115h160l530 1319h217l486 -1319h153v-115h-585v115h182l-133 360h-545l-139 -360h176v-115zM512 590h463l-168 473l-51 217h-8l-60 -221zM1155 1726q-74 -78 -134 -108.5t-120 -30.5q-43 0 -81 13.5t-75 28.5l-71 29q-35 13 -72 13q-29 0 -63.5 -13 t-71.5 -48l-45 73q88 86 155.5 117t127.5 31q43 0 79.5 -12.5t71.5 -27.5t68.5 -27.5t70.5 -12.5q29 0 63 10.5t68 38.5z" />
<glyph unicode="&#xc4;" horiz-adv-x="1546" d="M502 0h-502v115h160l530 1319h217l486 -1319h153v-115h-585v115h182l-133 360h-545l-139 -360h176v-115zM512 590h463l-168 473l-51 217h-8l-60 -221zM397 1630q0 59 38 89t95 30q59 0 98 -29.5t39 -89.5q0 -53 -39 -81.5t-98 -28.5q-57 0 -95 28.5t-38 81.5zM913 1630 q0 59 39 89t94 30q59 0 98 -29.5t39 -89.5q0 -53 -39 -81.5t-98 -28.5q-55 0 -94 28.5t-39 81.5z" />
<glyph unicode="&#xc5;" horiz-adv-x="1546" d="M502 0h-502v115h160l530 1319h217l486 -1319h153v-115h-585v115h182l-133 360h-545l-139 -360h176v-115zM512 590h463l-168 473l-51 217h-8l-60 -221zM531 1614q0 84 78 130t190 46q45 0 90 -10.5t81 -30.5t58.5 -52t22.5 -77q0 -41 -20.5 -71.5t-56.5 -53t-82 -34 t-95 -11.5q-119 0 -192.5 43t-73.5 121zM684 1614q0 -35 30 -56.5t71 -21.5q59 0 85.5 20.5t26.5 55.5q0 53 -30.5 72.5t-73.5 19.5q-55 0 -82 -25.5t-27 -64.5z" />
<glyph unicode="&#xc6;" horiz-adv-x="2103" d="M1931 1434v-336h-131v176l-41 45h-495v-531h346l30 31v86h132v-350h-132v86l-30 33h-346v-559h536l41 41v200h131v-356h-1118v115h180v403h-446l-264 -403h192v-115h-516v115h168l799 1204h-123v115h1087zM657 633h377v616h-4l-92 -190z" />
<glyph unicode="&#xc7;" horiz-adv-x="1429" d="M1165 377h131v-322q-63 -35 -167.5 -57.5t-206.5 -22.5h-15l-55 -106q139 -4 206.5 -38t67.5 -107q0 -61 -41 -100.5t-103 -61t-136 -29.5t-139 -8v67q45 2 82.5 7.5t66.5 15.5t45.5 27.5t16.5 46.5q0 55 -51.5 71.5t-153.5 20.5l82 201q-160 12 -286 62t-213 141 t-133 223.5t-46 308.5q0 201 61.5 341t166 229t241.5 130t288 41q74 0 133.5 -5t107.5 -15.5t89 -24.5t80 -31v-350h-131v215l-29 41q-23 10 -70.5 24.5t-154.5 14.5q-111 0 -207 -35t-166.5 -108.5t-111.5 -189t-41 -277.5q0 -293 148.5 -452t416.5 -159q74 0 124 11.5 t75 29.5l28 39v191z" />
<glyph unicode="&#xc8;" horiz-adv-x="1320" d="M1155 1434v-336h-131v176l-41 45h-502v-531h346l31 31v86h131v-350h-131v86l-31 33h-346v-559h537l41 41v200h131v-356h-1124v115h186v1204h-186v115h1089zM842 1624l-27 -49l-524 147v82l252 68z" />
<glyph unicode="&#xc9;" horiz-adv-x="1320" d="M1155 1434v-336h-131v176l-41 45h-502v-531h346l31 31v86h131v-350h-131v86l-31 33h-346v-559h537l41 41v200h131v-356h-1124v115h186v1204h-186v115h1089zM776 1872l252 -68v-82l-524 -147l-27 49z" />
<glyph unicode="&#xca;" horiz-adv-x="1320" d="M1155 1434v-336h-131v176l-41 45h-502v-531h346l31 31v86h131v-350h-131v86l-31 33h-346v-559h537l41 41v200h131v-356h-1124v115h186v1204h-186v115h1089zM371 1559l-33 40l291 273h63l289 -266l-37 -45l-291 114z" />
<glyph unicode="&#xcb;" horiz-adv-x="1320" d="M1155 1434v-336h-131v176l-41 45h-502v-531h346l31 31v86h131v-350h-131v86l-31 33h-346v-559h537l41 41v200h131v-356h-1124v115h186v1204h-186v115h1089zM277 1630q0 59 38 89t95 30q59 0 98 -29.5t39 -89.5q0 -53 -39 -81.5t-98 -28.5q-57 0 -95 28.5t-38 81.5z M793 1630q0 59 39 89t94 30q59 0 98 -29.5t39 -89.5q0 -53 -39 -81.5t-98 -28.5q-55 0 -94 28.5t-39 81.5z" />
<glyph unicode="&#xcc;" horiz-adv-x="815" d="M709 0h-603v115h187v1204h-187v115h603v-115h-187v-1204h187v-115zM635 1624l-27 -49l-524 147v82l252 68z" />
<glyph unicode="&#xcd;" horiz-adv-x="815" d="M709 0h-603v115h187v1204h-187v115h603v-115h-187v-1204h187v-115zM528 1872l252 -68v-82l-524 -147l-27 49z" />
<glyph unicode="&#xce;" horiz-adv-x="815" d="M709 0h-603v115h187v1204h-187v115h603v-115h-187v-1204h187v-115zM121 1559l-33 40l291 273h63l289 -266l-37 -45l-291 114z" />
<glyph unicode="&#xcf;" horiz-adv-x="815" d="M709 0h-603v115h187v1204h-187v115h603v-115h-187v-1204h187v-115zM17 1630q0 59 38 89t95 30q59 0 98 -29.5t39 -89.5q0 -53 -39 -81.5t-98 -28.5q-57 0 -95 28.5t-38 81.5zM533 1630q0 59 39 89t94 30q59 0 98 -29.5t39 -89.5q0 -53 -39 -81.5t-98 -28.5 q-55 0 -94 28.5t-39 81.5z" />
<glyph unicode="&#xd0;" horiz-adv-x="1601" d="M66 0v115h186v563h-205v110h205v531h-186v115h251q39 0 91.5 2t107.5 5l105.5 6t85.5 3q190 0 335.5 -48t243.5 -139.5t148.5 -224.5t50.5 -303q0 -164 -47 -301t-147.5 -238.5t-257 -157.5t-374.5 -56q-33 0 -75.5 3t-90.5 6l-98 6q-49 3 -92 3h-237zM676 1335 q-57 0 -110.5 -2t-84.5 -8v-537h367v-110h-367v-574q12 -2 41 -3t62.5 -2l64.5 -2t43 -1q154 0 256.5 52.5t165 139.5t89 202.5t26.5 244.5q0 100 -25.5 207t-89 195t-170 143t-268.5 55z" />
<glyph unicode="&#xd1;" horiz-adv-x="1679" d="M1110 1434h504v-115h-187v-1344h-133l-833 1125l-90 157h-9l21 -159v-983h186v-115h-503v115h186v1204h-186v115h409l717 -965l106 -176h11l-13 176v850h-186v115zM1214 1726q-74 -78 -134 -108.5t-120 -30.5q-43 0 -81 13.5t-75 28.5l-71 29q-35 13 -72 13 q-29 0 -63.5 -13t-71.5 -48l-45 73q88 86 155.5 117t127.5 31q43 0 79.5 -12.5t71.5 -27.5t68.5 -27.5t70.5 -12.5q29 0 63 10.5t68 38.5z" />
<glyph unicode="&#xd2;" horiz-adv-x="1699" d="M117 717q0 160 49 296t142 235.5t229.5 154.5t310.5 55t311 -55t231.5 -154.5t143.5 -235.5t49 -296t-49 -296t-143.5 -235.5t-231.5 -155t-311 -55.5t-310.5 55.5t-229.5 155t-142 235.5t-49 296zM373 717q0 -131 29.5 -246t91 -199t154.5 -133t220 -49q117 0 203 49 t142.5 133t85 199t28.5 246t-29.5 245.5t-91 198.5t-155 133t-222.5 49q-123 0 -210 -49t-142 -133t-79.5 -198.5t-24.5 -245.5zM1000 1624l-27 -49l-524 147v82l252 68z" />
<glyph unicode="&#xd3;" horiz-adv-x="1699" d="M117 717q0 160 49 296t142 235.5t229.5 154.5t310.5 55t311 -55t231.5 -154.5t143.5 -235.5t49 -296t-49 -296t-143.5 -235.5t-231.5 -155t-311 -55.5t-310.5 55.5t-229.5 155t-142 235.5t-49 296zM373 717q0 -131 29.5 -246t91 -199t154.5 -133t220 -49q117 0 203 49 t142.5 133t85 199t28.5 246t-29.5 245.5t-91 198.5t-155 133t-222.5 49q-123 0 -210 -49t-142 -133t-79.5 -198.5t-24.5 -245.5zM946 1872l252 -68v-82l-524 -147l-27 49z" />
<glyph unicode="&#xd4;" horiz-adv-x="1699" d="M117 717q0 160 49 296t142 235.5t229.5 154.5t310.5 55t311 -55t231.5 -154.5t143.5 -235.5t49 -296t-49 -296t-143.5 -235.5t-231.5 -155t-311 -55.5t-310.5 55.5t-229.5 155t-142 235.5t-49 296zM373 717q0 -131 29.5 -246t91 -199t154.5 -133t220 -49q117 0 203 49 t142.5 133t85 199t28.5 246t-29.5 245.5t-91 198.5t-155 133t-222.5 49q-123 0 -210 -49t-142 -133t-79.5 -198.5t-24.5 -245.5zM559 1559l-33 40l291 273h63l289 -266l-37 -45l-291 114z" />
<glyph unicode="&#xd5;" horiz-adv-x="1699" d="M117 717q0 160 49 296t142 235.5t229.5 154.5t310.5 55t311 -55t231.5 -154.5t143.5 -235.5t49 -296t-49 -296t-143.5 -235.5t-231.5 -155t-311 -55.5t-310.5 55.5t-229.5 155t-142 235.5t-49 296zM373 717q0 -131 29.5 -246t91 -199t154.5 -133t220 -49q117 0 203 49 t142.5 133t85 199t28.5 246t-29.5 245.5t-91 198.5t-155 133t-222.5 49q-123 0 -210 -49t-142 -133t-79.5 -198.5t-24.5 -245.5zM1214 1726q-74 -78 -134 -108.5t-120 -30.5q-43 0 -81 13.5t-75 28.5l-71 29q-35 13 -72 13q-29 0 -63.5 -13t-71.5 -48l-45 73 q88 86 155.5 117t127.5 31q43 0 79.5 -12.5t71.5 -27.5t68.5 -27.5t70.5 -12.5q29 0 63 10.5t68 38.5z" />
<glyph unicode="&#xd6;" horiz-adv-x="1699" d="M117 717q0 160 49 296t142 235.5t229.5 154.5t310.5 55t311 -55t231.5 -154.5t143.5 -235.5t49 -296t-49 -296t-143.5 -235.5t-231.5 -155t-311 -55.5t-310.5 55.5t-229.5 155t-142 235.5t-49 296zM373 717q0 -131 29.5 -246t91 -199t154.5 -133t220 -49q117 0 203 49 t142.5 133t85 199t28.5 246t-29.5 245.5t-91 198.5t-155 133t-222.5 49q-123 0 -210 -49t-142 -133t-79.5 -198.5t-24.5 -245.5zM457 1630q0 59 38 89t95 30q59 0 98 -29.5t39 -89.5q0 -53 -39 -81.5t-98 -28.5q-57 0 -95 28.5t-38 81.5zM973 1630q0 59 39 89t94 30 q59 0 98 -29.5t39 -89.5q0 -53 -39 -81.5t-98 -28.5q-55 0 -94 28.5t-39 81.5z" />
<glyph unicode="&#xd7;" d="M201 420l319 285l-315 282l90 80l317 -283l320 287l90 -80l-324 -284l328 -291l-90 -82l-326 293l-319 -287z" />
<glyph unicode="&#xd8;" horiz-adv-x="1699" d="M117 717q0 160 49 296t142 235.5t229.5 154.5t310.5 55q111 0 206 -23.5t175 -64.5l106 152l107 -72l-107 -152q121 -100 184.5 -249.5t63.5 -331.5q0 -160 -49 -296t-143.5 -235.5t-231.5 -155t-311 -55.5q-219 0 -383 88l-127 -180l-102 74l124 178q-119 100 -181 249 t-62 333zM1327 717q0 123 -25.5 230.5t-78.5 191.5l-664 -942q59 -53 135 -82t174 -29q117 0 203 49t142.5 135t85 201t28.5 246zM373 717q0 -123 24.5 -229.5t77.5 -190.5l662 942q-59 51 -135 80t-173 29q-123 0 -210 -49.5t-142 -135.5t-79.5 -200.5t-24.5 -245.5z" />
<glyph unicode="&#xd9;" horiz-adv-x="1560" d="M1350 489q0 -131 -39 -226t-110 -157.5t-171 -93t-223 -30.5q-291 0 -443.5 115.5t-152.5 357.5v864h-186v115h581v-115h-166v-821q0 -106 27 -179t77 -117t123.5 -63.5t168.5 -19.5q180 0 281.5 90t101.5 295v815h-166v115h483v-115h-186v-830zM918 1624l-27 -49 l-524 147v82l252 68z" />
<glyph unicode="&#xda;" horiz-adv-x="1560" d="M1350 489q0 -131 -39 -226t-110 -157.5t-171 -93t-223 -30.5q-291 0 -443.5 115.5t-152.5 357.5v864h-186v115h581v-115h-166v-821q0 -106 27 -179t77 -117t123.5 -63.5t168.5 -19.5q180 0 281.5 90t101.5 295v815h-166v115h483v-115h-186v-830zM1055 1872l252 -68v-82 l-524 -147l-27 49z" />
<glyph unicode="&#xdb;" horiz-adv-x="1560" d="M1350 489q0 -131 -39 -226t-110 -157.5t-171 -93t-223 -30.5q-291 0 -443.5 115.5t-152.5 357.5v864h-186v115h581v-115h-166v-821q0 -106 27 -179t77 -117t123.5 -63.5t168.5 -19.5q180 0 281.5 90t101.5 295v815h-166v115h483v-115h-186v-830zM537 1559l-33 40l291 273 h63l289 -266l-37 -45l-291 114z" />
<glyph unicode="&#xdc;" horiz-adv-x="1560" d="M1350 489q0 -131 -39 -226t-110 -157.5t-171 -93t-223 -30.5q-291 0 -443.5 115.5t-152.5 357.5v864h-186v115h581v-115h-166v-821q0 -106 27 -179t77 -117t123.5 -63.5t168.5 -19.5q180 0 281.5 90t101.5 295v815h-166v115h483v-115h-186v-830zM436 1630q0 59 38 89 t95 30q59 0 98 -29.5t39 -89.5q0 -53 -39 -81.5t-98 -28.5q-57 0 -95 28.5t-38 81.5zM952 1630q0 59 39 89t94 30q59 0 98 -29.5t39 -89.5q0 -53 -39 -81.5t-98 -28.5q-55 0 -94 28.5t-39 81.5z" />
<glyph unicode="&#xdd;" horiz-adv-x="1488" d="M979 1434h510v-115h-174l-436 -711v-493h186v-115h-602v115h186v491l-463 713h-186v115h618v-115h-172l371 -596l350 596h-188v115zM1032 1872l252 -68v-82l-524 -147l-27 49z" />
<glyph unicode="&#xde;" horiz-adv-x="1363" d="M66 1319v115h598v-115h-183v-96q51 4 103.5 6t103.5 2q113 0 220.5 -21.5t191.5 -70.5t135 -132t51 -206q0 -117 -53 -200t-140 -137t-201 -80t-235 -26h-36q-25 0 -52 1l-51 2q-25 1 -37 4v-250h224v-115h-639v115h186v1204h-186zM637 1116q-55 0 -91 -3t-65 -9v-621 q10 -4 32 -5t46.5 -3t46.5 -2h35q80 0 150.5 18.5t124 58.5t84 101.5t30.5 149.5q0 160 -105.5 237.5t-287.5 77.5z" />
<glyph unicode="&#xdf;" horiz-adv-x="1472" d="M997 1206q-2 96 -69.5 157.5t-163.5 61.5q-70 0 -126 -13t-96 -52t-61.5 -107.5t-21.5 -181.5v-1071h-367v102h152v871h-172v102h172v33q0 123 51 205t127 131t164 70.5t164 21.5q125 0 212 -29.5t141 -79t78.5 -115t26.5 -138.5q-172 -23 -270 -77.5t-98 -152.5 q0 -66 41 -115t101 -91t132 -83t132.5 -91t101.5 -114.5t41 -152.5q0 -152 -113 -234.5t-318 -82.5q-49 0 -98 9t-93 23.5t-80 34t-58 37.5v188h147v-118q25 -23 76 -43.5t100 -20.5q111 0 168.5 43t57.5 131q0 57 -41 102.5t-101.5 86.5t-132.5 80.5t-132 88t-101 110 t-41 142.5q0 100 83.5 188.5t284.5 143.5z" />
<glyph unicode="&#xe0;" horiz-adv-x="1165" d="M950 285q0 -47 2 -95.5t6 -87.5h136v-102h-322l-20 195h-11q-10 -41 -37.5 -80t-69.5 -70t-99.5 -49.5t-126.5 -18.5q-70 0 -128.5 20.5t-101.5 57.5t-66.5 89.5t-23.5 117.5q0 100 42 166t124 103.5t205 54t286 18.5q4 33 5 63v58q0 127 -43 193.5t-154 66.5 q-41 0 -88 -4t-86 -25v-188h-184v227q74 39 174 70t235 31q117 0 187.5 -30t108.5 -78t49.5 -108.5t11.5 -119.5q0 -129 -5.5 -246.5t-5.5 -228.5zM502 115q49 0 88 15t68.5 39t51 52.5t35.5 54.5v244q-133 0 -216 -17.5t-130 -46t-64.5 -68.5t-17.5 -85q0 -92 49.5 -140 t135.5 -48zM746 1260l-58 -48l-401 240v84h258z" />
<glyph unicode="&#xe1;" horiz-adv-x="1165" d="M950 285q0 -47 2 -95.5t6 -87.5h136v-102h-322l-20 195h-11q-10 -41 -37.5 -80t-69.5 -70t-99.5 -49.5t-126.5 -18.5q-70 0 -128.5 20.5t-101.5 57.5t-66.5 89.5t-23.5 117.5q0 100 42 166t124 103.5t205 54t286 18.5q4 33 5 63v58q0 127 -43 193.5t-154 66.5 q-41 0 -88 -4t-86 -25v-188h-184v227q74 39 174 70t235 31q117 0 187.5 -30t108.5 -78t49.5 -108.5t11.5 -119.5q0 -129 -5.5 -246.5t-5.5 -228.5zM502 115q49 0 88 15t68.5 39t51 52.5t35.5 54.5v244q-133 0 -216 -17.5t-130 -46t-64.5 -68.5t-17.5 -85q0 -92 49.5 -140 t135.5 -48zM660 1536h258v-84l-402 -240l-57 48z" />
<glyph unicode="&#xe2;" horiz-adv-x="1165" d="M950 285q0 -47 2 -95.5t6 -87.5h136v-102h-322l-20 195h-11q-10 -41 -37.5 -80t-69.5 -70t-99.5 -49.5t-126.5 -18.5q-70 0 -128.5 20.5t-101.5 57.5t-66.5 89.5t-23.5 117.5q0 100 42 166t124 103.5t205 54t286 18.5q4 33 5 63v58q0 127 -43 193.5t-154 66.5 q-41 0 -88 -4t-86 -25v-188h-184v227q74 39 174 70t235 31q117 0 187.5 -30t108.5 -78t49.5 -108.5t11.5 -119.5q0 -129 -5.5 -246.5t-5.5 -228.5zM502 115q49 0 88 15t68.5 39t51 52.5t35.5 54.5v244q-133 0 -216 -17.5t-130 -46t-64.5 -68.5t-17.5 -85q0 -92 49.5 -140 t135.5 -48zM364 1268l-65 35l256 401h59l258 -399l-65 -37l-232 229z" />
<glyph unicode="&#xe3;" horiz-adv-x="1165" d="M950 285q0 -47 2 -95.5t6 -87.5h136v-102h-322l-20 195h-11q-10 -41 -37.5 -80t-69.5 -70t-99.5 -49.5t-126.5 -18.5q-70 0 -128.5 20.5t-101.5 57.5t-66.5 89.5t-23.5 117.5q0 100 42 166t124 103.5t205 54t286 18.5q4 33 5 63v58q0 127 -43 193.5t-154 66.5 q-41 0 -88 -4t-86 -25v-188h-184v227q74 39 174 70t235 31q117 0 187.5 -30t108.5 -78t49.5 -108.5t11.5 -119.5q0 -129 -5.5 -246.5t-5.5 -228.5zM502 115q49 0 88 15t68.5 39t51 52.5t35.5 54.5v244q-133 0 -216 -17.5t-130 -46t-64.5 -68.5t-17.5 -85q0 -92 49.5 -140 t135.5 -48zM913 1444q-74 -70 -136 -95.5t-113 -25.5q-41 0 -78 11.5t-72 24.5l-67.5 24.5t-67.5 11.5q-29 0 -60.5 -11.5t-68.5 -42.5l-45 66q86 74 152.5 100.5t119.5 26.5q41 0 77 -11.5t69 -23.5l65 -23q33 -11 68 -12q29 0 59.5 9.5t65.5 33.5z" />
<glyph unicode="&#xe4;" horiz-adv-x="1165" d="M950 285q0 -47 2 -95.5t6 -87.5h136v-102h-322l-20 195h-11q-10 -41 -37.5 -80t-69.5 -70t-99.5 -49.5t-126.5 -18.5q-70 0 -128.5 20.5t-101.5 57.5t-66.5 89.5t-23.5 117.5q0 100 42 166t124 103.5t205 54t286 18.5q4 33 5 63v58q0 127 -43 193.5t-154 66.5 q-41 0 -88 -4t-86 -25v-188h-184v227q74 39 174 70t235 31q117 0 187.5 -30t108.5 -78t49.5 -108.5t11.5 -119.5q0 -129 -5.5 -246.5t-5.5 -228.5zM502 115q49 0 88 15t68.5 39t51 52.5t35.5 54.5v244q-133 0 -216 -17.5t-130 -46t-64.5 -68.5t-17.5 -85q0 -92 49.5 -140 t135.5 -48zM174 1409q0 59 36 95t95 36t95 -36t36 -95q0 -55 -36 -91t-95 -36t-95 36t-36 91zM678 1409q0 59 37.5 95t95.5 36q59 0 94 -36t35 -95q0 -55 -35 -91t-94 -36q-57 0 -95 36t-38 91z" />
<glyph unicode="&#xe5;" horiz-adv-x="1165" d="M950 285q0 -47 2 -95.5t6 -87.5h136v-102h-322l-20 195h-11q-10 -41 -37.5 -80t-69.5 -70t-99.5 -49.5t-126.5 -18.5q-70 0 -128.5 20.5t-101.5 57.5t-66.5 89.5t-23.5 117.5q0 100 42 166t124 103.5t205 54t286 18.5q4 33 5 63v58q0 127 -43 193.5t-154 66.5 q-41 0 -88 -4t-86 -25v-188h-184v227q74 39 174 70t235 31q117 0 187.5 -30t108.5 -78t49.5 -108.5t11.5 -119.5q0 -129 -5.5 -246.5t-5.5 -228.5zM502 115q49 0 88 15t68.5 39t51 52.5t35.5 54.5v244q-133 0 -216 -17.5t-130 -46t-64.5 -68.5t-17.5 -85q0 -92 49.5 -140 t135.5 -48zM332 1468q0 88 65.5 148.5t165.5 60.5q92 0 154.5 -54t62.5 -148q0 -43 -18 -80t-48 -63.5t-70 -42t-83 -15.5q-104 0 -166.5 52t-62.5 142zM455 1473q0 -53 30.5 -81t67.5 -28q45 0 75 24.5t30 77.5q0 59 -29 90t-74 31q-53 0 -76.5 -30.5t-23.5 -83.5z" />
<glyph unicode="&#xe6;" horiz-adv-x="1792" d="M502 117q49 0 88 15t68.5 38t50 51.5t34.5 54.5v244q-131 0 -214 -17.5t-130 -46t-64.5 -68.5t-17.5 -85q0 -92 49.5 -139t135.5 -47zM801 215q-16 -27 -43 -66.5t-70 -77.5t-105.5 -64.5t-148.5 -26.5q-160 0 -253 76.5t-93 205.5q0 100 41 166t124 103.5t205 54 t285 18.5q6 63 7 121q0 127 -43 193.5t-154 66.5q-41 0 -88 -4t-86 -25v-188h-184v227q74 39 174 70t235 31q123 0 193.5 -32t107.5 -83q57 61 149.5 88t192.5 27q82 0 161 -20.5t140.5 -67.5t99.5 -125t38 -193q0 -35 -4.5 -73.5t-12.5 -81.5h-711q0 -90 24 -164t71 -127.5 t118.5 -83t169.5 -29.5q80 0 149 26.5t109 61.5l56 -78q-53 -76 -150.5 -120t-226.5 -44q-174 0 -292.5 62.5t-184.5 175.5zM1239 999q-63 0 -111.5 -18t-83 -61t-55 -114t-26.5 -175h493q2 18 3 37.5t1 36.5q0 135 -54 214.5t-167 79.5z" />
<glyph unicode="&#xe7;" horiz-adv-x="1071" d="M987 131q-43 -59 -135 -106.5t-215 -47.5h-8l-47 -102q129 -4 188 -34.5t59 -100.5q0 -66 -35.5 -104.5t-91 -60t-123 -28t-130.5 -6.5v66q43 2 78.5 6t60 14.5t38 28.5t13.5 51q0 53 -47 65.5t-141 20.5l77 191q-221 29 -328.5 176t-107.5 377q0 272 144.5 415.5 t392.5 143.5q113 0 186.5 -14.5t134.5 -45.5v-266h-184v197q-31 18 -123 18q-78 0 -137.5 -22.5t-100 -73.5t-61 -137t-20.5 -211q0 -82 22.5 -157t67.5 -131t113.5 -89t160.5 -33q49 0 87 7t66.5 18.5t51 26t43.5 30.5z" />
<glyph unicode="&#xe8;" horiz-adv-x="1159" d="M1022 141q-53 -76 -150.5 -120t-226.5 -44q-135 0 -238.5 40t-173 113t-105.5 176.5t-36 230.5q0 274 137.5 416.5t384.5 142.5q82 0 161 -20.5t140.5 -67.5t99.5 -125t38 -193q0 -35 -4.5 -73.5t-12.5 -81.5h-712q0 -90 23.5 -164t71.5 -127.5t119.5 -83t170.5 -29.5 q80 0 148.5 26.5t109.5 61.5zM606 999q-63 0 -111.5 -18t-83 -61t-55 -114t-26.5 -175h493q2 18 3 37.5t1 36.5q0 135 -54 214.5t-167 79.5zM764 1260l-58 -48l-401 240v84h258z" />
<glyph unicode="&#xe9;" horiz-adv-x="1159" d="M1022 141q-53 -76 -150.5 -120t-226.5 -44q-135 0 -238.5 40t-173 113t-105.5 176.5t-36 230.5q0 274 137.5 416.5t384.5 142.5q82 0 161 -20.5t140.5 -67.5t99.5 -125t38 -193q0 -35 -4.5 -73.5t-12.5 -81.5h-712q0 -90 23.5 -164t71.5 -127.5t119.5 -83t170.5 -29.5 q80 0 148.5 26.5t109.5 61.5zM606 999q-63 0 -111.5 -18t-83 -61t-55 -114t-26.5 -175h493q2 18 3 37.5t1 36.5q0 135 -54 214.5t-167 79.5zM695 1536h258v-84l-402 -240l-57 48z" />
<glyph unicode="&#xea;" horiz-adv-x="1159" d="M1022 141q-53 -76 -150.5 -120t-226.5 -44q-135 0 -238.5 40t-173 113t-105.5 176.5t-36 230.5q0 274 137.5 416.5t384.5 142.5q82 0 161 -20.5t140.5 -67.5t99.5 -125t38 -193q0 -35 -4.5 -73.5t-12.5 -81.5h-712q0 -90 23.5 -164t71.5 -127.5t119.5 -83t170.5 -29.5 q80 0 148.5 26.5t109.5 61.5zM606 999q-63 0 -111.5 -18t-83 -61t-55 -114t-26.5 -175h493q2 18 3 37.5t1 36.5q0 135 -54 214.5t-167 79.5zM383 1268l-65 35l256 401h59l258 -399l-65 -37l-232 229z" />
<glyph unicode="&#xeb;" horiz-adv-x="1159" d="M1022 141q-53 -76 -150.5 -120t-226.5 -44q-135 0 -238.5 40t-173 113t-105.5 176.5t-36 230.5q0 274 137.5 416.5t384.5 142.5q82 0 161 -20.5t140.5 -67.5t99.5 -125t38 -193q0 -35 -4.5 -73.5t-12.5 -81.5h-712q0 -90 23.5 -164t71.5 -127.5t119.5 -83t170.5 -29.5 q80 0 148.5 26.5t109.5 61.5zM606 999q-63 0 -111.5 -18t-83 -61t-55 -114t-26.5 -175h493q2 18 3 37.5t1 36.5q0 135 -54 214.5t-167 79.5zM211 1409q0 59 36 95t95 36t95 -36t36 -95q0 -55 -36 -91t-95 -36t-95 36t-36 91zM715 1409q0 59 37.5 95t95.5 36q59 0 94 -36 t35 -95q0 -55 -35 -91t-94 -36q-57 0 -95 36t-38 91z" />
<glyph unicode="&#xec;" horiz-adv-x="694" d="M610 0h-518v102h152v871h-152v102h367v-973h151v-102zM482 1260l-58 -48l-401 240v84h258z" />
<glyph unicode="&#xed;" horiz-adv-x="694" d="M610 0h-518v102h152v871h-152v102h367v-973h151v-102zM412 1536h258v-84l-402 -240l-57 48z" />
<glyph unicode="&#xee;" horiz-adv-x="694" d="M610 0h-518v102h152v871h-152v102h367v-973h151v-102zM127 1268l-65 35l256 401h59l258 -399l-65 -37l-232 229z" />
<glyph unicode="&#xef;" horiz-adv-x="694" d="M610 0h-518v102h152v871h-152v102h367v-973h151v-102zM-35 1409q0 59 36 95t95 36t95 -36t36 -95q0 -55 -36 -91t-95 -36t-95 36t-36 91zM469 1409q0 59 37.5 95t95.5 36q59 0 94 -36t35 -95q0 -55 -35 -91t-94 -36q-57 0 -95 36t-38 91z" />
<glyph unicode="&#xf0;" horiz-adv-x="1234" d="M477 1229l182 108q-92 80 -253 133l45 91q92 -16 179 -60.5t146 -87.5l207 131l57 -84l-186 -119q57 -59 110.5 -133.5t93.5 -166t64.5 -197t24.5 -223.5q0 -139 -34 -258t-101.5 -205t-169 -135.5t-238.5 -49.5q-127 0 -227.5 41t-170 113t-107.5 172t-38 221 q0 137 44.5 237.5t115 167t159.5 98.5t181 32q123 0 203 -22.5t131 -53.5q-29 80 -65.5 150.5t-102.5 130.5l-188 -115zM293 520q0 -88 21.5 -168t62.5 -141t102.5 -98t138.5 -37q150 0 232 138t82 376q0 113 -9.5 180.5t-17.5 95.5q-39 29 -114.5 51.5t-180.5 22.5 q-70 0 -128 -24.5t-100 -76t-65.5 -131t-23.5 -188.5z" />
<glyph unicode="&#xf1;" horiz-adv-x="1372" d="M1333 0h-502v102h136v514q0 162 -49.5 252t-180.5 90q-57 0 -105 -18t-86 -49t-65.5 -72t-42.5 -86v-631h135v-102h-501v102h151v871h-151v102h366v-213h2q47 98 138.5 166t220.5 68q92 0 163.5 -19.5t119.5 -71t74 -137.5t26 -219v-547h151v-102zM1042 1444 q-74 -70 -136 -95.5t-113 -25.5q-41 0 -78 11.5t-72 24.5l-67.5 24.5t-67.5 11.5q-29 0 -60.5 -11.5t-68.5 -42.5l-45 66q86 74 152.5 100.5t119.5 26.5q41 0 77 -11.5t69 -23.5l65 -23q33 -11 68 -12q29 0 59.5 9.5t65.5 33.5z" />
<glyph unicode="&#xf2;" horiz-adv-x="1273" d="M92 537q0 135 39 239.5t109.5 175t172 107.5t224.5 37q143 0 246.5 -40t169 -113t97.5 -176t32 -230q0 -135 -38 -238.5t-108.5 -174.5t-172 -107.5t-226.5 -36.5q-139 0 -241.5 39.5t-170 112.5t-100.5 175.5t-33 229.5zM324 537q0 -98 18 -182.5t60 -146t109 -97 t163 -35.5q121 0 198.5 110.5t77.5 350.5q0 98 -18.5 183t-58 147.5t-102 97t-153.5 34.5q-135 0 -214.5 -110t-79.5 -352zM801 1260l-58 -48l-401 240v84h258z" />
<glyph unicode="&#xf3;" horiz-adv-x="1273" d="M92 537q0 135 39 239.5t109.5 175t172 107.5t224.5 37q143 0 246.5 -40t169 -113t97.5 -176t32 -230q0 -135 -38 -238.5t-108.5 -174.5t-172 -107.5t-226.5 -36.5q-139 0 -241.5 39.5t-170 112.5t-100.5 175.5t-33 229.5zM324 537q0 -98 18 -182.5t60 -146t109 -97 t163 -35.5q121 0 198.5 110.5t77.5 350.5q0 98 -18.5 183t-58 147.5t-102 97t-153.5 34.5q-135 0 -214.5 -110t-79.5 -352zM715 1536h258v-84l-402 -240l-57 48z" />
<glyph unicode="&#xf4;" horiz-adv-x="1273" d="M92 537q0 135 39 239.5t109.5 175t172 107.5t224.5 37q143 0 246.5 -40t169 -113t97.5 -176t32 -230q0 -135 -38 -238.5t-108.5 -174.5t-172 -107.5t-226.5 -36.5q-139 0 -241.5 39.5t-170 112.5t-100.5 175.5t-33 229.5zM324 537q0 -98 18 -182.5t60 -146t109 -97 t163 -35.5q121 0 198.5 110.5t77.5 350.5q0 98 -18.5 183t-58 147.5t-102 97t-153.5 34.5q-135 0 -214.5 -110t-79.5 -352zM415 1268l-65 35l256 401h59l258 -399l-65 -37l-232 229z" />
<glyph unicode="&#xf5;" horiz-adv-x="1273" d="M92 537q0 135 39 239.5t109.5 175t172 107.5t224.5 37q143 0 246.5 -40t169 -113t97.5 -176t32 -230q0 -135 -38 -238.5t-108.5 -174.5t-172 -107.5t-226.5 -36.5q-139 0 -241.5 39.5t-170 112.5t-100.5 175.5t-33 229.5zM324 537q0 -98 18 -182.5t60 -146t109 -97 t163 -35.5q121 0 198.5 110.5t77.5 350.5q0 98 -18.5 183t-58 147.5t-102 97t-153.5 34.5q-135 0 -214.5 -110t-79.5 -352zM991 1444q-74 -70 -136 -95.5t-113 -25.5q-41 0 -78 11.5t-72 24.5l-67.5 24.5t-67.5 11.5q-29 0 -60.5 -11.5t-68.5 -42.5l-45 66 q86 74 152.5 100.5t119.5 26.5q41 0 77 -11.5t69 -23.5l65 -23q33 -11 68 -12q29 0 59.5 9.5t65.5 33.5z" />
<glyph unicode="&#xf6;" horiz-adv-x="1273" d="M92 537q0 135 39 239.5t109.5 175t172 107.5t224.5 37q143 0 246.5 -40t169 -113t97.5 -176t32 -230q0 -135 -38 -238.5t-108.5 -174.5t-172 -107.5t-226.5 -36.5q-139 0 -241.5 39.5t-170 112.5t-100.5 175.5t-33 229.5zM324 537q0 -98 18 -182.5t60 -146t109 -97 t163 -35.5q121 0 198.5 110.5t77.5 350.5q0 98 -18.5 183t-58 147.5t-102 97t-153.5 34.5q-135 0 -214.5 -110t-79.5 -352zM254 1409q0 59 36 95t95 36t95 -36t36 -95q0 -55 -36 -91t-95 -36t-95 36t-36 91zM758 1409q0 59 37.5 95t95.5 36q59 0 94 -36t35 -95 q0 -55 -35 -91t-94 -36q-57 0 -95 36t-38 91z" />
<glyph unicode="&#xf7;" d="M96 764h1034v-111h-1034v111zM455 1098q0 63 43 100t114 37q72 0 117 -37t45 -100q0 -61 -45 -98t-117 -37t-114.5 37t-42.5 98zM455 317q0 63 43 100.5t114 37.5q72 0 117 -37t45 -101q0 -61 -45 -98t-117 -37t-114.5 37t-42.5 98z" />
<glyph unicode="&#xf8;" horiz-adv-x="1273" d="M266 88q-88 76 -131 190.5t-43 258.5q0 135 39 239.5t109.5 175t172 107.5t224.5 37q88 0 161.5 -13.5t131.5 -44.5l104 152l92 -60l-108 -149q86 -78 125 -189.5t39 -254.5q0 -135 -38 -238.5t-108.5 -174.5t-172 -107.5t-226.5 -36.5q-82 0 -152.5 12t-128.5 41 l-114 -164l-88 57zM324 537q0 -82 13 -154t44 -131l459 659q-41 47 -95.5 67.5t-126.5 20.5q-135 0 -214.5 -110t-79.5 -352zM950 537q0 78 -12 147.5t-39 126.5l-457 -655q41 -43 98.5 -61.5t135.5 -18.5q121 0 197.5 110.5t76.5 350.5z" />
<glyph unicode="&#xf9;" horiz-adv-x="1325" d="M178 426q0 135 6 276.5t6 270.5h-151v102h364q-4 -160 -7 -306t-3 -304q0 -84 9.5 -148.5t35 -109.5t70.5 -67.5t115 -22.5q102 0 171.5 65.5t106.5 175.5v615h-149v102h364v-973h152v-102h-342l-15 233h-10q-10 -43 -40 -88t-75 -81.5t-104 -60t-129 -23.5 q-92 0 -161.5 19t-117 70.5t-72 137.5t-24.5 219zM826 1260l-58 -48l-401 240v84h258z" />
<glyph unicode="&#xfa;" horiz-adv-x="1325" d="M178 426q0 135 6 276.5t6 270.5h-151v102h364q-4 -160 -7 -306t-3 -304q0 -84 9.5 -148.5t35 -109.5t70.5 -67.5t115 -22.5q102 0 171.5 65.5t106.5 175.5v615h-149v102h364v-973h152v-102h-342l-15 233h-10q-10 -43 -40 -88t-75 -81.5t-104 -60t-129 -23.5 q-92 0 -161.5 19t-117 70.5t-72 137.5t-24.5 219zM734 1536h258v-84l-402 -240l-57 48z" />
<glyph unicode="&#xfb;" horiz-adv-x="1325" d="M178 426q0 135 6 276.5t6 270.5h-151v102h364q-4 -160 -7 -306t-3 -304q0 -84 9.5 -148.5t35 -109.5t70.5 -67.5t115 -22.5q102 0 171.5 65.5t106.5 175.5v615h-149v102h364v-973h152v-102h-342l-15 233h-10q-10 -43 -40 -88t-75 -81.5t-104 -60t-129 -23.5 q-92 0 -161.5 19t-117 70.5t-72 137.5t-24.5 219zM440 1268l-65 35l256 401h59l258 -399l-65 -37l-232 229z" />
<glyph unicode="&#xfc;" horiz-adv-x="1325" d="M178 426q0 135 6 276.5t6 270.5h-151v102h364q-4 -160 -7 -306t-3 -304q0 -84 9.5 -148.5t35 -109.5t70.5 -67.5t115 -22.5q102 0 171.5 65.5t106.5 175.5v615h-149v102h364v-973h152v-102h-342l-15 233h-10q-10 -43 -40 -88t-75 -81.5t-104 -60t-129 -23.5 q-92 0 -161.5 19t-117 70.5t-72 137.5t-24.5 219zM275 1409q0 59 36 95t95 36t95 -36t36 -95q0 -55 -36 -91t-95 -36t-95 36t-36 91zM779 1409q0 59 37.5 95t95.5 36q59 0 94 -36t35 -95q0 -55 -35 -91t-94 -36q-57 0 -95 36t-38 91z" />
<glyph unicode="&#xfd;" horiz-adv-x="1163" d="M96 973h-121v102h529v-102h-172l278 -680l41 -156h11l38 158l220 678h-125v102h393v-102h-131l-336 -973q-29 -84 -62.5 -154.5t-65.5 -125t-61.5 -88t-50.5 -42.5h-207v185h209q14 16 26.5 32.5t25 41t26.5 60.5t33 91h-76zM680 1536h258v-84l-402 -240l-57 48z" />
<glyph unicode="&#xfe;" horiz-adv-x="1302" d="M588 -410h-518v103h151v1741h-151v102h366v-676h2q45 109 128 172.5t218 63.5q203 0 314.5 -125t111.5 -410q0 -135 -37.5 -243.5t-108.5 -184.5t-170 -116t-222 -40q-41 0 -73 2.5t-58.5 6.5t-52 12t-52.5 18v-323h152v-103zM705 958q-111 0 -175.5 -62t-93.5 -177v-600 q41 -27 91.5 -36t134.5 -9q76 0 135 35.5t100 100t62.5 154t21.5 197.5q0 88 -14.5 161t-46 125t-84.5 81.5t-131 29.5z" />
<glyph unicode="&#xff;" horiz-adv-x="1163" d="M96 973h-121v102h529v-102h-172l278 -680l41 -156h11l38 158l220 678h-125v102h393v-102h-131l-336 -973q-29 -84 -62.5 -154.5t-65.5 -125t-61.5 -88t-50.5 -42.5h-207v185h209q14 16 26.5 32.5t25 41t26.5 60.5t33 91h-76zM221 1409q0 59 36 95t95 36t95 -36t36 -95 q0 -55 -36 -91t-95 -36t-95 36t-36 91zM725 1409q0 59 37.5 95t95.5 36q59 0 94 -36t35 -95q0 -55 -35 -91t-94 -36q-57 0 -95 36t-38 91z" />
<glyph unicode="&#x100;" horiz-adv-x="1546" d="M502 0h-502v115h160l530 1319h217l486 -1319h153v-115h-585v115h182l-133 360h-545l-139 -360h176v-115zM512 590h463l-168 473l-51 217h-8l-60 -221zM438 1612v131h696v-131h-696z" />
<glyph unicode="&#x101;" horiz-adv-x="1165" d="M950 285q0 -47 2 -95.5t6 -87.5h136v-102h-322l-20 195h-11q-10 -41 -37.5 -80t-69.5 -70t-99.5 -49.5t-126.5 -18.5q-70 0 -128.5 20.5t-101.5 57.5t-66.5 89.5t-23.5 117.5q0 100 42 166t124 103.5t205 54t286 18.5q4 33 5 63v58q0 127 -43 193.5t-154 66.5 q-41 0 -88 -4t-86 -25v-188h-184v227q74 39 174 70t235 31q117 0 187.5 -30t108.5 -78t49.5 -108.5t11.5 -119.5q0 -129 -5.5 -246.5t-5.5 -228.5zM502 115q49 0 88 15t68.5 39t51 52.5t35.5 54.5v244q-133 0 -216 -17.5t-130 -46t-64.5 -68.5t-17.5 -85q0 -92 49.5 -140 t135.5 -48zM283 1368v113h590v-113h-590z" />
<glyph unicode="&#x102;" horiz-adv-x="1546" d="M502 0h-502v115h160l530 1319h217l486 -1319h153v-115h-585v115h182l-133 360h-545l-139 -360h176v-115zM512 590h463l-168 473l-51 217h-8l-60 -221zM1140 1823q-18 -53 -52 -102.5t-79 -86.5t-99 -58.5t-112 -21.5q-63 0 -121.5 20.5t-105.5 57.5t-82 87t-49 108l96 31 q16 -25 47 -46.5t68 -37t76 -23.5t73 -8q74 0 146.5 23.5t120.5 84.5z" />
<glyph unicode="&#x103;" horiz-adv-x="1165" d="M950 285q0 -47 2 -95.5t6 -87.5h136v-102h-322l-20 195h-11q-10 -41 -37.5 -80t-69.5 -70t-99.5 -49.5t-126.5 -18.5q-70 0 -128.5 20.5t-101.5 57.5t-66.5 89.5t-23.5 117.5q0 100 42 166t124 103.5t205 54t286 18.5q4 33 5 63v58q0 127 -43 193.5t-154 66.5 q-41 0 -88 -4t-86 -25v-188h-184v227q74 39 174 70t235 31q117 0 187.5 -30t108.5 -78t49.5 -108.5t11.5 -119.5q0 -129 -5.5 -246.5t-5.5 -228.5zM502 115q49 0 88 15t68.5 39t51 52.5t35.5 54.5v244q-133 0 -216 -17.5t-130 -46t-64.5 -68.5t-17.5 -85q0 -92 49.5 -140 t135.5 -48zM897 1548q-20 -49 -50 -96t-68 -84t-86 -60.5t-106 -23.5q-123 0 -200.5 76t-118.5 192l65 29q18 -31 49 -56.5t67 -44t74 -29.5t73 -11q74 0 137 33.5t108 99.5z" />
<glyph unicode="&#x104;" horiz-adv-x="1546" d="M502 0h-502v115h160l530 1319h217l486 -1319h153v-115h-114q-94 -39 -148.5 -89t-54.5 -136q0 -55 41 -77t108 -22q70 0 129 13v-64q-33 -23 -84 -40t-127 -17q-53 0 -101 10t-84 30.5t-57.5 52.5t-21.5 77q0 94 71 158.5t175 103.5h-317v115h182l-133 360h-545 l-139 -360h176v-115zM512 590h463l-168 473l-51 217h-8l-60 -221z" />
<glyph unicode="&#x105;" horiz-adv-x="1165" d="M950 285q0 -47 2 -95.5t6 -87.5h136v-102h-25q-100 -18 -167.5 -64.5t-67.5 -140.5q0 -41 29.5 -74.5t101.5 -33.5q61 0 120 20v-74q-33 -18 -83 -30.5t-91 -12.5q-135 0 -204.5 44t-69.5 126q0 55 29.5 96.5t72.5 70t93.5 46t91.5 27.5h-152l-20 195h-11 q-10 -41 -37.5 -80t-69.5 -70t-99.5 -49.5t-126.5 -18.5q-70 0 -128.5 20.5t-101.5 57.5t-66.5 89.5t-23.5 117.5q0 100 42 166t124 103.5t205 54t286 18.5q6 63 7 121q0 127 -44 193.5t-155 66.5q-41 0 -88 -4t-86 -25v-188h-184v227q74 39 174 70t235 31q117 0 187.5 -30 t108.5 -78t49.5 -108.5t11.5 -119.5q0 -129 -5.5 -246.5t-5.5 -228.5zM502 115q49 0 88 15t68.5 39t51 52.5t35.5 54.5v244q-131 0 -213.5 -17.5t-131 -46t-66 -68.5t-17.5 -85q0 -92 49.5 -140t135.5 -48z" />
<glyph unicode="&#x106;" horiz-adv-x="1429" d="M1165 377h131v-322q-63 -35 -167.5 -57.5t-206.5 -22.5q-188 0 -338 43t-253.5 134.5t-158.5 230.5t-55 334q0 201 61.5 341t166 229t241.5 130t288 41q74 0 133.5 -5t107.5 -15.5t89 -24.5t80 -31v-350h-131v215l-29 41q-23 10 -70.5 24.5t-154.5 14.5q-111 0 -207 -35 t-166.5 -108.5t-111.5 -189t-41 -277.5q0 -293 148.5 -452t416.5 -159q74 0 124 11.5t75 29.5l28 39v191zM987 1872l252 -68v-82l-524 -147l-27 49z" />
<glyph unicode="&#x107;" horiz-adv-x="1071" d="M987 137q-43 -59 -136 -109.5t-220 -50.5q-135 0 -236.5 40t-169 113t-100.5 176.5t-33 230.5q0 272 144.5 415.5t392.5 143.5q113 0 186.5 -14.5t134.5 -45.5v-266h-184v197q-31 18 -123 18q-78 0 -137.5 -22.5t-100 -73.5t-61 -137t-20.5 -211q0 -82 22.5 -157 t67.5 -131t113.5 -89t160.5 -33q49 0 87 10.5t66.5 21.5t51 25.5t43.5 30.5zM680 1536h258v-84l-402 -240l-57 48z" />
<glyph unicode="&#x108;" horiz-adv-x="1429" d="M1165 377h131v-322q-63 -35 -167.5 -57.5t-206.5 -22.5q-188 0 -338 43t-253.5 134.5t-158.5 230.5t-55 334q0 201 61.5 341t166 229t241.5 130t288 41q74 0 133.5 -5t107.5 -15.5t89 -24.5t80 -31v-350h-131v215l-29 41q-23 10 -70.5 24.5t-154.5 14.5q-111 0 -207 -35 t-166.5 -108.5t-111.5 -189t-41 -277.5q0 -293 148.5 -452t416.5 -159q74 0 124 11.5t75 29.5l28 39v191zM570 1559l-33 40l291 273h63l289 -266l-37 -45l-291 114z" />
<glyph unicode="&#x109;" horiz-adv-x="1071" d="M987 137q-43 -59 -136 -109.5t-220 -50.5q-135 0 -236.5 40t-169 113t-100.5 176.5t-33 230.5q0 272 144.5 415.5t392.5 143.5q113 0 186.5 -14.5t134.5 -45.5v-266h-184v197q-31 18 -123 18q-78 0 -137.5 -22.5t-100 -73.5t-61 -137t-20.5 -211q0 -82 22.5 -157 t67.5 -131t113.5 -89t160.5 -33q49 0 87 10.5t66.5 21.5t51 25.5t43.5 30.5zM383 1268l-65 35l256 401h59l258 -399l-65 -37l-232 229z" />
<glyph unicode="&#x10c;" horiz-adv-x="1429" d="M1165 377h131v-322q-63 -35 -167.5 -57.5t-206.5 -22.5q-188 0 -338 43t-253.5 134.5t-158.5 230.5t-55 334q0 201 61.5 341t166 229t241.5 130t288 41q74 0 133.5 -5t107.5 -15.5t89 -24.5t80 -31v-350h-131v215l-29 41q-23 10 -70.5 24.5t-154.5 14.5q-111 0 -207 -35 t-166.5 -108.5t-111.5 -189t-41 -277.5q0 -293 148.5 -452t416.5 -159q74 0 124 11.5t75 29.5l28 39v191zM1151 1882l57 -37l-291 -291h-63l-289 285l57 43l273 -113z" />
<glyph unicode="&#x10d;" horiz-adv-x="1071" d="M987 137q-43 -59 -136 -109.5t-220 -50.5q-135 0 -236.5 40t-169 113t-100.5 176.5t-33 230.5q0 272 144.5 415.5t392.5 143.5q113 0 186.5 -14.5t134.5 -45.5v-266h-184v197q-31 18 -123 18q-78 0 -137.5 -22.5t-100 -73.5t-61 -137t-20.5 -211q0 -82 22.5 -157 t67.5 -131t113.5 -89t160.5 -33q49 0 87 10.5t66.5 21.5t51 25.5t43.5 30.5zM829 1651l66 -35l-285 -399h-60l-280 397l82 37l244 -226z" />
<glyph unicode="&#x10e;" horiz-adv-x="1601" d="M66 0v115h186v1204h-186v115h251q39 0 91.5 2t107.5 5l105.5 6t85.5 3q190 0 335.5 -48t243.5 -139.5t148.5 -224.5t50.5 -303q0 -164 -47 -301t-147.5 -238.5t-257 -157.5t-374.5 -56q-33 0 -75.5 3t-90.5 6l-98 6q-49 3 -92 3h-237zM676 1335q-57 0 -110.5 -2t-84.5 -8 v-1221q12 -2 41 -3t62.5 -2l64.5 -2t43 -1q154 0 256.5 52.5t165 139.5t89 202.5t26.5 244.5q0 100 -25.5 207t-89 195t-170 143t-268.5 55zM957 1882l57 -37l-291 -291h-63l-289 285l57 43l273 -113z" />
<glyph unicode="&#x10f;" horiz-adv-x="1280" d="M856 213q-12 -47 -40 -90t-67.5 -76t-91 -51.5t-110.5 -18.5q-227 0 -341 134.5t-114 418.5q0 137 38 243t107.5 177.5t168 108.5t219.5 37q43 0 73.5 -2t57 -6.5t51.5 -11.5l53 -15v373h-174v102h389v-1434h139v-102h-331l-19 213h-8zM594 115q113 0 176.5 63.5 t89.5 175.5v604q-41 20 -91 30.5t-132 10.5q-76 0 -134.5 -32.5t-98 -94t-60 -148.5t-20.5 -194q0 -86 15 -161.5t48 -132t84 -89t123 -32.5zM1170 1165q49 98 73.5 212t24.5 202l31 37q16 0 42.5 -4t55.5 -11.5t54.5 -16.5t39.5 -21q-10 -59 -39.5 -121t-68.5 -118 t-83 -103t-81 -78z" />
<glyph unicode="&#x110;" horiz-adv-x="1601" d="M66 0v115h186v563h-205v110h205v531h-186v115h251q39 0 91.5 2t107.5 5l105.5 6t85.5 3q190 0 335.5 -48t243.5 -139.5t148.5 -224.5t50.5 -303q0 -164 -47 -301t-147.5 -238.5t-257 -157.5t-374.5 -56q-33 0 -75.5 3t-90.5 6l-98 6q-49 3 -92 3h-237zM676 1335 q-57 0 -110.5 -2t-84.5 -8v-537h367v-110h-367v-574q12 -2 41 -3t62.5 -2l64.5 -2t43 -1q154 0 256.5 52.5t165 139.5t89 202.5t26.5 244.5q0 100 -25.5 207t-89 195t-170 143t-268.5 55z" />
<glyph unicode="&#x111;" horiz-adv-x="1280" d="M514 1337h346v97h-172v102h387v-199h209v-112h-209v-1123h139v-102h-331l-21 213h-8q-12 -47 -40 -90t-67.5 -76t-90 -51.5t-109.5 -18.5q-227 0 -341 134.5t-114 418.5q0 137 38 243t107.5 177.5t168 108.5t219.5 37q43 0 73.5 -2t57 -6.5t51.5 -11.5l53 -15v164h-346 v112zM594 115q113 0 176.5 63.5t89.5 175.5v604q-41 20 -91 30.5t-132 10.5q-76 0 -134.5 -32.5t-98 -94t-60 -148.5t-20.5 -194q0 -86 15 -161.5t48 -132t84 -89t123 -32.5z" />
<glyph unicode="&#x112;" horiz-adv-x="1320" d="M1155 1434v-336h-131v176l-41 45h-502v-531h346l31 31v86h131v-350h-131v86l-31 33h-346v-559h537l41 41v200h131v-356h-1124v115h186v1204h-186v115h1089zM316 1612v131h696v-131h-696z" />
<glyph unicode="&#x113;" horiz-adv-x="1159" d="M1022 141q-53 -76 -150.5 -120t-226.5 -44q-135 0 -238.5 40t-173 113t-105.5 176.5t-36 230.5q0 274 137.5 416.5t384.5 142.5q82 0 161 -20.5t140.5 -67.5t99.5 -125t38 -193q0 -35 -4.5 -73.5t-12.5 -81.5h-712q0 -90 23.5 -164t71.5 -127.5t119.5 -83t170.5 -29.5 q80 0 148.5 26.5t109.5 61.5zM606 999q-63 0 -111.5 -18t-83 -61t-55 -114t-26.5 -175h493q2 18 3 37.5t1 36.5q0 135 -54 214.5t-167 79.5zM307 1368v113h590v-113h-590z" />
<glyph unicode="&#x116;" horiz-adv-x="1320" d="M1155 1434v-336h-131v176l-41 45h-502v-531h346l31 31v86h131v-350h-131v86l-31 33h-346v-559h537l41 41v200h131v-356h-1124v115h186v1204h-186v115h1089zM512 1681q0 59 47 90t117 31q72 0 119 -30.5t47 -90.5q0 -59 -47.5 -89.5t-118.5 -30.5q-70 0 -117 30.5 t-47 89.5z" />
<glyph unicode="&#x117;" horiz-adv-x="1159" d="M1022 141q-53 -76 -150.5 -120t-226.5 -44q-135 0 -238.5 40t-173 113t-105.5 176.5t-36 230.5q0 274 137.5 416.5t384.5 142.5q82 0 161 -20.5t140.5 -67.5t99.5 -125t38 -193q0 -35 -4.5 -73.5t-12.5 -81.5h-712q0 -90 23.5 -164t71.5 -127.5t119.5 -83t170.5 -29.5 q80 0 148.5 26.5t109.5 61.5zM606 999q-63 0 -111.5 -18t-83 -61t-55 -114t-26.5 -175h493q2 18 3 37.5t1 36.5q0 135 -54 214.5t-167 79.5zM447 1407q0 59 42 94t107 35q70 0 110 -35t40 -94t-40 -94t-110 -35q-66 0 -107.5 35t-41.5 94z" />
<glyph unicode="&#x118;" horiz-adv-x="1320" d="M1155 1434v-336h-131v176l-41 45h-502v-531h346l31 31v86h131v-350h-131v86l-31 33h-346v-559h537l41 41v200h131v-356h-115q-94 -39 -148.5 -89t-54.5 -136q0 -55 41 -77t109 -22q70 0 129 13v-64q-33 -23 -84 -40t-127 -17q-53 0 -101 10t-84 30.5t-57.5 52.5t-21.5 77 q0 94 70.5 158.5t175.5 103.5h-856v115h186v1204h-186v115h1089z" />
<glyph unicode="&#x119;" horiz-adv-x="1159" d="M1022 141q-68 -96 -193 -135q-78 -39 -128 -84t-50 -127q0 -41 30 -74.5t101 -33.5q61 0 121 20v-74q-33 -18 -83 -30.5t-91 -12.5q-135 0 -204.5 44t-69.5 126q0 80 51 130.5t137 86.5q-135 0 -238.5 40t-172 113t-104.5 176.5t-36 230.5q0 274 137.5 416.5t384.5 142.5 q82 0 161 -20.5t140.5 -67.5t99.5 -125t38 -193q0 -35 -4.5 -73.5t-12.5 -81.5h-712q0 -90 23.5 -164t71.5 -127.5t119.5 -83t170.5 -29.5q80 0 148.5 26.5t109.5 61.5zM606 999q-63 0 -111.5 -18t-83 -61t-55 -114t-26.5 -175h493q2 18 3 37.5t1 36.5q0 135 -54 214.5 t-167 79.5z" />
<glyph unicode="&#x11a;" horiz-adv-x="1320" d="M1155 1434v-336h-131v176l-41 45h-502v-531h346l31 31v86h131v-350h-131v86l-31 33h-346v-559h537l41 41v200h131v-356h-1124v115h186v1204h-186v115h1089zM953 1882l57 -37l-291 -291h-63l-289 285l57 43l273 -113z" />
<glyph unicode="&#x11b;" horiz-adv-x="1159" d="M1022 141q-53 -76 -150.5 -120t-226.5 -44q-135 0 -238.5 40t-173 113t-105.5 176.5t-36 230.5q0 274 137.5 416.5t384.5 142.5q82 0 161 -20.5t140.5 -67.5t99.5 -125t38 -193q0 -35 -4.5 -73.5t-12.5 -81.5h-712q0 -90 23.5 -164t71.5 -127.5t119.5 -83t170.5 -29.5 q80 0 148.5 26.5t109.5 61.5zM606 999q-63 0 -111.5 -18t-83 -61t-55 -114t-26.5 -175h493q2 18 3 37.5t1 36.5q0 135 -54 214.5t-167 79.5zM870 1651l66 -35l-285 -399h-60l-280 397l82 37l244 -226z" />
<glyph unicode="&#x11c;" horiz-adv-x="1585" d="M1370 98q-43 -25 -98 -47t-115.5 -38.5t-122 -27t-119.5 -10.5q-190 0 -338.5 44t-251 135.5t-155.5 231.5t-53 331q0 201 64.5 342t171 230t244.5 129t284 40q152 0 250 -20.5t176 -55.5v-350h-131v215l-29 41q-18 10 -47 17.5t-60.5 12.5t-65.5 7t-63 2 q-113 0 -211 -35t-170.5 -108.5t-114.5 -189t-42 -277.5q0 -291 144.5 -451t414.5 -160q68 0 116 9.5t85 23.5l30 37v387h-217v115h567v-115h-143v-465zM576 1559l-33 40l291 273h63l289 -266l-37 -45l-291 114z" />
<glyph unicode="&#x11d;" horiz-adv-x="1212" d="M1192 1075v-131h-240q29 -29 53.5 -80t24.5 -123q0 -152 -118.5 -243.5t-342.5 -91.5q-41 0 -69.5 1t-61.5 9q-10 -20 -25.5 -44t-15.5 -50q0 -43 53.5 -64.5t133.5 -39t174 -35t175 -51.5t134 -89t53 -145q0 -78 -40 -136.5t-112.5 -96.5t-173 -56.5t-219.5 -18.5 q-256 0 -382.5 68t-126.5 186q0 115 77.5 176.5t218.5 102.5q-53 23 -85.5 49.5t-32.5 79.5q0 25 12 50.5t32.5 49t45 43t47.5 31.5q-131 35 -201.5 119t-70.5 200q0 150 116.5 240t343.5 90h623zM905 -152q0 68 -48 108t-120.5 65.5t-156.5 42t-158 38.5 q-86 -51 -113.5 -103t-27.5 -112q0 -86 86 -143t249 -57q84 0 139.5 13t89.5 35.5t47 51t13 61.5zM324 745q0 -53 12 -98t39.5 -76.5t75 -50t118.5 -18.5q131 0 188.5 66.5t57.5 176.5q0 43 -3 72t-8 51.5t-11 39.5l-13 36q-47 20 -100 27.5t-111 7.5q-139 0 -192 -57.5 t-53 -176.5zM344 1268l-65 35l256 401h59l258 -399l-65 -37l-232 229z" />
<glyph unicode="&#x11e;" horiz-adv-x="1585" d="M1370 98q-43 -25 -98 -47t-115.5 -38.5t-122 -27t-119.5 -10.5q-190 0 -338.5 44t-251 135.5t-155.5 231.5t-53 331q0 201 64.5 342t171 230t244.5 129t284 40q152 0 250 -20.5t176 -55.5v-350h-131v215l-29 41q-18 10 -47 17.5t-60.5 12.5t-65.5 7t-63 2 q-113 0 -211 -35t-170.5 -108.5t-114.5 -189t-42 -277.5q0 -291 144.5 -451t414.5 -160q68 0 116 9.5t85 23.5l30 37v387h-217v115h567v-115h-143v-465zM1261 1823q-18 -53 -52 -102.5t-79 -86.5t-99 -58.5t-112 -21.5q-63 0 -121.5 20.5t-105.5 57.5t-82 87t-49 108l96 31 q16 -25 47 -46.5t68 -37t76 -23.5t73 -8q74 0 146.5 23.5t120.5 84.5z" />
<glyph unicode="&#x11f;" horiz-adv-x="1212" d="M1192 1075v-131h-240q29 -29 53.5 -80t24.5 -123q0 -152 -118.5 -243.5t-342.5 -91.5q-41 0 -69.5 1t-61.5 9q-10 -20 -25.5 -44t-15.5 -50q0 -43 53.5 -64.5t133.5 -39t174 -35t175 -51.5t134 -89t53 -145q0 -78 -40 -136.5t-112.5 -96.5t-173 -56.5t-219.5 -18.5 q-256 0 -382.5 68t-126.5 186q0 115 77.5 176.5t218.5 102.5q-53 23 -85.5 49.5t-32.5 79.5q0 25 12 50.5t32.5 49t45 43t47.5 31.5q-131 35 -201.5 119t-70.5 200q0 150 116.5 240t343.5 90h623zM905 -152q0 68 -48 108t-120.5 65.5t-156.5 42t-158 38.5 q-86 -51 -113.5 -103t-27.5 -112q0 -86 86 -143t249 -57q84 0 139.5 13t89.5 35.5t47 51t13 61.5zM324 745q0 -53 12 -98t39.5 -76.5t75 -50t118.5 -18.5q131 0 188.5 66.5t57.5 176.5q0 43 -3 72t-8 51.5t-11 39.5l-13 36q-47 20 -100 27.5t-111 7.5q-139 0 -192 -57.5 t-53 -176.5zM897 1548q-20 -49 -50 -96t-68 -84t-86 -60.5t-106 -23.5q-123 0 -200.5 76t-118.5 192l65 29q18 -31 49 -56.5t67 -44t74 -29.5t73 -11q74 0 137 33.5t108 99.5z" />
<glyph unicode="&#x122;" horiz-adv-x="1585" d="M1370 98q-43 -25 -98 -47t-115.5 -38.5t-122 -27t-119.5 -10.5q-190 0 -338.5 44t-251 135.5t-155.5 231.5t-53 331q0 201 64.5 342t171 230t244.5 129t284 40q152 0 250 -20.5t176 -55.5v-350h-131v215l-29 41q-18 10 -47 17.5t-60.5 12.5t-65.5 7t-63 2 q-113 0 -211 -35t-170.5 -108.5t-114.5 -189t-42 -277.5q0 -291 144.5 -451t414.5 -160q68 0 116 9.5t85 23.5l30 37v387h-217v115h567v-115h-143v-465zM676 -498q86 23 138 63t52 101v15h-123q-20 25 -28 51t-8 55q0 61 36 115h259q35 -70 34 -142q0 -66 -28.5 -121 t-74.5 -98t-106.5 -72.5t-121.5 -41.5z" />
<glyph unicode="&#x123;" horiz-adv-x="1212" d="M1192 1075v-131h-240q29 -29 53.5 -80t24.5 -123q0 -152 -118.5 -243.5t-342.5 -91.5q-41 0 -69.5 1t-61.5 9q-10 -20 -25.5 -44t-15.5 -50q0 -43 53.5 -64.5t133.5 -39t174 -35t175 -51.5t134 -89t53 -145q0 -78 -40 -136.5t-112.5 -96.5t-173 -56.5t-219.5 -18.5 q-256 0 -382.5 68t-126.5 186q0 115 77.5 176.5t218.5 102.5q-53 23 -85.5 49.5t-32.5 79.5q0 25 12 50.5t32.5 49t45 43t47.5 31.5q-131 35 -201.5 119t-70.5 200q0 150 116.5 240t343.5 90h623zM905 -152q0 68 -48 108t-120.5 65.5t-156.5 42t-158 38.5 q-86 -51 -113.5 -103t-27.5 -112q0 -86 86 -143t249 -57q84 0 139.5 13t89.5 35.5t47 51t13 61.5zM324 745q0 -53 12 -98t39.5 -76.5t75 -50t118.5 -18.5q131 0 188.5 66.5t57.5 176.5q0 43 -3 72t-8 51.5t-11 39.5l-13 36q-47 20 -100 27.5t-111 7.5q-139 0 -192 -57.5 t-53 -176.5zM721.008 1660.97q-85.9951 -22.999 -137.992 -67.9961q-51.9961 -44.9971 -51.9961 -105.993v-14.999h122.992q19.999 -24.999 27.998 -50.4971q8 -25.499 8 -49.4971q0 -56.9971 -35.998 -110.993h-237.985q-19.999 40.9971 -28.498 77.9951 q-8.5 36.998 -8.5 71.9951q0 62.9971 25.498 117.493q25.499 54.4971 69.4961 96.4941t100.494 70.4961q56.4961 28.498 117.493 40.4971z" />
<glyph unicode="&#x124;" horiz-adv-x="1679" d="M651 115v-115h-585v115h186v1204h-186v115h585v-115h-170v-526h717v526h-170v115h586v-115h-187v-1204h187v-115h-586v115h170v563h-717v-563h170zM553 1559l-33 40l291 273h63l289 -266l-37 -45l-291 114z" />
<glyph unicode="&#x125;" horiz-adv-x="1353" d="M1315 0h-502v102h135v504q0 170 -45 261t-160 91q-61 0 -114.5 -20t-94 -53t-70.5 -73t-44 -79v-631h135v-102h-502v102h152v1332h-174v102h389v-678h2q47 100 148.5 169t242.5 69q80 0 145.5 -19.5t110.5 -71t69.5 -137.5t24.5 -219v-547h152v-102zM4 1559l-33 40 l291 273h63l289 -266l-37 -45l-291 114z" />
<glyph unicode="&#x126;" horiz-adv-x="1679" d="M70 1147h182v172h-186v115h585v-115h-170v-172h717v172h-170v115h586v-115h-187v-172h183v-111h-183v-921h187v-115h-586v115h170v563h-717v-563h170v-115h-585v115h186v921h-182v111zM1198 793v243h-717v-243h717z" />
<glyph unicode="&#x127;" horiz-adv-x="1353" d="M10 1337h195v97h-174v102h389v-199h360v-112h-360v-367h2q47 100 148.5 169t242.5 69q80 0 145.5 -19.5t110.5 -71t69.5 -137.5t24.5 -219v-547h152v-102h-502v102h135v504q0 170 -45 261t-160 91q-61 0 -114.5 -20t-94 -53t-70.5 -73t-44 -79v-631h135v-102h-502v102 h152v1123h-195v112z" />
<glyph unicode="&#x12a;" horiz-adv-x="815" d="M709 0h-603v115h187v1204h-187v115h603v-115h-187v-1204h187v-115zM60 1612v131h696v-131h-696z" />
<glyph unicode="&#x12b;" horiz-adv-x="694" d="M610 0h-518v102h152v871h-152v102h367v-973h151v-102zM53 1368v113h590v-113h-590z" />
<glyph unicode="&#x12e;" horiz-adv-x="815" d="M709 0h-115q-94 -39 -148.5 -89t-54.5 -136q0 -55 41 -77t109 -22q70 0 129 13v-64q-33 -23 -84 -40t-127 -17q-53 0 -101.5 10t-84 30.5t-57 52.5t-21.5 77q0 94 70.5 158.5t174.5 103.5h-334v115h187v1204h-187v115h603v-115h-187v-1204h187v-115z" />
<glyph unicode="&#x12f;" horiz-adv-x="694" d="M610 0h-32q-49 -12 -91.5 -34.5t-73 -50.5t-48 -58.5t-17.5 -61.5q0 -41 30 -74.5t101 -33.5q61 0 121 20v-74q-33 -18 -83 -30.5t-91 -12.5q-135 0 -204.5 44t-69.5 126q0 84 70.5 136.5t217.5 103.5h-348v102h152v871h-152v102h367v-973h151v-102zM199 1407q0 59 42 94 t107 35q70 0 110 -35t40 -94t-40 -94t-110 -35q-66 0 -107.5 35t-41.5 94z" />
<glyph unicode="&#x130;" horiz-adv-x="815" d="M709 0h-603v115h187v1204h-187v115h603v-115h-187v-1204h187v-115zM240 1681q0 59 47 90t117 31q72 0 119 -30.5t47 -90.5q0 -59 -47.5 -89.5t-118.5 -30.5q-70 0 -117 30.5t-47 89.5z" />
<glyph unicode="&#x131;" horiz-adv-x="694" d="M610 0h-518v102h152v871h-152v102h367v-973h151v-102z" />
<glyph unicode="&#x134;" horiz-adv-x="778" d="M74 -231q35 16 67.5 39.5t58 65.5t41 109.5t15.5 176.5v1159h-170v115h586v-115h-187v-1139q0 -145 -37.5 -238.5t-93 -149.5t-119 -82.5t-114.5 -37.5zM82 1559l-33 40l291 273h63l289 -266l-37 -45l-291 114z" />
<glyph unicode="&#x135;" horiz-adv-x="667" d="M244 973h-152v102h367v-948q0 -154 -42 -254t-99.5 -162.5t-116 -92.5t-90.5 -40l-56 88q27 12 59.5 38t61.5 73t48.5 121.5t19.5 187.5v887zM127 1268l-65 35l256 401h59l258 -399l-65 -37l-232 229z" />
<glyph unicode="&#x136;" horiz-adv-x="1458" d="M614 782l447 537h-166v115h506v-115h-162l-487 -547l579 -657h127v-115h-330l-538 680h-109v-565h170v-115h-585v115h186v1204h-186v115h585v-115h-170v-537h133zM543 -498q86 23 138 63t52 101v15h-123q-20 25 -28 51t-8 55q0 61 36 115h259q35 -70 34 -142 q0 -66 -28.5 -121t-74.5 -98t-106.5 -72.5t-121.5 -41.5z" />
<glyph unicode="&#x137;" horiz-adv-x="1191" d="M649 1075h451v-102h-131l-318 -367l418 -504h102v-102h-294l-381 510h-76v-408h151v-102h-518v102h152v1332h-174v102h389v-944h72l313 381h-156v102zM408 -498q86 23 138 68t52 106v15h-123q-20 25 -28 50.5t-8 49.5q0 57 36 111h238q20 -41 28.5 -78t8.5 -72 q0 -63 -25.5 -117.5t-69.5 -96.5t-100.5 -70.5t-117.5 -40.5z" />
<glyph unicode="&#x139;" horiz-adv-x="1247" d="M66 1319v115h636v-115h-221v-1204h545l41 45v282h147v-442h-1148v115h186v1204h-186zM649 1872l252 -68v-82l-524 -147l-27 49z" />
<glyph unicode="&#x13a;" horiz-adv-x="694" d="M610 0h-518v102h152v1332h-174v102h389v-1434h151v-102zM506 1897l252 -68v-82l-524 -147l-27 49z" />
<glyph unicode="&#x13b;" horiz-adv-x="1247" d="M66 1319v115h636v-115h-221v-1204h545l41 45v282h147v-442h-1148v115h186v1204h-186zM449 -498q86 23 138 63t52 101v15h-123q-20 25 -28 51t-8 55q0 61 36 115h259q35 -70 34 -142q0 -66 -28.5 -121t-74.5 -98t-106.5 -72.5t-121.5 -41.5z" />
<glyph unicode="&#x13c;" horiz-adv-x="694" d="M610 0h-518v102h152v1332h-174v102h389v-1434h151v-102zM172 -498q86 23 138 68t52 106v15h-123q-20 25 -28 50.5t-8 49.5q0 57 36 111h238q20 -41 28.5 -78t8.5 -72q0 -63 -25.5 -117.5t-69.5 -96.5t-100.5 -70.5t-117.5 -40.5z" />
<glyph unicode="&#x13d;" horiz-adv-x="1247" d="M66 1319v115h636v-115h-221v-1204h545l41 45v282h147v-442h-1148v115h186v1204h-186zM792 1024l94 203l2 172l31 35h219q-6 -84 -38.5 -157t-76.5 -131.5t-94.5 -100t-89.5 -64.5z" />
<glyph unicode="&#x13e;" horiz-adv-x="694" d="M610 0h-518v102h152v1332h-174v102h389v-1434h151v-102zM559 1165q49 98 73.5 212t24.5 202l31 37q16 0 42.5 -4t55.5 -11.5t54.5 -16.5t39.5 -21q-10 -59 -39.5 -121t-68.5 -118t-83 -103t-81 -78z" />
<glyph unicode="&#x141;" horiz-adv-x="1247" d="M66 1319v115h636v-115h-221v-492l307 170v-157l-307 -170v-555h545l41 45v282h147v-442h-1148v115h186v430l-213 -117v156l213 116v619h-186z" />
<glyph unicode="&#x142;" horiz-adv-x="737" d="M55 635l217 125v674h-174v102h389v-653l207 121v-142l-207 -121v-639h152v-102h-518v102h151v514l-217 -124v143z" />
<glyph unicode="&#x143;" horiz-adv-x="1679" d="M1110 1434h504v-115h-187v-1344h-133l-833 1125l-90 157h-9l21 -159v-983h186v-115h-503v115h186v1204h-186v115h409l717 -965l106 -176h11l-13 176v850h-186v115zM1014 1872l252 -68v-82l-524 -147l-27 49z" />
<glyph unicode="&#x144;" horiz-adv-x="1372" d="M1333 0h-502v102h136v514q0 162 -49.5 252t-180.5 90q-57 0 -105 -18t-86 -49t-65.5 -72t-42.5 -86v-631h135v-102h-501v102h151v871h-151v102h366v-213h2q47 98 138.5 166t220.5 68q92 0 163.5 -19.5t119.5 -71t74 -137.5t26 -219v-547h151v-102zM824 1536h258v-84 l-402 -240l-57 48z" />
<glyph unicode="&#x145;" horiz-adv-x="1679" d="M1110 1434h504v-115h-187v-1344h-133l-833 1125l-90 157h-9l21 -159v-983h186v-115h-503v115h186v1204h-186v115h409l717 -965l106 -176h11l-13 176v850h-186v115zM649 -498q86 23 138 63t52 101v15h-123q-20 25 -28 51t-8 55q0 61 36 115h259q35 -70 34 -142 q0 -66 -28.5 -121t-74.5 -98t-106.5 -72.5t-121.5 -41.5z" />
<glyph unicode="&#x146;" horiz-adv-x="1372" d="M1333 0h-502v102h136v514q0 162 -49.5 252t-180.5 90q-57 0 -105 -18t-86 -49t-65.5 -72t-42.5 -86v-631h135v-102h-501v102h151v871h-151v102h366v-213h2q47 98 138.5 166t220.5 68q92 0 163.5 -19.5t119.5 -71t74 -137.5t26 -219v-547h151v-102zM518 -498q86 23 138 68 t52 106v15h-123q-20 25 -28 50.5t-8 49.5q0 57 36 111h238q20 -41 28.5 -78t8.5 -72q0 -63 -25.5 -117.5t-69.5 -96.5t-100.5 -70.5t-117.5 -40.5z" />
<glyph unicode="&#x147;" horiz-adv-x="1679" d="M1110 1434h504v-115h-187v-1344h-133l-833 1125l-90 157h-9l21 -159v-983h186v-115h-503v115h186v1204h-186v115h409l717 -965l106 -176h11l-13 176v850h-186v115zM1112 1882l57 -37l-291 -291h-63l-289 285l57 43l273 -113z" />
<glyph unicode="&#x148;" horiz-adv-x="1372" d="M1333 0h-502v102h136v514q0 162 -49.5 252t-180.5 90q-57 0 -105 -18t-86 -49t-65.5 -72t-42.5 -86v-631h135v-102h-501v102h151v871h-151v102h366v-213h2q47 98 138.5 166t220.5 68q92 0 163.5 -19.5t119.5 -71t74 -137.5t26 -219v-547h151v-102zM932 1651l66 -35 l-285 -399h-60l-280 397l82 37l244 -226z" />
<glyph unicode="&#x14c;" horiz-adv-x="1699" d="M117 717q0 160 49 296t142 235.5t229.5 154.5t310.5 55t311 -55t231.5 -154.5t143.5 -235.5t49 -296t-49 -296t-143.5 -235.5t-231.5 -155t-311 -55.5t-310.5 55.5t-229.5 155t-142 235.5t-49 296zM373 717q0 -131 29.5 -246t91 -199t154.5 -133t220 -49q117 0 203 49 t142.5 133t85 199t28.5 246t-29.5 245.5t-91 198.5t-155 133t-222.5 49q-123 0 -210 -49t-142 -133t-79.5 -198.5t-24.5 -245.5zM502 1612v131h696v-131h-696z" />
<glyph unicode="&#x14d;" horiz-adv-x="1273" d="M92 537q0 135 39 239.5t109.5 175t172 107.5t224.5 37q143 0 246.5 -40t169 -113t97.5 -176t32 -230q0 -135 -38 -238.5t-108.5 -174.5t-172 -107.5t-226.5 -36.5q-139 0 -241.5 39.5t-170 112.5t-100.5 175.5t-33 229.5zM324 537q0 -98 18 -182.5t60 -146t109 -97 t163 -35.5q121 0 198.5 110.5t77.5 350.5q0 98 -18.5 183t-58 147.5t-102 97t-153.5 34.5q-135 0 -214.5 -110t-79.5 -352zM342 1368v113h590v-113h-590z" />
<glyph unicode="&#x150;" horiz-adv-x="1699" d="M117 717q0 160 49 296t142 235.5t229.5 154.5t310.5 55t311 -55t231.5 -154.5t143.5 -235.5t49 -296t-49 -296t-143.5 -235.5t-231.5 -155t-311 -55.5t-310.5 55.5t-229.5 155t-142 235.5t-49 296zM373 717q0 -131 29.5 -246t91 -199t154.5 -133t220 -49q117 0 203 49 t142.5 133t85 199t28.5 246t-29.5 245.5t-91 198.5t-155 133t-222.5 49q-123 0 -210 -49t-142 -133t-79.5 -198.5t-24.5 -245.5zM783 1860l206 -50v-49l-362 -211l-45 39zM1186 1860l217 -45v-52l-471 -217l-51 39z" />
<glyph unicode="&#x151;" horiz-adv-x="1273" d="M92 537q0 135 39 239.5t109.5 175t172 107.5t224.5 37q143 0 246.5 -40t169 -113t97.5 -176t32 -230q0 -135 -38 -238.5t-108.5 -174.5t-172 -107.5t-226.5 -36.5q-139 0 -241.5 39.5t-170 112.5t-100.5 175.5t-33 229.5zM324 537q0 -98 18 -182.5t60 -146t109 -97 t163 -35.5q121 0 198.5 110.5t77.5 350.5q0 98 -18.5 183t-58 147.5t-102 97t-153.5 34.5q-135 0 -214.5 -110t-79.5 -352zM563 1651l199 -45v-54l-318 -266l-55 33zM964 1651l201 -60v-51l-459 -254l-47 37z" />
<glyph unicode="&#x152;" horiz-adv-x="2179" d="M848 1458q53 0 124.5 -6t137.5 -18h897v-336h-131v176l-41 45h-496v-531h347l30 31v86h131v-350h-131v86l-30 33h-347v-559h537l41 41v200h131v-356h-936q-59 -10 -130 -17.5t-134 -7.5q-174 0 -310.5 55.5t-229.5 155t-142 235.5t-49 296t49 296t142 235.5t229.5 154.5 t310.5 55zM868 86q59 0 122 9t120 32v1169q-59 23 -131 37.5t-150 14.5q-123 0 -210 -49.5t-142 -135.5t-79.5 -200.5t-24.5 -245.5t29.5 -246t91 -201t154.5 -135t220 -49z" />
<glyph unicode="&#x153;" horiz-adv-x="2015" d="M324 537q0 -98 18 -182.5t60 -146t110 -97t164 -35.5q121 0 198.5 110.5t77.5 350.5q0 98 -18.5 183t-58 147.5t-103 97t-154.5 34.5q-135 0 -214.5 -110t-79.5 -352zM1067 162q-41 -51 -91 -86t-106.5 -56.5t-116 -30.5t-116.5 -9q-139 0 -241.5 39.5t-170 112.5 t-100.5 175.5t-33 229.5q0 135 39 239.5t109.5 175t172 107.5t224.5 37q61 0 123.5 -9.5t118 -31t102.5 -55t82 -82.5q29 45 75 78.5t101 56t114.5 33t119.5 10.5q82 0 159.5 -19.5t139 -66.5t99.5 -125t38 -195q0 -35 -4 -73.5t-13 -81.5h-712q0 -90 23.5 -167t71.5 -132.5 t120.5 -87t171.5 -31.5q78 0 146.5 32.5t113.5 81.5l61 -71q-18 -37 -58 -70t-91 -57.5t-112.5 -38.5t-123.5 -14q-63 0 -129.5 12t-127 35.5t-107.5 57.5t-72 77zM1464 999q-63 0 -112 -18t-84 -61t-55.5 -114t-26.5 -175h495q2 18 2 37v34q0 137 -53 217t-166 80z" />
<glyph unicode="&#x154;" horiz-adv-x="1449" d="M481 115h176v-115h-591v115h186v1204h-186v115h206q92 0 201 8t213 8q113 0 212 -23.5t171 -72.5t114 -126t42 -184q0 -147 -91.5 -250.5t-238.5 -146.5l408 -532h127v-115h-332l-408 618h-209v-503zM643 725q158 0 247 86t89 233q0 152 -94 221.5t-250 69.5 q-53 0 -89 -4t-65 -8v-598h162zM854 1872l252 -68v-82l-524 -147l-27 49z" />
<glyph unicode="&#x155;" horiz-adv-x="886" d="M582 891q-47 -25 -78 -57.5t-66 -94.5v-637h180v-102h-546v102h151v871h-151v102h366v-207h8q35 68 82 118t107 89h196v-184h-249zM588 1536h258v-84l-402 -240l-57 48z" />
<glyph unicode="&#x156;" horiz-adv-x="1449" d="M481 115h176v-115h-591v115h186v1204h-186v115h206q92 0 201 8t213 8q113 0 212 -23.5t171 -72.5t114 -126t42 -184q0 -147 -91.5 -250.5t-238.5 -146.5l408 -532h127v-115h-332l-408 618h-209v-503zM643 725q158 0 247 86t89 233q0 152 -94 221.5t-250 69.5 q-53 0 -89 -4t-65 -8v-598h162zM539 -498q86 23 138 63t52 101v15h-123q-20 25 -28 51t-8 55q0 61 36 115h259q35 -70 34 -142q0 -66 -28.5 -121t-74.5 -98t-106.5 -72.5t-121.5 -41.5z" />
<glyph unicode="&#x157;" horiz-adv-x="886" d="M582 891q-47 -25 -78 -57.5t-66 -94.5v-637h180v-102h-546v102h151v871h-151v102h366v-207h8q35 68 82 118t107 89h196v-184h-249zM199 -498q86 23 138 68t52 106v15h-123q-20 25 -28 50.5t-8 49.5q0 57 36 111h238q20 -41 28.5 -78t8.5 -72q0 -63 -25.5 -117.5 t-69.5 -96.5t-100.5 -70.5t-117.5 -40.5z" />
<glyph unicode="&#x158;" horiz-adv-x="1449" d="M481 115h176v-115h-591v115h186v1204h-186v115h206q92 0 201 8t213 8q113 0 212 -23.5t171 -72.5t114 -126t42 -184q0 -147 -91.5 -250.5t-238.5 -146.5l408 -532h127v-115h-332l-408 618h-209v-503zM643 725q158 0 247 86t89 233q0 152 -94 221.5t-250 69.5 q-53 0 -89 -4t-65 -8v-598h162zM920 1882l57 -37l-291 -291h-63l-289 285l57 43l273 -113z" />
<glyph unicode="&#x159;" horiz-adv-x="886" d="M582 891q-47 -25 -78 -57.5t-66 -94.5v-637h180v-102h-546v102h151v871h-151v102h366v-207h8q35 68 82 118t107 89h196v-184h-249zM752 1651l66 -35l-285 -399h-60l-280 397l82 37l244 -226z" />
<glyph unicode="&#x15a;" horiz-adv-x="1220" d="M258 201l37 -49q37 -27 101.5 -44.5t142.5 -17.5q74 0 136 15.5t109 46t74 77.5t27 113q0 84 -56.5 139.5t-140.5 98.5t-182 84t-182 96t-140.5 133t-56.5 197q0 174 132 271t357 97q141 0 244 -18.5t174 -48.5v-353h-131v222l-33 51q-39 16 -112.5 24t-145.5 8 q-123 0 -192.5 -56t-69.5 -159q0 -84 56.5 -140t140.5 -101t182 -87t182 -96.5t140.5 -130t56.5 -188.5q0 -199 -153.5 -304.5t-419.5 -105.5q-145 0 -252 31t-156 66v372h131v-243zM809 1872l252 -68v-82l-524 -147l-27 49z" />
<glyph unicode="&#x15b;" horiz-adv-x="995" d="M680 244q0 55 -41 97t-102.5 78t-133 71.5t-133 81.5t-102.5 108.5t-41 150.5q0 59 28.5 107.5t77 83.5t114 54.5t138.5 19.5q61 0 108.5 -4.5t86.5 -11.5t73.5 -17t71.5 -23v-276h-131v162l-39 45q-27 6 -57.5 10t-65.5 4q-98 0 -146 -38t-48 -95q0 -55 41 -96 t102.5 -77t133 -71t133 -79t102.5 -101t41 -137q0 -74 -34 -131.5t-92 -97t-137 -61t-167 -21.5q-98 0 -191.5 25.5t-146.5 60.5v268h131v-156l41 -43q27 -20 63.5 -32.5t96.5 -12.5q98 0 161.5 41t63.5 113zM594 1536h258v-84l-402 -240l-57 48z" />
<glyph unicode="&#x15c;" horiz-adv-x="1220" d="M258 201l37 -49q37 -27 101.5 -44.5t142.5 -17.5q74 0 136 15.5t109 46t74 77.5t27 113q0 84 -56.5 139.5t-140.5 98.5t-182 84t-182 96t-140.5 133t-56.5 197q0 174 132 271t357 97q141 0 244 -18.5t174 -48.5v-353h-131v222l-33 51q-39 16 -112.5 24t-145.5 8 q-123 0 -192.5 -56t-69.5 -159q0 -84 56.5 -140t140.5 -101t182 -87t182 -96.5t140.5 -130t56.5 -188.5q0 -199 -153.5 -304.5t-419.5 -105.5q-145 0 -252 31t-156 66v372h131v-243zM359 1559l-33 40l291 273h63l289 -266l-37 -45l-291 114z" />
<glyph unicode="&#x15d;" horiz-adv-x="995" d="M680 244q0 55 -41 97t-102.5 78t-133 71.5t-133 81.5t-102.5 108.5t-41 150.5q0 59 28.5 107.5t77 83.5t114 54.5t138.5 19.5q61 0 108.5 -4.5t86.5 -11.5t73.5 -17t71.5 -23v-276h-131v162l-39 45q-27 6 -57.5 10t-65.5 4q-98 0 -146 -38t-48 -95q0 -55 41 -96 t102.5 -77t133 -71t133 -79t102.5 -101t41 -137q0 -74 -34 -131.5t-92 -97t-137 -61t-167 -21.5q-98 0 -191.5 25.5t-146.5 60.5v268h131v-156l41 -43q27 -20 63.5 -32.5t96.5 -12.5q98 0 161.5 41t63.5 113zM280 1268l-65 35l256 401h59l258 -399l-65 -37l-232 229z" />
<glyph unicode="&#x15e;" horiz-adv-x="1220" d="M258 201l37 -49q37 -27 101.5 -44.5t142.5 -17.5q74 0 136 15.5t109 46t74 77.5t27 113q0 84 -56.5 139.5t-140.5 98.5t-182 84t-182 96t-140.5 133t-56.5 197q0 174 132 271t357 97q141 0 244 -18.5t174 -48.5v-353h-131v222l-33 51q-39 16 -112.5 24t-145.5 8 q-123 0 -192.5 -56t-69.5 -159q0 -84 56.5 -140t140.5 -101t182 -87t182 -96.5t140.5 -130t56.5 -188.5q0 -180 -127 -284.5t-352 -120.5l-56 -111q139 -4 207 -38t68 -107q0 -61 -41 -100.5t-103.5 -61t-136 -29.5t-139.5 -8v67q45 2 83 7.5t66.5 15.5t45 27.5t16.5 46.5 q0 55 -51 71.5t-154 20.5l80 194q-137 4 -238.5 34t-148.5 63v372h131v-243z" />
<glyph unicode="&#x15f;" horiz-adv-x="995" d="M680 244q0 55 -41 97t-102.5 78t-133 71.5t-133 81.5t-102.5 108.5t-41 150.5q0 59 28.5 107.5t77 83.5t114 54.5t138.5 19.5q61 0 108.5 -4.5t86.5 -11.5t73.5 -17t71.5 -23v-276h-131v162l-39 45q-27 6 -57.5 10t-65.5 4q-98 0 -146 -38t-48 -95q0 -55 41 -96 t102.5 -77t133 -71t133 -79t102.5 -101t41 -137q0 -68 -30 -123t-82 -95t-121.5 -63.5t-149.5 -29.5l-49 -105q129 -4 188.5 -34.5t59.5 -100.5q0 -63 -36 -102t-91.5 -60.5t-123 -29t-130.5 -7.5v66q43 2 78.5 6t60 14.5t38 28.5t13.5 51q0 53 -47 65.5t-141 20.5l78 187 q-86 8 -162 31.5t-121 54.5v268h131v-156l41 -43q27 -20 63.5 -32.5t96.5 -12.5q98 0 161.5 41t63.5 113z" />
<glyph unicode="&#x160;" horiz-adv-x="1220" d="M258 201l37 -49q37 -27 101.5 -44.5t142.5 -17.5q74 0 136 15.5t109 46t74 77.5t27 113q0 84 -56.5 139.5t-140.5 98.5t-182 84t-182 96t-140.5 133t-56.5 197q0 174 132 271t357 97q141 0 244 -18.5t174 -48.5v-353h-131v222l-33 51q-39 16 -112.5 24t-145.5 8 q-123 0 -192.5 -56t-69.5 -159q0 -84 56.5 -140t140.5 -101t182 -87t182 -96.5t140.5 -130t56.5 -188.5q0 -199 -153.5 -304.5t-419.5 -105.5q-145 0 -252 31t-156 66v372h131v-243zM891 1882l57 -37l-291 -291h-63l-289 285l57 43l273 -113z" />
<glyph unicode="&#x161;" horiz-adv-x="995" d="M680 244q0 55 -41 97t-102.5 78t-133 71.5t-133 81.5t-102.5 108.5t-41 150.5q0 59 28.5 107.5t77 83.5t114 54.5t138.5 19.5q61 0 108.5 -4.5t86.5 -11.5t73.5 -17t71.5 -23v-276h-131v162l-39 45q-27 6 -57.5 10t-65.5 4q-98 0 -146 -38t-48 -95q0 -55 41 -96 t102.5 -77t133 -71t133 -79t102.5 -101t41 -137q0 -74 -34 -131.5t-92 -97t-137 -61t-167 -21.5q-98 0 -191.5 25.5t-146.5 60.5v268h131v-156l41 -43q27 -20 63.5 -32.5t96.5 -12.5q98 0 161.5 41t63.5 113zM745 1651l66 -35l-285 -399h-60l-280 397l82 37l244 -226z" />
<glyph unicode="&#x162;" horiz-adv-x="1429" d="M1040 0h-268l-67 -131q139 -4 206.5 -38t67.5 -107q0 -61 -41 -100.5t-103.5 -61t-136 -29.5t-139.5 -8v67q45 2 83 7.5t66.5 15.5t45 27.5t16.5 46.5q0 55 -51 71.5t-154 20.5l90 219h-266v115h211v1204h-367l-40 -45v-264h-148v424h1339v-424h-147v264l-41 45h-367 v-1204h211v-115z" />
<glyph unicode="&#x163;" horiz-adv-x="856" d="M35 1075h182v256h215v-256h340v-131h-340v-598q0 -129 33 -182t106 -53q63 0 109.5 22.5t85.5 48.5l51 -80q-18 -18 -49 -38.5t-71 -39t-89 -30.5t-100 -14l-49 -105q129 -4 188.5 -34.5t59.5 -100.5q0 -66 -36 -104.5t-91.5 -59t-123 -28t-130.5 -7.5v66q43 2 78.5 6 t60 14.5t38 28.5t13.5 51q0 53 -47 65.5t-141 20.5l80 197q-92 20 -141.5 90t-49.5 205v659h-182v131z" />
<glyph unicode="&#x164;" horiz-adv-x="1429" d="M1040 0h-651v115h211v1204h-367l-40 -45v-264h-148v424h1339v-424h-147v264l-41 45h-367v-1204h211v-115zM981 1882l57 -37l-291 -291h-63l-289 285l57 43l273 -113z" />
<glyph unicode="&#x165;" horiz-adv-x="856" d="M35 1075h182v256h215v-256h340v-131h-340v-598q0 -129 33 -182t106 -53q63 0 109.5 22.5t85.5 48.5l51 -80q-18 -18 -50 -39.5t-73 -40t-91 -30.5t-103 -12q-137 0 -210 70.5t-73 234.5v659h-182v131zM539 1169q49 98 73.5 212t24.5 202l31 37q16 0 42.5 -4t55.5 -11.5 t54.5 -16.5t39.5 -21q-10 -59 -39.5 -121t-68.5 -118t-83 -103t-81 -78z" />
<glyph unicode="&#x16a;" horiz-adv-x="1560" d="M1350 489q0 -131 -39 -226t-110 -157.5t-171 -93t-223 -30.5q-291 0 -443.5 115.5t-152.5 357.5v864h-186v115h581v-115h-166v-821q0 -106 27 -179t77 -117t123.5 -63.5t168.5 -19.5q180 0 281.5 90t101.5 295v815h-166v115h483v-115h-186v-830zM471 1612v131h696v-131 h-696z" />
<glyph unicode="&#x16b;" horiz-adv-x="1325" d="M178 426q0 135 6 276.5t6 270.5h-151v102h364q-4 -160 -7 -306t-3 -304q0 -84 9.5 -148.5t35 -109.5t70.5 -67.5t115 -22.5q102 0 171.5 65.5t106.5 175.5v615h-149v102h364v-973h152v-102h-342l-15 233h-10q-10 -43 -40 -88t-75 -81.5t-104 -60t-129 -23.5 q-92 0 -161.5 19t-117 70.5t-72 137.5t-24.5 219zM367 1368v113h590v-113h-590z" />
<glyph unicode="&#x16c;" horiz-adv-x="1560" d="M1350 489q0 -131 -39 -226t-110 -157.5t-171 -93t-223 -30.5q-291 0 -443.5 115.5t-152.5 357.5v864h-186v115h581v-115h-166v-821q0 -106 27 -179t77 -117t123.5 -63.5t168.5 -19.5q180 0 281.5 90t101.5 295v815h-166v115h483v-115h-186v-830zM1153 1823 q-18 -53 -52 -102.5t-79 -86.5t-99 -58.5t-112 -21.5q-63 0 -121.5 20.5t-105.5 57.5t-82 87t-49 108l96 31q16 -25 47 -46.5t68 -37t76 -23.5t73 -8q74 0 146.5 23.5t120.5 84.5z" />
<glyph unicode="&#x16d;" horiz-adv-x="1325" d="M178 426q0 135 6 276.5t6 270.5h-151v102h364q-4 -160 -7 -306t-3 -304q0 -84 9.5 -148.5t35 -109.5t70.5 -67.5t115 -22.5q102 0 171.5 65.5t106.5 175.5v615h-149v102h364v-973h152v-102h-342l-15 233h-10q-10 -43 -40 -88t-75 -81.5t-104 -60t-129 -23.5 q-92 0 -161.5 19t-117 70.5t-72 137.5t-24.5 219zM971 1548q-20 -49 -50 -96t-68 -84t-86 -60.5t-106 -23.5q-123 0 -200.5 76t-118.5 192l65 29q18 -31 49 -56.5t67 -44t74 -29.5t73 -11q74 0 137 33.5t108 99.5z" />
<glyph unicode="&#x16e;" horiz-adv-x="1560" d="M1350 489q0 -131 -39 -226t-110 -157.5t-171 -93t-223 -30.5q-291 0 -443.5 115.5t-152.5 357.5v864h-186v115h581v-115h-166v-821q0 -106 27 -179t77 -117t123.5 -63.5t168.5 -19.5q180 0 281.5 90t101.5 295v815h-166v115h483v-115h-186v-830zM565 1614q0 84 78 130 t190 46q45 0 90 -10.5t81 -30.5t58.5 -52t22.5 -77q0 -41 -20.5 -71.5t-56.5 -53t-82 -34t-95 -11.5q-119 0 -192.5 43t-73.5 121zM718 1614q0 -35 30 -56.5t71 -21.5q59 0 85.5 20.5t26.5 55.5q0 53 -30.5 72.5t-73.5 19.5q-55 0 -82 -25.5t-27 -64.5z" />
<glyph unicode="&#x16f;" horiz-adv-x="1325" d="M178 426q0 135 6 276.5t6 270.5h-151v102h364q-4 -160 -7 -306t-3 -304q0 -84 9.5 -148.5t35 -109.5t70.5 -67.5t115 -22.5q102 0 171.5 65.5t106.5 175.5v615h-149v102h364v-973h152v-102h-342l-15 233h-10q-10 -43 -40 -88t-75 -81.5t-104 -60t-129 -23.5 q-92 0 -161.5 19t-117 70.5t-72 137.5t-24.5 219zM436 1468q0 88 65.5 148.5t165.5 60.5q92 0 154.5 -54t62.5 -148q0 -43 -18 -80t-48 -63.5t-70 -42t-83 -15.5q-104 0 -166.5 52t-62.5 142zM559 1473q0 -53 30.5 -81t67.5 -28q45 0 75 24.5t30 77.5q0 59 -29 90t-74 31 q-53 0 -76.5 -30.5t-23.5 -83.5z" />
<glyph unicode="&#x170;" horiz-adv-x="1560" d="M1350 489q0 -131 -39 -226t-110 -157.5t-171 -93t-223 -30.5q-291 0 -443.5 115.5t-152.5 357.5v864h-186v115h581v-115h-166v-821q0 -106 27 -179t77 -117t123.5 -63.5t168.5 -19.5q180 0 281.5 90t101.5 295v815h-166v115h483v-115h-186v-830zM754 1860l206 -50v-49 l-362 -211l-45 39zM1157 1860l217 -45v-52l-471 -217l-51 39z" />
<glyph unicode="&#x171;" horiz-adv-x="1325" d="M178 426q0 135 6 276.5t6 270.5h-151v102h364q-4 -160 -7 -306t-3 -304q0 -84 9.5 -148.5t35 -109.5t70.5 -67.5t115 -22.5q102 0 171.5 65.5t106.5 175.5v615h-149v102h364v-973h152v-102h-342l-15 233h-10q-10 -43 -40 -88t-75 -81.5t-104 -60t-129 -23.5 q-92 0 -161.5 19t-117 70.5t-72 137.5t-24.5 219zM561 1651l199 -45v-54l-318 -266l-55 33zM962 1651l201 -60v-51l-459 -254l-47 37z" />
<glyph unicode="&#x172;" horiz-adv-x="1560" d="M1350 489q0 -209 -94.5 -327.5t-260.5 -159.5q-96 -37 -150 -89t-54 -138q0 -55 40.5 -77t108.5 -22q70 0 129 13v-64q-33 -23 -84 -40t-127 -17q-53 0 -101 10t-84 30.5t-57.5 52.5t-21.5 77q0 84 56.5 143.5t144.5 100.5q-285 4 -434.5 118.5t-149.5 354.5v864h-186 v115h581v-115h-166v-821q0 -106 27 -179t77 -117t123.5 -63.5t168.5 -19.5q180 0 281.5 90t101.5 295v815h-166v115h483v-115h-186v-830z" />
<glyph unicode="&#x173;" horiz-adv-x="1325" d="M178 426q0 135 6 276.5t6 270.5h-151v102h364q-4 -160 -7 -306t-3 -304q0 -84 9.5 -148.5t35 -109.5t70.5 -67.5t115 -22.5q102 0 171.5 65.5t106.5 175.5v615h-149v102h364v-973h152v-102h-27q-100 -18 -167.5 -64.5t-67.5 -140.5q0 -41 29.5 -74.5t101.5 -33.5 q61 0 120 20v-74q-33 -18 -83 -30.5t-91 -12.5q-135 0 -204.5 44t-69.5 126q0 55 29.5 96.5t72.5 70t93.5 46t91.5 27.5h-170l-15 233h-10q-10 -43 -40 -88t-75 -81.5t-104 -60t-129 -23.5q-92 0 -161.5 19t-117 70.5t-72 137.5t-24.5 219z" />
<glyph unicode="&#x178;" horiz-adv-x="1488" d="M979 1434h510v-115h-174l-436 -711v-493h186v-115h-602v115h186v491l-463 713h-186v115h618v-115h-172l371 -596l350 596h-188v115zM408 1630q0 59 38 89t95 30q59 0 98 -29.5t39 -89.5q0 -53 -39 -81.5t-98 -28.5q-57 0 -95 28.5t-38 81.5zM924 1630q0 59 39 89t94 30 q59 0 98 -29.5t39 -89.5q0 -53 -39 -81.5t-98 -28.5q-55 0 -94 28.5t-39 81.5z" />
<glyph unicode="&#x179;" horiz-adv-x="1376" d="M82 115l938 1204h-698l-41 -45v-256h-148v416h1149v-115l-938 -1204h762l41 45v256h147v-416h-1212v115zM893 1872l252 -68v-82l-524 -147l-27 49z" />
<glyph unicode="&#x17a;" horiz-adv-x="1124" d="M1006 371v-371h-889v102l674 871h-445l-41 -41v-205h-131v348h852v-102l-678 -871h486l40 41v228h132zM637 1536h258v-84l-402 -240l-57 48z" />
<glyph unicode="&#x17b;" horiz-adv-x="1376" d="M82 115l938 1204h-698l-41 -45v-256h-148v416h1149v-115l-938 -1204h762l41 45v256h147v-416h-1212v115zM518 1681q0 59 47 90t117 31q72 0 119 -30.5t47 -90.5q0 -59 -47.5 -89.5t-118.5 -30.5q-70 0 -117 30.5t-47 89.5z" />
<glyph unicode="&#x17c;" horiz-adv-x="1124" d="M1006 371v-371h-889v102l674 871h-445l-41 -41v-205h-131v348h852v-102l-678 -871h486l40 41v228h132zM412 1407q0 59 42 94t107 35q70 0 110 -35t40 -94t-40 -94t-110 -35q-66 0 -107.5 35t-41.5 94z" />
<glyph unicode="&#x17d;" horiz-adv-x="1376" d="M82 115l938 1204h-698l-41 -45v-256h-148v416h1149v-115l-938 -1204h762l41 45v256h147v-416h-1212v115zM961 1882l57 -37l-291 -291h-63l-289 285l57 43l273 -113z" />
<glyph unicode="&#x17e;" horiz-adv-x="1124" d="M1006 371v-371h-889v102l674 871h-445l-41 -41v-205h-131v348h852v-102l-678 -871h486l40 41v228h132zM811 1651l66 -35l-285 -399h-60l-280 397l82 37l244 -226z" />
<glyph unicode="&#x17f;" horiz-adv-x="788" d="M629 1536q35 0 72.5 -5t71.5 -14.5t61.5 -20.5t44.5 -23v-191h-197v135q-23 4 -37 6t-35 2q-90 0 -119.5 -72.5t-29.5 -232.5v-1018h219v-102h-586v102h152v871h-174v102h174v33q0 123 32.5 205t86 131t123 70.5t141.5 21.5z" />
<glyph unicode="&#x192;" d="M449 973h-164v102h190l6 29q45 211 168 321.5t314 110.5q18 0 43.5 -3t51 -7t49 -10.5t42.5 -14.5v-170h-201v94q-63 0 -105 -16t-71 -52t-49.5 -94.5t-40.5 -144.5l-10 -43h231v-102h-254l-145 -881q-25 -152 -84.5 -248t-128 -152.5t-134 -81t-102.5 -34.5l-22 57 q29 12 66.5 40t76.5 76t73 122t52 180z" />
<glyph unicode="&#x1f4;" horiz-adv-x="1585" d="M1370 98q-43 -25 -98 -47t-115.5 -38.5t-122 -27t-119.5 -10.5q-190 0 -338.5 44t-251 135.5t-155.5 231.5t-53 331q0 201 64.5 342t171 230t244.5 129t284 40q152 0 250 -20.5t176 -55.5v-350h-131v215l-29 41q-18 10 -47 17.5t-60.5 12.5t-65.5 7t-63 2 q-113 0 -211 -35t-170.5 -108.5t-114.5 -189t-42 -277.5q0 -291 144.5 -451t414.5 -160q68 0 116 9.5t85 23.5l30 37v387h-217v115h567v-115h-143v-465zM1055 1872l252 -68v-82l-524 -147l-27 49z" />
<glyph unicode="&#x1f5;" horiz-adv-x="1212" d="M1192 1075v-131h-240q29 -29 53.5 -80t24.5 -123q0 -152 -118.5 -243.5t-342.5 -91.5q-41 0 -69.5 1t-61.5 9q-10 -20 -25.5 -44t-15.5 -50q0 -43 53.5 -64.5t133.5 -39t174 -35t175 -51.5t134 -89t53 -145q0 -78 -40 -136.5t-112.5 -96.5t-173 -56.5t-219.5 -18.5 q-256 0 -382.5 68t-126.5 186q0 115 77.5 176.5t218.5 102.5q-53 23 -85.5 49.5t-32.5 79.5q0 25 12 50.5t32.5 49t45 43t47.5 31.5q-131 35 -201.5 119t-70.5 200q0 150 116.5 240t343.5 90h623zM905 -152q0 68 -48 108t-120.5 65.5t-156.5 42t-158 38.5 q-86 -51 -113.5 -103t-27.5 -112q0 -86 86 -143t249 -57q84 0 139.5 13t89.5 35.5t47 51t13 61.5zM324 745q0 -53 12 -98t39.5 -76.5t75 -50t118.5 -18.5q131 0 188.5 66.5t57.5 176.5q0 43 -3 72t-8 51.5t-11 39.5l-13 36q-47 20 -100 27.5t-111 7.5q-139 0 -192 -57.5 t-53 -176.5zM723 1536h258v-84l-402 -240l-57 48z" />
<glyph unicode="&#x218;" horiz-adv-x="1220" d="M258 201l37 -49q37 -27 101.5 -44.5t142.5 -17.5q74 0 136 15.5t109 46t74 77.5t27 113q0 84 -56.5 139.5t-140.5 98.5t-182 84t-182 96t-140.5 133t-56.5 197q0 174 132 271t357 97q141 0 244 -18.5t174 -48.5v-353h-131v222l-33 51q-39 16 -112.5 24t-145.5 8 q-123 0 -192.5 -56t-69.5 -159q0 -84 56.5 -140t140.5 -101t182 -87t182 -96.5t140.5 -130t56.5 -188.5q0 -199 -153.5 -304.5t-419.5 -105.5q-145 0 -252 31t-156 66v372h131v-243zM414 -498q86 23 138 63t52 101v15h-123q-20 25 -28 51t-8 55q0 61 36 115h259 q35 -70 34 -142q0 -66 -28.5 -121t-74.5 -98t-106.5 -72.5t-121.5 -41.5z" />
<glyph unicode="&#x219;" horiz-adv-x="995" d="M680 244q0 55 -41 97t-102.5 78t-133 71.5t-133 81.5t-102.5 108.5t-41 150.5q0 59 28.5 107.5t77 83.5t114 54.5t138.5 19.5q61 0 108.5 -4.5t86.5 -11.5t73.5 -17t71.5 -23v-276h-131v162l-39 45q-27 6 -57.5 10t-65.5 4q-98 0 -146 -38t-48 -95q0 -55 41 -96 t102.5 -77t133 -71t133 -79t102.5 -101t41 -137q0 -74 -34 -131.5t-92 -97t-137 -61t-167 -21.5q-98 0 -191.5 25.5t-146.5 60.5v268h131v-156l41 -43q27 -20 63.5 -32.5t96.5 -12.5q98 0 161.5 41t63.5 113zM285 -498q86 23 138 68t52 106v15h-123q-20 25 -28 50.5t-8 49.5 q0 57 36 111h238q20 -41 28.5 -78t8.5 -72q0 -63 -25.5 -117.5t-69.5 -96.5t-100.5 -70.5t-117.5 -40.5z" />
<glyph unicode="&#x21a;" horiz-adv-x="1429" d="M1040 0h-651v115h211v1204h-367l-40 -45v-264h-148v424h1339v-424h-147v264l-41 45h-367v-1204h211v-115zM539 -498q86 23 138 63t52 101v15h-123q-20 25 -28 51t-8 55q0 61 36 115h259q35 -70 34 -142q0 -66 -28.5 -121t-74.5 -98t-106.5 -72.5t-121.5 -41.5z" />
<glyph unicode="&#x21b;" horiz-adv-x="856" d="M35 1075h182v256h215v-256h340v-131h-340v-598q0 -129 33 -182t106 -53q63 0 109.5 22.5t85.5 48.5l51 -80q-18 -18 -50 -39.5t-73 -40t-91 -30.5t-103 -12q-137 0 -210 70.5t-73 234.5v659h-182v131zM266 -498q86 23 138 68t52 106v15h-123q-20 25 -28 50.5t-8 49.5 q0 57 36 111h238q20 -41 28.5 -78t8.5 -72q0 -63 -25.5 -117.5t-69.5 -96.5t-100.5 -70.5t-117.5 -40.5z" />
<glyph unicode="&#x237;" horiz-adv-x="667" d="M244 973h-152v102h367v-948q0 -154 -42 -254t-99.5 -162.5t-116 -92.5t-90.5 -40l-56 88q27 12 59.5 38t61.5 73t48.5 121.5t19.5 187.5v887z" />
<glyph unicode="&#x2bc;" horiz-adv-x="575" d="M125 946q43 12 77.5 39t59 60.5t36 72.5t9.5 76h-117q-16 25 -26.5 50.5t-10.5 53.5q0 25 5.5 46.5t13.5 40t18 34.5h227q16 -41 26.5 -80t10.5 -79q0 -57 -19.5 -121t-57.5 -113q-31 -41 -85.5 -82t-130.5 -57z" />
<glyph unicode="&#x2c6;" horiz-adv-x="819" d="M188 1268l-65 35l256 401h59l258 -399l-65 -37l-232 229z" />
<glyph unicode="&#x2c7;" horiz-adv-x="870" d="M682 1651l66 -35l-285 -399h-60l-280 397l82 37l244 -226z" />
<glyph unicode="&#x2d8;" horiz-adv-x="874" d="M752 1548q-20 -49 -50 -96t-68 -84t-86 -60.5t-106 -23.5q-123 0 -200.5 76t-118.5 192l65 29q18 -31 49 -56.5t67 -44t74 -29.5t73 -11q74 0 137 33.5t108 99.5z" />
<glyph unicode="&#x2d9;" horiz-adv-x="681" d="M199 1407q0 59 42 94t107 35q70 0 110 -35t40 -94t-40 -94t-110 -35q-66 0 -107.5 35t-41.5 94z" />
<glyph unicode="&#x2da;" horiz-adv-x="694" d="M123 1468q0 88 65.5 148.5t165.5 60.5q92 0 154.5 -54t62.5 -148q0 -43 -18 -80t-48 -63.5t-70 -42t-83 -15.5q-104 0 -166.5 52t-62.5 142zM246 1473q0 -53 30.5 -81t67.5 -28q45 0 75 24.5t30 77.5q0 59 -29 90t-74 31q-53 0 -76.5 -30.5t-23.5 -83.5z" />
<glyph unicode="&#x2db;" horiz-adv-x="962" d="M856 43q-55 -25 -102 -48.5t-82 -51t-55.5 -63.5t-20.5 -85q0 -41 29.5 -74.5t101.5 -33.5q61 0 121 20v-74q-33 -18 -83 -30.5t-91 -12.5q-135 0 -205 44t-70 126q0 57 29 99.5t78 74t116.5 57l145.5 52.5h88z" />
<glyph unicode="&#x2dc;" horiz-adv-x="954" d="M831 1444q-74 -70 -136 -95.5t-113 -25.5q-41 0 -78 11.5t-72 24.5l-67.5 24.5t-67.5 11.5q-29 0 -60.5 -11.5t-68.5 -42.5l-45 66q86 74 152.5 100.5t119.5 26.5q41 0 77 -11.5t69 -23.5l65 -23q33 -11 68 -12q29 0 59.5 9.5t65.5 33.5z" />
<glyph unicode="&#x2dd;" horiz-adv-x="1021" d="M297 1651l199 -45v-54l-318 -266l-55 33zM698 1651l201 -60v-51l-459 -254l-47 37z" />
<glyph unicode="&#x301;" horiz-adv-x="4" d="M-464 1536h258v-84l-402 -240l-57 48z" />
<glyph unicode="&#x394;" horiz-adv-x="1490" d="M45 0v66l674 1368h67l660 -1368v-66h-1401zM705 1145l-494 -1018h960z" />
<glyph unicode="&#x2206;" horiz-adv-x="1490" d="M45 0v66l674 1368h67l660 -1368v-66h-1401zM705 1145l-494 -1018h960z" />
<glyph unicode="&#x3a9;" horiz-adv-x="1832" d="M129 0v299h131v-139h422q-102 33 -194.5 89t-163 134t-111.5 176t-41 217q0 154 53.5 280t151.5 215t239.5 137t317.5 48q178 0 314 -47t229.5 -133t141.5 -208t48 -271q0 -127 -45 -231.5t-116.5 -185.5t-160 -136.5t-174.5 -83.5h408v139h131v-299h-659v174 q55 20 117.5 69.5t116.5 125t90 177t36 226.5q0 119 -28.5 224.5t-88 184.5t-149.5 124t-211 45q-137 0 -233.5 -45t-157 -121t-88 -176.5t-27.5 -212.5q0 -127 38 -231.5t95 -184.5t123 -132t121 -73v-174h-676z" />
<glyph unicode="&#x2126;" horiz-adv-x="1832" d="M129 0v299h131v-139h422q-102 33 -194.5 89t-163 134t-111.5 176t-41 217q0 154 53.5 280t151.5 215t239.5 137t317.5 48q178 0 314 -47t229.5 -133t141.5 -208t48 -271q0 -127 -45 -231.5t-116.5 -185.5t-160 -136.5t-174.5 -83.5h408v139h131v-299h-659v174 q55 20 117.5 69.5t116.5 125t90 177t36 226.5q0 119 -28.5 224.5t-88 184.5t-149.5 124t-211 45q-137 0 -233.5 -45t-157 -121t-88 -176.5t-27.5 -212.5q0 -127 38 -231.5t95 -184.5t123 -132t121 -73v-174h-676z" />
<glyph unicode="&#x3c0;" horiz-adv-x="1419" d="M1282 102v-102h-381v938h-430v-403q0 -72 -6 -146t-18.5 -143.5t-30 -133t-37.5 -112.5h-246q45 80 86 196.5t72 247.5t49 260.5t18 233.5h-39q-66 0 -116.5 -30.5t-104.5 -96.5l-57 29q12 55 32.5 101t57.5 79t97.5 50t154.5 17q25 0 93.5 -2t159.5 -4t194.5 -4 t197.5 -2q74 0 123 1t83 7.5t56.5 17.5t44.5 29l33 -18q-10 -72 -60.5 -123t-148.5 -51h-29v-836h152z" />
<glyph unicode="&#x401;" horiz-adv-x="1320" d="M1155 1434v-336h-131v176l-41 45h-502v-531h346l31 31v86h131v-350h-131v86l-31 33h-346v-559h537l41 41v200h131v-356h-1124v115h186v1204h-186v115h1089zM273 1630q0 59 38 89t95 30q59 0 98 -29.5t39 -89.5q0 -53 -39 -81.5t-98 -28.5q-57 0 -95 28.5t-38 81.5z M789 1630q0 59 39 89t94 30q59 0 98 -29.5t39 -89.5q0 -53 -39 -81.5t-98 -28.5q-55 0 -94 28.5t-39 81.5z" />
<glyph unicode="&#x402;" horiz-adv-x="1724" d="M969 0h-604v115h215v1204h-367l-41 -45v-264h-147v424h1339v-424h-147v264l-41 45h-367v-522q63 31 165.5 61.5t235.5 30.5q94 0 175 -17.5t138.5 -62.5t90.5 -123t33 -201q0 -154 -36 -249t-99.5 -149t-152.5 -73.5t-194 -19.5l-8 76q55 10 102.5 32.5t83 67.5t55 115.5 t19.5 179.5q0 143 -63.5 228t-212.5 85q-96 0 -182.5 -23.5t-149.5 -58.5v-581h160v-115z" />
<glyph unicode="&#x403;" horiz-adv-x="1140" d="M66 1319v115h1050v-424h-147v264l-41 45h-447v-1204h221v-115h-636v115h186v1204h-186zM828 1872l252 -68v-82l-524 -147l-27 49z" />
<glyph unicode="&#x404;" horiz-adv-x="1429" d="M1165 377h131v-322q-63 -35 -167.5 -57.5t-206.5 -22.5q-188 0 -338 43t-253.5 134.5t-158.5 230.5t-55 334q0 201 61.5 341t166 229t241.5 130t288 41q74 0 133.5 -5t107.5 -15.5t89 -24.5t80 -31v-350h-131v215l-29 41q-23 10 -70.5 24.5t-154.5 14.5 q-102 0 -193.5 -29.5t-160 -93t-113.5 -163t-55 -238.5h688v-131h-692q12 -272 160.5 -419t404.5 -147q74 0 124 11.5t75 29.5l28 39v191z" />
<glyph unicode="&#x405;" horiz-adv-x="1220" d="M258 201l37 -49q37 -27 101.5 -44.5t142.5 -17.5q74 0 136 15.5t109 46t74 77.5t27 113q0 84 -56.5 139.5t-140.5 98.5t-182 84t-182 96t-140.5 133t-56.5 197q0 174 132 271t357 97q141 0 244 -18.5t174 -48.5v-353h-131v222l-33 51q-39 16 -112.5 24t-145.5 8 q-123 0 -192.5 -56t-69.5 -159q0 -84 56.5 -140t140.5 -101t182 -87t182 -96.5t140.5 -130t56.5 -188.5q0 -199 -153.5 -304.5t-419.5 -105.5q-145 0 -252 31t-156 66v372h131v-243z" />
<glyph unicode="&#x406;" horiz-adv-x="815" d="M709 0h-603v115h187v1204h-187v115h603v-115h-187v-1204h187v-115z" />
<glyph unicode="&#x407;" horiz-adv-x="815" d="M66 1616q0 51 37.5 76.5t95.5 25.5q59 0 98 -25.5t39 -76.5q0 -47 -39 -71.5t-98 -24.5q-57 0 -95 24.5t-38 71.5zM477 1616q0 51 39 76.5t94 25.5q59 0 98.5 -25.5t39.5 -76.5q0 -47 -39 -71.5t-99 -24.5q-55 0 -94 24.5t-39 71.5zM709 0h-603v115h187v1204h-187v115 h603v-115h-187v-1204h187v-115z" />
<glyph unicode="&#x408;" horiz-adv-x="778" d="M74 -231q35 16 67.5 39.5t58 65.5t41 109.5t15.5 176.5v1159h-170v115h586v-115h-187v-1139q0 -145 -37.5 -238.5t-93 -149.5t-119 -82.5t-114.5 -37.5z" />
<glyph unicode="&#x409;" horiz-adv-x="2115" d="M1262 854q41 6 100 10t106 4q115 0 218.5 -18.5t181.5 -66.5t124 -130t46 -207q0 -121 -48 -205.5t-131 -140t-193 -81t-234 -25.5q-10 0 -35 1t-57.5 2t-70.5 2t-73 1h-350v115h186v1204h-428q-10 -289 -31.5 -482.5t-49 -325.5t-62.5 -217t-72 -155q-18 -35 -45 -69 l-55 -70h-238v258h238q31 51 62.5 136t56 213t40 304t15.5 408h-213v115h1216v-115h-204v-465zM1417 754q-55 0 -91 -3t-64 -10v-622q12 -4 33.5 -5t46 -3t47.5 -2h34q78 0 143.5 18t114 59t75 105.5t26.5 157.5q0 166 -91.5 235.5t-273.5 69.5z" />
<glyph unicode="&#x40a;" horiz-adv-x="2283" d="M1427 813q41 6 100.5 10t106.5 4q113 0 216.5 -18t182 -64.5t126 -125t47.5 -199.5q0 -117 -52.5 -199t-138.5 -132t-194.5 -72.5t-221.5 -22.5q-12 0 -44.5 1t-75.5 2l-88 2q-45 1 -80 1h-283v115h170v563h-717v-563h170v-115h-585v115h186v1204h-186v115h585v-115h-170 v-526h717v526h-170v115h606v-115h-207v-506zM1581 713q-53 0 -89 -2t-65 -11v-581q10 -4 32 -5t46.5 -3t46.5 -2h35q78 0 144.5 17t114.5 54t76 96.5t28 145.5q0 141 -91.5 216t-277.5 75z" />
<glyph unicode="&#x40b;" horiz-adv-x="1814" d="M969 0h-604v115h215v1204h-367l-41 -45v-264h-147v424h1339v-424h-147v264l-41 45h-367v-524q63 33 155.5 62.5t221.5 29.5q96 0 174 -16.5t132 -59.5t83 -116.5t29 -188.5v-391h186v-115h-416v459q0 72 -11 129t-41 98t-79 63.5t-123 22.5q-98 0 -173 -24.5t-138 -59.5 v-573h160v-115z" />
<glyph unicode="&#x40c;" horiz-adv-x="1458" d="M614 782l447 537h-166v115h506v-115h-162l-487 -547l579 -657h127v-115h-330l-538 680h-109v-565h170v-115h-585v115h186v1204h-186v115h585v-115h-170v-537h133zM940 1872l252 -68v-82l-524 -147l-27 49z" />
<glyph unicode="&#x40e;" horiz-adv-x="1519" d="M1196 1319h-190v115h514v-115h-166l-441 -907q-63 -129 -123.5 -234.5t-121.5 -177.5h-195v252h227q33 49 48 94l-574 973h-174v115h614v-115h-184l375 -668l47 -131h4l47 135zM814 1522q-211 0 -311.5 69.5t-100.5 212.5h237v-162q29 -14 76 -21t101 -7q39 0 92 6t84 16 v168h227q0 -141 -95 -211.5t-310 -70.5z" />
<glyph unicode="&#x40f;" horiz-adv-x="1654" d="M1174 115v1204h-170v115h585v-115h-186v-1204h186v-115h-680v-410h-164v410h-679v115h186v1204h-186v115h585v-115h-170v-1204h693z" />
<glyph unicode="&#x410;" horiz-adv-x="1546" d="M502 0h-502v115h160l530 1319h217l486 -1319h153v-115h-585v115h182l-133 360h-545l-139 -360h176v-115zM512 590h463l-168 473l-51 217h-8l-60 -221z" />
<glyph unicode="&#x411;" horiz-adv-x="1361" d="M481 834q41 4 101.5 9t107.5 5q113 0 216.5 -21.5t183 -70.5t127 -130t47.5 -200q0 -113 -49.5 -193.5t-133.5 -134t-193.5 -79t-232.5 -25.5q-12 0 -47 1t-79 2l-91 2q-47 1 -82 1h-290v115h186v1204h-186v115h1099v-375h-147v215l-41 45h-496v-485zM637 733 q-53 0 -90 -2t-66 -10v-602q10 -4 33 -5t47.5 -3t46.5 -2h35q80 0 146.5 18t114.5 58t76 99.5t28 143.5q0 150 -92.5 227.5t-278.5 77.5z" />
<glyph unicode="&#x412;" horiz-adv-x="1413" d="M66 0v115h186v1204h-186v115h268q43 0 82 2t82 4t93 4t111 2q90 0 184.5 -13.5t170.5 -50t124 -103.5t48 -173q0 -55 -19.5 -108.5t-57.5 -98.5t-95.5 -80t-132.5 -51v-8q68 -10 135 -35t121.5 -67t87 -103t32.5 -147q0 -111 -54 -191t-142 -131t-199.5 -74.5 t-226.5 -23.5q-80 0 -179.5 6t-191.5 6h-241zM694 102q80 0 148.5 21.5t118 60.5t77 93.5t27.5 119.5q0 82 -34 136.5t-90 86t-132 44t-160 12.5h-168v-555q31 -8 75 -13.5t138 -5.5zM592 782q41 0 91 3t85 8q104 33 167.5 105.5t63.5 170.5q0 135 -86 198.5t-233 63.5 q-70 0 -118 -3t-81 -7v-539h111z" />
<glyph unicode="&#x413;" horiz-adv-x="1140" d="M66 1319v115h1050v-424h-147v264l-41 45h-447v-1204h221v-115h-636v115h186v1204h-186z" />
<glyph unicode="&#x414;" horiz-adv-x="1574" d="M1493 1319h-186v-1204h213v-447h-154v287l-41 45h-1110l-41 -45v-287h-154v447h201q57 86 108.5 221t89.5 296t60.5 338t22.5 349h-221v115h1212v-115zM1077 115v1204h-434q-12 -252 -42 -447.5t-67.5 -343t-79.5 -249t-75 -164.5h698z" />
<glyph unicode="&#x415;" horiz-adv-x="1320" d="M1155 1434v-336h-131v176l-41 45h-502v-531h346l31 31v86h131v-350h-131v86l-31 33h-346v-559h537l41 41v200h131v-356h-1124v115h186v1204h-186v115h1089z" />
<glyph unicode="&#x416;" horiz-adv-x="2156" d="M825 680l-512 -680h-313v115h123l272 319l100 117l87 102l62 73l24 28l-457 565h-160v115h510v-115h-153l399 -537h154v537h-158v115h536v-115h-157v-537h161l402 537h-164v115h510v-115h-174l-440 -549l557 -655h123v-115h-314l-522 680h-139v-565h157v-115h-536v115 h158v565h-136z" />
<glyph unicode="&#x417;" horiz-adv-x="1251" d="M535 -25q-127 0 -236 22.5t-186 57.5v342h131v-229l30 -39q18 -10 50 -17.5t68 -12.5t73 -7t65 -2q84 0 153 22.5t117 63.5t74.5 97.5t26.5 123.5q0 80 -27.5 133.5t-73.5 85t-107.5 44t-129.5 12.5h-178v131h260q104 33 159.5 100.5t55.5 165.5q0 133 -83 203.5 t-234 70.5q-68 0 -132.5 -12t-91.5 -28l-26 -39v-203h-131v313q37 25 84 40.5t99 25.5t105.5 14t102.5 4q94 0 189.5 -14t172 -54t126 -109t49.5 -175q0 -104 -69 -196.5t-216 -141.5v-8q70 -10 130 -36t105 -68t71 -103t26 -145q0 -111 -49.5 -193t-132.5 -135t-191 -79 t-229 -26z" />
<glyph unicode="&#x418;" horiz-adv-x="1705" d="M651 0h-585v115h186v1204h-186v115h585v-115h-170v-879l-24 -153l110 162l670 825v45h-186v115h589v-115h-186v-1204h186v-115h-589v115h174v876l22 154l-100 -154l-680 -835v-41h184v-115z" />
<glyph unicode="&#x419;" horiz-adv-x="1705" d="M651 0h-585v115h186v1204h-186v115h585v-115h-170v-879l-24 -153l110 162l670 825v45h-186v115h589v-115h-186v-1204h186v-115h-589v115h174v876l22 154l-100 -154l-680 -835v-41h184v-115zM865 1522q-211 0 -311.5 69.5t-100.5 212.5h237v-162q29 -14 76 -21t101 -7 q39 0 92 6t84 16v168h227q0 -141 -95 -211.5t-310 -70.5z" />
<glyph unicode="&#x41a;" horiz-adv-x="1458" d="M614 782l447 537h-166v115h506v-115h-162l-487 -547l579 -657h127v-115h-330l-538 680h-109v-565h170v-115h-585v115h186v1204h-186v115h585v-115h-170v-537h133z" />
<glyph unicode="&#x41b;" horiz-adv-x="1513" d="M604 1319q-10 -289 -31.5 -482.5t-49 -325.5t-62.5 -217t-72 -155q-18 -35 -45 -69l-55 -70h-238v258h238q31 51 62.5 136t56 213t40 304t15.5 408h-213v115h1198v-115h-186v-1204h186v-115h-592v115h176v1204h-428z" />
<glyph unicode="&#x41c;" horiz-adv-x="2015" d="M66 1319v115h466l484 -918l493 918h441v-115h-187v-1204h187v-115h-594v115h186v913q2 10 3 48t3 81q2 51 4 111h-18l-88 -219l-420 -742h-125l-409 742l-91 239h-20v-127q0 -47 1 -89t1 -44v-913h174v-115h-491v115h186v1204h-186z" />
<glyph unicode="&#x41d;" horiz-adv-x="1679" d="M651 115v-115h-585v115h186v1204h-186v115h585v-115h-170v-526h717v526h-170v115h586v-115h-187v-1204h187v-115h-586v115h170v563h-717v-563h170z" />
<glyph unicode="&#x41e;" horiz-adv-x="1699" d="M117 717q0 160 49 296t142 235.5t229.5 154.5t310.5 55t311 -55t231.5 -154.5t143.5 -235.5t49 -296t-49 -296t-143.5 -235.5t-231.5 -155t-311 -55.5t-310.5 55.5t-229.5 155t-142 235.5t-49 296zM373 717q0 -131 29.5 -246t91 -199t154.5 -133t220 -49q117 0 203 49 t142.5 133t85 199t28.5 246t-29.5 245.5t-91 198.5t-155 133t-222.5 49q-123 0 -210 -49t-142 -133t-79.5 -198.5t-24.5 -245.5z" />
<glyph unicode="&#x41f;" horiz-adv-x="1654" d="M481 1319v-1204h170v-115h-585v115h186v1204h-186v115h1523v-115h-186v-1204h186v-115h-585v115h170v1204h-693z" />
<glyph unicode="&#x420;" horiz-adv-x="1366" d="M66 1319v115h213q92 0 199.5 8t207.5 8q113 0 221.5 -21.5t192.5 -72.5t136 -136t52 -212q0 -121 -53 -208t-140 -142.5t-201 -82t-235 -26.5h-36q-25 0 -52.5 1t-52 3t-37.5 4v-442h205v-115h-620v115h186v1204h-186zM481 674q10 -4 32 -5t46.5 -3t47.5 -2h36 q80 0 150.5 19t124 60t84 106.5t30.5 158.5q0 168 -105.5 247.5t-287.5 79.5q-55 0 -92 -3t-66 -9v-649z" />
<glyph unicode="&#x421;" horiz-adv-x="1431" d="M1165 377h131v-322q-63 -35 -167.5 -57.5t-206.5 -22.5q-188 0 -338 43t-253.5 134.5t-158.5 230.5t-55 334q0 201 61.5 341t166 229t241.5 130t288 41q74 0 133.5 -5t107.5 -15.5t89 -24.5t80 -31v-350h-131v215l-29 41q-23 10 -70.5 24.5t-154.5 14.5q-111 0 -207 -35 t-166.5 -108.5t-111.5 -189t-41 -277.5q0 -293 148.5 -452t416.5 -159q74 0 124 11.5t75 29.5l28 39v191z" />
<glyph unicode="&#x422;" horiz-adv-x="1429" d="M1040 0h-651v115h211v1204h-367l-40 -45v-264h-148v424h1339v-424h-147v264l-41 45h-367v-1204h211v-115z" />
<glyph unicode="&#x423;" horiz-adv-x="1519" d="M1196 1319h-190v115h514v-115h-166l-441 -907q-63 -129 -123.5 -234.5t-121.5 -177.5h-195v252h227q33 49 48 94l-574 973h-174v115h614v-115h-184l375 -668l47 -131h4l47 135z" />
<glyph unicode="&#x424;" horiz-adv-x="1812" d="M649 1235q31 0 77 -2t75 -6v92h-160v115h530v-115h-159v-98q41 8 99 11t97 3q111 0 207 -30.5t167 -91t112 -150t41 -205.5q0 -131 -50.5 -231.5t-131 -168t-182 -102.5t-204.5 -35q-12 0 -32 1l-43 2q-23 1 -44.5 4t-35.5 8v-121h159v-115h-530v115h160v116 q-45 -6 -98.5 -8t-98.5 -2q-92 0 -186 31t-170 94.5t-123 160.5t-47 230q0 123 47 216.5t126 155.5t182 94t216 32zM1133 1124q-35 0 -64 -2t-59 -10v-774q23 -4 55.5 -5t52.5 -1q74 0 141.5 25.5t117.5 77.5t81 132t31 191q0 186 -91 276t-265 90zM692 332q29 0 53.5 2 t57.5 8v776q-59 6 -111 6q-72 0 -137.5 -19.5t-117.5 -64.5t-82.5 -119.5t-30.5 -183.5q0 -96 26.5 -170.5t75.5 -127t116.5 -80t149.5 -27.5z" />
<glyph unicode="&#x425;" horiz-adv-x="1548" d="M920 1434h516v-115h-168l-402 -551l471 -653h187v-115h-596v115h149l-360 506l-340 -506h158v-115h-515v115h173l448 606l-430 598h-182v115h610v-115h-164l318 -457l307 457h-180v115z" />
<glyph unicode="&#x426;" horiz-adv-x="1656" d="M1165 115v1204h-170v115h586v-115h-186v-1204h227v-447h-141v287l-41 45h-1374v115h186v1204h-186v115h585v-115h-170v-1204h684z" />
<glyph unicode="&#x427;" horiz-adv-x="1531" d="M1280 115h186v-115h-628v115h213v520q-63 -33 -166 -62.5t-236 -29.5q-96 0 -176 16t-138.5 59.5t-91 117t-32.5 188.5v395h-186v115h565v-115h-150v-348q0 -143 63.5 -228.5t215.5 -85.5q96 0 182 25t150 59v578h-170v115h585v-115h-186v-1204z" />
<glyph unicode="&#x428;" horiz-adv-x="2199" d="M66 1319v115h563v-115h-148v-1204h504v1204h-147v115h524v-115h-148v-1204h504v1204h-147v115h563v-115h-186v-1204h186v-115h-2068v115h186v1204h-186z" />
<glyph unicode="&#x429;" horiz-adv-x="2211" d="M66 1319v115h563v-115h-148v-1204h504v1204h-147v115h524v-115h-148v-1204h504v1204h-147v115h563v-115h-186v-1204h229v-447h-141v287l-41 45h-1929v115h186v1204h-186z" />
<glyph unicode="&#x42a;" horiz-adv-x="1644" d="M760 854q41 6 100.5 10t106.5 4q115 0 223 -18.5t192 -66.5t134.5 -130t50.5 -207q0 -121 -53.5 -205.5t-141.5 -140t-202.5 -81t-239.5 -25.5q-10 0 -44 1t-77 2l-89 2q-46 1 -81 1h-295v115h186v1204h-317l-41 -45v-264h-131v424h924v-115h-205v-465zM915 754 q-55 0 -91 -3t-64 -10v-622q12 -4 33.5 -5t46 -3t47.5 -2h35q78 0 148.5 18t123.5 59t85 105.5t32 157.5q0 82 -28 140t-79 95t-125 53.5t-164 16.5z" />
<glyph unicode="&#x42b;" horiz-adv-x="1951" d="M66 1319v115h618v-115h-203v-465q45 6 102.5 10t104.5 4q113 0 216.5 -18.5t182 -65.5t126 -129t47.5 -209q0 -121 -52.5 -205.5t-138.5 -140t-195.5 -81t-222.5 -25.5q-10 0 -43 1t-76 2l-88 2q-45 1 -79 1h-299v115h186v1204h-186zM1292 1319v115h594v-115h-186v-1204 h186v-115h-594v115h178v1204h-178zM635 754q-53 0 -89 -3t-65 -10v-622q10 -4 32 -5t46.5 -3t46.5 -2h35q80 0 146.5 20.5t114.5 62t75 106t27 151.5q0 305 -369 305z" />
<glyph unicode="&#x42c;" horiz-adv-x="1366" d="M481 854q41 6 100.5 10t106.5 4q115 0 223.5 -18.5t192.5 -66.5t134 -130t50 -207q0 -121 -53 -205.5t-141 -140t-203 -81t-240 -25.5q-10 0 -44 1t-77 2l-89 2q-46 1 -81 1h-294v115h186v1204h-186v115h620v-115h-205v-465zM637 754q-55 0 -91 -3t-65 -10v-622 q12 -4 34 -5t46.5 -3t46.5 -2h35q78 0 148.5 18t124 59t85 105.5t31.5 157.5q0 82 -27.5 140t-79 95t-125 53.5t-163.5 16.5z" />
<glyph unicode="&#x42d;" horiz-adv-x="1404" d="M414 672v131h624q-37 524 -540 524q-68 0 -117 -12t-72 -27l-28 -41v-188h-131v315q74 47 175 65.5t199 18.5q180 0 321.5 -42t240 -131t150.5 -226t52 -326q0 -195 -60.5 -337t-161.5 -236t-236.5 -139.5t-282.5 -45.5q-74 0 -134.5 4.5t-109.5 13.5t-90 22.5t-80 31.5 v354h131v-215l31 -43q29 -14 87 -25.5t114 -11.5q102 0 199.5 31t173 98.5t121.5 175t48 261.5h-624z" />
<glyph unicode="&#x42e;" horiz-adv-x="2228" d="M66 1319v115h589v-115h-174v-526h271q8 141 55 263t132 211t207 140t279 51q172 0 301 -55t214 -154.5t128 -235.5t43 -296q0 -158 -43 -294t-129 -235.5t-215 -156t-299 -56.5t-294.5 52.5t-207.5 145.5t-126 222t-47 283h-269v-563h174v-115h-589v115h186v1204h-186z M997 717q0 -133 23.5 -248t77 -199t139.5 -132t209 -48q115 0 193.5 49t127 133t68.5 199t20 246t-22.5 245.5t-74.5 198.5t-138 133t-215 49q-123 0 -202 -49t-125 -133t-63.5 -198.5t-17.5 -245.5z" />
<glyph unicode="&#x42f;" horiz-adv-x="1454" d="M1389 1434v-115h-187v-1204h187v-115h-615v115h199v483h-230l-391 -598h-332v115h127l390 497q-72 16 -133.5 49t-107.5 83.5t-72.5 118t-26.5 153.5q0 113 53 193.5t142 132t205 75t239 23.5q47 0 115.5 -3t140.5 -3h297zM815 705q41 0 85 3t73 9v598q-23 4 -64 7t-75 3 q-174 0 -277.5 -70.5t-103.5 -238.5q0 -154 89 -232.5t273 -78.5z" />
<glyph unicode="&#x430;" horiz-adv-x="1165" d="M950 285q0 -47 2 -95.5t6 -87.5h136v-102h-322l-20 195h-11q-10 -41 -37.5 -80t-69.5 -70t-99.5 -49.5t-126.5 -18.5q-70 0 -128.5 20.5t-101.5 57.5t-66.5 89.5t-23.5 117.5q0 100 42 166t124 103.5t205 54t286 18.5q4 33 5 63v58q0 127 -43 193.5t-154 66.5 q-41 0 -88 -4t-86 -25v-188h-184v227q74 39 174 70t235 31q117 0 187.5 -30t108.5 -78t49.5 -108.5t11.5 -119.5q0 -129 -5.5 -246.5t-5.5 -228.5zM502 115q49 0 88 15t68.5 39t51 52.5t35.5 54.5v244q-133 0 -216 -17.5t-130 -46t-64.5 -68.5t-17.5 -85q0 -92 49.5 -140 t135.5 -48z" />
<glyph unicode="&#x431;" horiz-adv-x="1245" d="M92 565q0 274 54.5 452.5t160 282t261 143.5t358.5 40v73h131v-270h-281q-115 0 -213 -21.5t-172 -78t-121 -153.5t-55 -249h12q55 113 176 189t285 76q215 0 340 -128t125 -378q0 -125 -37 -228.5t-107.5 -178.5t-172 -115.5t-230.5 -40.5q-115 0 -210 38.5 t-162.5 113.5t-104.5 184.5t-37 248.5zM324 563q0 -135 24.5 -227t68.5 -150.5t102.5 -84t125.5 -25.5q135 0 206 112.5t71 327.5q0 106 -24 182t-63.5 125t-93 72t-114.5 23q-104 0 -174 -32t-107 -73q-12 -55 -17 -114.5t-5 -135.5z" />
<glyph unicode="&#x432;" horiz-adv-x="1218" d="M1110 313q0 -86 -41 -146.5t-109.5 -99t-160.5 -57t-193 -18.5q-74 0 -119 1t-74.5 3t-51 3t-48.5 1h-225v102h152v871h-152v102h213q53 0 93 1t76 3t69.5 3t76.5 1q201 0 316 -56t115 -200q0 -51 -24 -93t-61.5 -72.5t-84 -51t-89.5 -28.5q63 -6 122 -24.5t104 -51.5 t70.5 -81.5t25.5 -111.5zM455 96q33 -6 80 -7t79 -1q133 0 199 55.5t66 155.5q0 104 -79 155.5t-204 51.5h-141v-410zM455 590h252q20 8 41.5 27.5t40 46t30.5 62.5t12 79q0 104 -66.5 143t-195.5 39q-25 0 -58.5 -1t-55.5 -7v-389z" />
<glyph unicode="&#x433;" horiz-adv-x="995" d="M944 1075v-358h-131v215l-41 41h-317v-871h207v-102h-574v102h152v871h-152v102h856z" />
<glyph unicode="&#x434;" horiz-adv-x="1320" d="M227 0l-41 -41v-266h-147v409h137q27 31 61.5 90.5t65.5 162t52.5 254t21.5 364.5h-160v102h985v-102h-151v-871h184v-409h-148v266l-40 41h-820zM508 967q-2 -195 -22.5 -338.5t-49 -246.5t-60.5 -171t-57 -109h517v865h-328z" />
<glyph unicode="&#x435;" horiz-adv-x="1159" d="M1022 141q-53 -76 -150.5 -120t-226.5 -44q-135 0 -238.5 40t-173 113t-105.5 176.5t-36 230.5q0 274 137.5 416.5t384.5 142.5q82 0 161 -20.5t140.5 -67.5t99.5 -125t38 -193q0 -35 -4.5 -73.5t-12.5 -81.5h-712q0 -90 23.5 -164t71.5 -127.5t119.5 -83t170.5 -29.5 q80 0 148.5 26.5t109.5 61.5zM606 999q-63 0 -111.5 -18t-83 -61t-55 -114t-26.5 -175h493q2 18 3 37.5t1 36.5q0 135 -54 214.5t-167 79.5z" />
<glyph unicode="&#x436;" horiz-adv-x="1667" d="M1217 1075h407v-102h-129l-299 -375l375 -496h96v-102h-278l-342 500h-111v-398h121v-102h-447v102h121v398h-121l-329 -500h-281v102h106l361 488l-315 383h-107v102h401v-102h-120l290 -391h115v391h-121v102h447v-102h-121v-391h115l286 391h-120v102z" />
<glyph unicode="&#x437;" horiz-adv-x="1089" d="M500 90q59 0 104 18.5t76 49t46 69.5t15 78q0 94 -47 132t-129 50h-215v111h232q20 8 42.5 25.5t42 44t32 61.5t12.5 80q0 102 -59.5 139t-159.5 37q-51 0 -90.5 -4t-51.5 -10l-39 -45v-178h-131v274q47 25 126 49.5t224 24.5q190 0 293 -60.5t103 -185.5 q0 -53 -22.5 -96t-59.5 -77t-82 -57.5t-90 -35.5q63 -6 117.5 -25.5t95.5 -52.5t64.5 -80t23.5 -107q0 -86 -34 -149.5t-95.5 -105t-147.5 -63t-192 -21.5q-119 0 -210 37.5t-151 91.5v204h131v-141l35 -45q23 -14 68 -25.5t123 -11.5z" />
<glyph unicode="&#x438;" horiz-adv-x="1415" d="M88 1075h492v-102h-136v-631l-12 -221h12l78 182l406 772h399v-102h-151v-871h151v-102h-491v102h135v656l22 211h-12l-86 -203l-412 -766h-395v102h152v871h-152v102z" />
<glyph unicode="&#x439;" horiz-adv-x="1415" d="M88 1075h492v-102h-136v-631l-12 -221h12l78 182l406 772h399v-102h-151v-871h151v-102h-491v102h135v656l22 211h-12l-86 -203l-412 -766h-395v102h152v871h-152v102zM731 1204q-74 0 -139.5 13.5t-115.5 37t-84 53t-46 64.5v119h233v-162q27 -18 64 -25.5t90 -7.5 q55 0 89 5.5t67 21.5v168h223v-119q-6 -35 -39 -65.5t-85 -53t-117.5 -36t-139.5 -13.5z" />
<glyph unicode="&#x43a;" horiz-adv-x="1249" d="M752 1075h424v-102h-132l-317 -367l418 -504h102v-102h-295l-381 508h-116v-406h147v-102h-514v102h152v871h-152v102h481v-102h-114v-381h106l320 381h-129v102z" />
<glyph unicode="&#x43b;" horiz-adv-x="1253" d="M238 219q39 51 65.5 136t42.5 187.5t23.5 214t7.5 216.5h-160v102h948v-102h-151v-871h151v-102h-501v102h135v871h-299q-2 -193 -23.5 -352.5t-58.5 -283.5t-85 -209t-104 -128h-184v219h193z" />
<glyph unicode="&#x43c;" horiz-adv-x="1695" d="M489 0h-409v102h151v871h-145v102h455l297 -659h6l307 659h444v-102h-151v-871h151v-102h-491v102h135v871h-18l-394 -830h-63l-391 830h-19v-871h135v-102z" />
<glyph unicode="&#x43d;" horiz-adv-x="1411" d="M590 0h-502v102h152v871h-152v102h502v-102h-135v-373h501v373h-135v102h502v-102h-152v-871h152v-102h-502v102h135v387h-501v-387h135v-102z" />
<glyph unicode="&#x43e;" horiz-adv-x="1273" d="M92 537q0 135 39 239.5t109.5 175t172 107.5t224.5 37q143 0 246.5 -40t169 -113t97.5 -176t32 -230q0 -135 -38 -238.5t-108.5 -174.5t-172 -107.5t-226.5 -36.5q-139 0 -241.5 39.5t-170 112.5t-100.5 175.5t-33 229.5zM324 537q0 -98 18 -182.5t60 -146t109 -97 t163 -35.5q121 0 198.5 110.5t77.5 350.5q0 98 -18.5 183t-58 147.5t-102 97t-153.5 34.5q-135 0 -214.5 -110t-79.5 -352z" />
<glyph unicode="&#x43f;" horiz-adv-x="1409" d="M590 0h-502v102h152v871h-152v102h1233v-102h-152v-871h152v-102h-502v102h135v871h-499v-871h135v-102z" />
<glyph unicode="&#x440;" horiz-adv-x="1302" d="M588 -410h-518v103h151v1280h-151v102h366v-215h2q45 109 128 172.5t218 63.5q203 0 314.5 -125t111.5 -410q0 -135 -37.5 -243.5t-108.5 -184.5t-170 -116t-222 -40q-41 0 -73 2.5t-58.5 6.5t-52 12t-52.5 18v-323h152v-103zM705 958q-111 0 -175.5 -62t-93.5 -177v-600 q41 -27 91.5 -36t134.5 -9q76 0 135 35.5t100 100t62.5 154t21.5 197.5q0 88 -14.5 161t-46 125t-84.5 81.5t-131 29.5z" />
<glyph unicode="&#x441;" horiz-adv-x="1071" d="M987 137q-43 -59 -136 -109.5t-220 -50.5q-135 0 -236.5 40t-169 113t-100.5 176.5t-33 230.5q0 272 144.5 415.5t392.5 143.5q113 0 186.5 -14.5t134.5 -45.5v-266h-184v197q-31 18 -123 18q-78 0 -137.5 -22.5t-100 -73.5t-61 -137t-20.5 -211q0 -82 22.5 -157 t67.5 -131t113.5 -89t160.5 -33q49 0 87 10.5t66.5 21.5t51 25.5t43.5 30.5z" />
<glyph unicode="&#x442;" horiz-adv-x="1144" d="M831 0h-518v102h152v871h-209l-41 -41v-215h-131v358h977v-358h-131v215l-41 41h-209v-871h151v-102z" />
<glyph unicode="&#x443;" horiz-adv-x="1163" d="M96 973h-121v102h529v-102h-172l278 -680l41 -156h11l38 158l220 678h-125v102h393v-102h-131l-336 -973q-29 -84 -62.5 -154.5t-65.5 -125t-61.5 -88t-50.5 -42.5h-207v185h209q14 16 26.5 32.5t25 41t26.5 60.5t33 91h-76z" />
<glyph unicode="&#x444;" horiz-adv-x="1671" d="M1090 -410h-508v103h151v364q-35 -37 -85 -58.5t-116 -21.5q-98 0 -179 31t-139 94.5t-90 161.5t-32 236q0 154 33 266.5t93.5 185t146.5 108.5t192 36q57 0 105.5 -22.5t70.5 -45.5v406h-176v102h381v-520q35 35 92 57.5t121 22.5q96 0 175 -30t135.5 -90.5t87 -153.5 t30.5 -220q0 -164 -35 -281.5t-95 -194.5t-144 -113t-183 -36q-55 0 -105 18.5t-79 47.5v-350h152v-103zM586 88q37 0 78 10.5t71 38.5v811q-29 18 -61.5 27.5t-91.5 9.5q-57 0 -105.5 -22.5t-84.5 -70.5t-55.5 -124t-19.5 -184q0 -145 20.5 -240.5t56.5 -153t85.5 -80 t106.5 -22.5zM1094 985q-47 0 -87 -9t-71 -36v-813q29 -23 62.5 -31t88.5 -8q51 0 99.5 22.5t85.5 75t59.5 136.5t22.5 204q0 131 -16.5 220.5t-49.5 141.5t-82 74.5t-112 22.5z" />
<glyph unicode="&#x445;" horiz-adv-x="1196" d="M690 575l363 -473h121v-102h-500v102h137l-252 357l-254 -357h113v-102h-395v102h129l342 430l-344 441h-113v102h491v-102h-133l236 -326l229 326h-112v102h385v-102h-127z" />
<glyph unicode="&#x446;" horiz-adv-x="1415" d="M88 0v102h152v871h-152v102h502v-102h-135v-871h477v871h-135v102h501v-102h-151v-871h199v-409h-132v266l-40 41h-1086z" />
<glyph unicode="&#x447;" horiz-adv-x="1288" d="M33 1075h499v-102h-133v-266q0 -98 45 -159t152 -61q63 0 123.5 20.5t114.5 51.5v414h-134v102h500v-102h-151v-871h151v-102h-551v102h185v385q-55 -55 -132 -91t-190 -36q-156 0 -242 82t-86 222v309h-151v102z" />
<glyph unicode="&#x448;" horiz-adv-x="1923" d="M1468 102v871h-125v102h492v-102h-152v-871h152v-102h-1747v102h152v871h-152v102h487v-102h-120v-871h399v871h-121v102h457v-102h-121v-871h399z" />
<glyph unicode="&#x449;" horiz-adv-x="1949" d="M88 0v102h152v871h-152v102h487v-102h-120v-871h399v871h-121v102h457v-102h-121v-871h399v871h-125v102h492v-102h-152v-871h199v-409h-131v262l-41 45h-1622z" />
<glyph unicode="&#x44a;" horiz-adv-x="1333" d="M614 96q29 -2 58.5 -5t60.5 -3q133 0 208 61.5t75 194.5q0 61 -20.5 102t-55.5 67t-81 36t-97 10q-39 0 -76 -2t-72 -8v-453zM752 1075v-102h-138v-334q39 4 88.5 10t141.5 6q188 0 295.5 -75.5t107.5 -237.5q0 -86 -34.5 -150.5t-97 -109.5t-149.5 -67.5t-190 -22.5 q-63 0 -143 4t-168 4h-217v102h151v871h-188l-41 -41v-213h-131v356h713z" />
<glyph unicode="&#x44b;" horiz-adv-x="1724" d="M455 639q37 4 86 10t141 6q174 0 277.5 -75.5t103.5 -237.5q0 -86 -33 -150.5t-92 -109.5t-142 -67.5t-184 -22.5q-61 0 -142 4t-169 4h-213v102h152v871h-152v102h504v-102h-137v-334zM455 96q29 -2 59.5 -5t58.5 -3q258 0 258 256q0 61 -20 102t-53 66t-77 36t-89 11 q-31 0 -67 -2t-70 -8v-453zM1636 0h-501v102h135v871h-137v102h503v-102h-151v-871h151v-102z" />
<glyph unicode="&#x44c;" horiz-adv-x="1171" d="M455 639q37 4 87 10t142 6q188 0 294.5 -75.5t106.5 -237.5q0 -86 -34.5 -150.5t-97 -109.5t-148.5 -67.5t-191 -22.5q-61 0 -143 4t-170 4h-213v102h152v871h-152v102h504v-102h-137v-334zM455 96q29 -2 59.5 -5t58.5 -3q131 0 206 61.5t75 194.5q0 61 -20.5 102 t-55.5 66t-82 36t-98 11q-35 0 -72 -2t-71 -8v-453z" />
<glyph unicode="&#x44d;" horiz-adv-x="1130" d="M494 -20q-119 0 -205 37.5t-146 91.5v204h131v-139l31 -41q23 -12 67 -27.5t115 -15.5q154 0 237 105.5t83 289.5h-459v111h457q-4 115 -28.5 190.5t-67.5 121.5t-102.5 64.5t-129.5 18.5t-102.5 -8t-50.5 -16l-35 -41v-199h-131v293q31 16 63.5 30.5t74.5 25.5t95 18.5 t127 7.5q111 0 205 -29t164.5 -92t110.5 -167.5t40 -254.5q0 -154 -47 -263.5t-123.5 -180t-174 -103t-199.5 -32.5z" />
<glyph unicode="&#x44e;" horiz-adv-x="1814" d="M590 0h-502v102h152v871h-152v102h502v-102h-135v-373h225q6 119 45 212t106.5 155.5t160.5 95.5t206 33q260 0 392 -142.5t132 -423.5q0 -260 -135 -406.5t-389 -146.5q-111 0 -204 30t-161.5 92.5t-108.5 158.5t-44 231h-225v-387h135v-102zM905 537q0 -115 24.5 -202 t66.5 -145.5t98.5 -87t117.5 -28.5q147 0 213 120.5t66 342.5q0 236 -72.5 349t-230.5 113q-135 0 -209 -121.5t-74 -340.5z" />
<glyph unicode="&#x44f;" horiz-adv-x="1222" d="M145 760q0 72 26 132t79 103t138 67.5t204 24.5q27 0 77 -2t105 -4l107 -4q51 -2 82 -2h172v-102h-152v-871h152v-102h-502v102h135v340h-143l-310 -442h-315v102h115l303 351q-47 8 -95.5 31.5t-87 62.5t-64.5 92t-26 121zM768 979q-29 4 -76 8t-76 4 q-70 0 -116.5 -16.5t-75.5 -46t-41 -71.5t-12 -93q0 -104 82 -171t256 -67h59v453z" />
<glyph unicode="&#x451;" horiz-adv-x="1159" d="M1022 141q-53 -76 -150.5 -120t-226.5 -44q-135 0 -238.5 40t-173 113t-105.5 176.5t-36 230.5q0 274 137.5 416.5t384.5 142.5q82 0 161 -20.5t140.5 -67.5t99.5 -125t38 -193q0 -35 -4.5 -73.5t-12.5 -81.5h-712q0 -90 23.5 -164t71.5 -127.5t119.5 -83t170.5 -29.5 q80 0 148.5 26.5t109.5 61.5zM606 999q-63 0 -111.5 -18t-83 -61t-55 -114t-26.5 -175h493q2 18 3 37.5t1 36.5q0 135 -54 214.5t-167 79.5zM217 1409q0 59 36 95t95 36t95 -36t36 -95q0 -55 -36 -91t-95 -36t-95 36t-36 91zM721 1409q0 59 37.5 95t95.5 36q59 0 94 -36 t35 -95q0 -55 -35 -91t-94 -36q-57 0 -95 36t-38 91z" />
<glyph unicode="&#x452;" horiz-adv-x="1327" d="M51 1296h154v138h-174v102h389v-240h401v-112h-401v-400h2q47 100 148.5 169t242.5 69q80 0 145.5 -19.5t110.5 -70.5t69.5 -137t24.5 -220v-473q-4 -145 -47 -241.5t-99 -155.5t-112.5 -88t-89.5 -39l-59 96q27 12 60.5 37t62 71t49 118.5t20.5 185.5v446 q0 170 -45 261.5t-160 91.5q-61 0 -114.5 -20.5t-94 -53.5t-70.5 -73t-44 -79v-557h135v-102h-502v102h152v1082h-154v112z" />
<glyph unicode="&#x453;" horiz-adv-x="995" d="M944 1075v-358h-131v215l-41 41h-317v-871h207v-102h-574v102h152v871h-152v102h856zM643 1536h258v-84l-402 -240l-57 48z" />
<glyph unicode="&#x454;" horiz-adv-x="1099" d="M743 485h-417q8 -74 36.5 -138t77.5 -112.5t116 -76t153 -27.5q49 0 87 7t66.5 18.5t51 26t42.5 30.5l52 -82q-43 -59 -136.5 -106.5t-220.5 -47.5q-135 0 -239.5 40t-175 113t-107.5 176.5t-37 230.5q0 135 41 239.5t115 175t176 107.5t225 37q113 0 186.5 -14.5 t135.5 -45.5v-266h-131v166l-25 31q-16 10 -60 14t-91 4q-74 0 -134.5 -19.5t-104.5 -65.5t-69.5 -119.5t-31.5 -184.5h419v-111z" />
<glyph unicode="&#x455;" horiz-adv-x="995" d="M680 244q0 55 -41 97t-102.5 78t-133 71.5t-133 81.5t-102.5 108.5t-41 150.5q0 59 28.5 107.5t77 83.5t114 54.5t138.5 19.5q61 0 108.5 -4.5t86.5 -11.5t73.5 -17t71.5 -23v-276h-131v162l-39 45q-27 6 -57.5 10t-65.5 4q-98 0 -146 -38t-48 -95q0 -55 41 -96 t102.5 -77t133 -71t133 -79t102.5 -101t41 -137q0 -74 -34 -131.5t-92 -97t-137 -61t-167 -21.5q-98 0 -191.5 25.5t-146.5 60.5v268h131v-156l41 -43q27 -20 63.5 -32.5t96.5 -12.5q98 0 161.5 41t63.5 113z" />
<glyph unicode="&#x456;" horiz-adv-x="694" d="M610 0h-518v102h152v871h-152v102h367v-973h151v-102zM199 1407q0 59 42 94t107 35q70 0 110 -35t40 -94t-40 -94t-110 -35q-66 0 -107.5 35t-41.5 94z" />
<glyph unicode="&#x457;" horiz-adv-x="786" d="M82 1409q0 59 32.5 93t90.5 34q57 0 92 -34t35 -93q0 -53 -35 -88t-92 -35t-90 35t-33 88zM455 1409q0 59 33.5 93t91.5 34q57 0 91 -34t34 -93q0 -53 -34 -88t-91 -35t-91 35t-34 88zM657 0h-518v102h152v871h-152v102h367v-973h151v-102z" />
<glyph unicode="&#x458;" horiz-adv-x="667" d="M244 973h-152v102h367v-948q0 -154 -42 -254t-99.5 -162.5t-116 -92.5t-90.5 -40l-56 88q27 12 59.5 38t61.5 73t48.5 121.5t19.5 187.5v887zM197 1407q0 59 42 94t107 35q70 0 110 -35t40 -94t-40 -94t-110 -35q-66 0 -107.5 35t-41.5 94z" />
<glyph unicode="&#x459;" horiz-adv-x="1708" d="M1014 96q29 -2 59.5 -5t59.5 -3q258 0 258 256q0 61 -19.5 102t-52.5 66t-77 36t-91 11q-29 0 -65.5 -2t-71.5 -8v-453zM1014 639q39 4 88 10t141 6q174 0 276.5 -75.5t102.5 -237.5q0 -86 -33 -150.5t-92 -109.5t-142 -67.5t-181 -22.5q-61 0 -143.5 4t-170.5 4h-196 v102h135v871h-299q-2 -193 -23.5 -352.5t-58.5 -283.5t-85 -209t-104 -128h-184v219h193q39 51 65.5 136t42.5 187.5t23.5 214t7.5 216.5h-160v102h948v-102h-151v-334z" />
<glyph unicode="&#x45a;" horiz-adv-x="1867" d="M1174 96q29 -2 59.5 -5t58.5 -3q258 0 258 256q0 61 -19.5 102t-52 66t-76.5 36t-91 11q-29 0 -66 -2t-71 -8v-453zM1174 639q39 4 88 10t141 6q174 0 276.5 -75.5t102.5 -237.5q0 -86 -33 -150.5t-92.5 -109.5t-142 -67.5t-181.5 -22.5q-61 0 -143 4t-170 4h-197v102 h135v387h-503v-387h135v-102h-502v102h152v871h-152v102h502v-102h-135v-373h503v373h-137v102h502v-102h-152z" />
<glyph unicode="&#x45b;" horiz-adv-x="1353" d="M51 1296h154v138h-174v102h389v-240h401v-112h-401v-400h2q47 100 148.5 169t242.5 69q80 0 145.5 -19.5t110.5 -70.5t69.5 -137t24.5 -220v-473h152v-102h-367v532q0 170 -45 261.5t-160 91.5q-61 0 -114.5 -20.5t-94 -53.5t-70.5 -73t-44 -79v-557h135v-102h-502v102 h152v1082h-154v112z" />
<glyph unicode="&#x45c;" horiz-adv-x="1249" d="M752 1075h424v-102h-132l-317 -367l418 -504h102v-102h-295l-381 508h-116v-406h147v-102h-514v102h152v871h-152v102h481v-102h-114v-381h106l320 381h-129v102zM744 1536h258v-84l-402 -240l-57 48z" />
<glyph unicode="&#x45e;" horiz-adv-x="1163" d="M96 973h-121v102h529v-102h-172l278 -680l41 -156h11l38 158l220 678h-125v102h393v-102h-131l-336 -973q-29 -84 -62.5 -154.5t-65.5 -125t-61.5 -88t-50.5 -42.5h-207v185h209q14 16 26.5 32.5t25 41t26.5 60.5t33 91h-76zM625 1204q-74 0 -139.5 13.5t-115.5 37 t-84 53t-46 64.5v119h233v-162q27 -18 64 -25.5t90 -7.5q55 0 89 5.5t67 21.5v168h223v-119q-6 -35 -39 -65.5t-85 -53t-117.5 -36t-139.5 -13.5z" />
<glyph unicode="&#x45f;" horiz-adv-x="1388" d="M799 1075h501v-102h-151v-871h151v-102h-524v-408h-164v408h-524v102h152v871h-152v102h502v-102h-135v-871h479v871h-135v102z" />
<glyph unicode="&#x462;" horiz-adv-x="1632" d="M197 1149l-41 -45v-242h-131v402h491v98h-186v115h620v-115h-205v-98h578v-332h-131v172l-41 45h-406v-338q41 6 101.5 10t107.5 4q115 0 222.5 -15t191.5 -59t135 -123t51 -204q0 -121 -52 -203t-140 -132t-204 -72.5t-240 -22.5q-10 0 -35 1t-57.5 2t-70.5 2t-75 1 h-350v115h186v1034h-319zM903 711q-57 0 -91 -3t-67 -10v-579q29 -6 82.5 -8t81.5 -2q78 0 148.5 15t124 51t85 97.5t31.5 153.5q0 82 -27.5 137t-78.5 88t-124 46.5t-165 13.5z" />
<glyph unicode="&#x463;" horiz-adv-x="1349" d="M633 973v-334q37 4 87 10t142 6q188 0 295 -75.5t107 -237.5q0 -86 -35 -150.5t-97.5 -109.5t-148.5 -67.5t-190 -22.5q-61 0 -143.5 4t-170.5 4h-213v102h152v871h-191l-41 -41v-215h-131v358h363v359h-176v102h391v-461h401v-297h-131v154l-41 41h-229zM633 96 q29 -2 59.5 -5t59.5 -3q131 0 205.5 61.5t74.5 194.5q0 61 -20.5 102t-55 66t-82 36t-98.5 11q-35 0 -71.5 -2t-71.5 -8v-453z" />
<glyph unicode="&#x472;" horiz-adv-x="1699" d="M117 717q0 160 49 296t142 235.5t229.5 154.5t310.5 55t311 -55t231.5 -154.5t143.5 -235.5t49 -296t-49 -296t-143.5 -235.5t-231.5 -155t-311 -55.5t-310.5 55.5t-229.5 155t-142 235.5t-49 296zM373 715q53 55 108.5 89t108.5 50q45 14 96 14q59 -2 114.5 -23.5 t110 -47t108.5 -47t114 -21.5q35 0 91 4t103 33q-6 123 -39 228.5t-94 183t-151.5 121.5t-213.5 44t-210 -48t-142 -133t-79.5 -197.5t-24.5 -241.5v-8zM612 705q-49 0 -114.5 -13.5t-120.5 -66.5q8 -115 43 -213.5t96.5 -170t149.5 -111.5t202 -40q111 0 195 44t141.5 123 t88 185.5t34.5 229.5q-61 -57 -130 -82t-122 -25q-61 0 -119.5 21.5t-115 48.5t-114 48.5t-114.5 21.5z" />
<glyph unicode="&#x473;" horiz-adv-x="1273" d="M92 537q0 135 39 239.5t109.5 175t172 107.5t224.5 37q143 0 246.5 -40t169 -113t97.5 -176t32 -230q0 -135 -38 -238.5t-108.5 -174.5t-172 -107.5t-226.5 -36.5q-139 0 -241.5 39.5t-170 112.5t-100.5 175.5t-33 229.5zM821 569q27 0 60.5 12.5t68.5 34.5 q-6 82 -28.5 153t-63.5 122t-100.5 79.5t-139.5 28.5q-133 0 -212.5 -104t-83.5 -330q66 49 125 67.5t104 18.5q39 0 73.5 -13t66.5 -28.5t63.5 -28t66.5 -12.5zM455 520q-29 0 -64 -12t-67 -39q6 -86 28.5 -157.5t64.5 -124t105.5 -82t153.5 -29.5q59 0 110.5 26.5t88 82 t58 140.5t21.5 201q-59 -47 -115.5 -67.5t-107.5 -20.5q-41 0 -75.5 12.5t-68.5 28t-66.5 28.5t-65.5 13z" />
<glyph unicode="&#x474;" horiz-adv-x="1572" d="M1288 1434h295v-258h-229l-418 -1176h-227l-533 1319h-176v115h629v-115h-197l369 -957l59 -194h8l62 199z" />
<glyph unicode="&#x475;" horiz-adv-x="1179" d="M487 0l-393 973h-117v102h488v-102h-137l245 -645l54 -224h10l57 224l275 747h243v-217h-186l-317 -858h-222z" />
<glyph unicode="&#x48a;" horiz-adv-x="1708" d="M651 0h-585v115h186v1204h-186v115h585v-115h-170v-879l-24 -153l110 162l670 825v45h-186v115h589v-115h-186v-1204h252l18 -45l-335 -439h-68l152 369h-422v115h174v876l22 154l-100 -154l-680 -835v-41h184v-115zM866 1522q-211 0 -311 68.5t-100 213.5h237v-162 q29 -14 76 -21t100 -7q39 0 92.5 6t83.5 16v168h228q0 -143 -95.5 -212.5t-310.5 -69.5z" />
<glyph unicode="&#x48b;" horiz-adv-x="1433" d="M88 1075h492v-102h-136v-631l-14 -221h12l78 182l406 772h399v-102h-151v-871h215l16 -45l-272 -415h-84l143 358h-358v102h135v656l22 211h-12l-86 -203l-412 -766h-393v102h152v871h-152v102zM729 1204q-74 0 -139.5 13.5t-115.5 37t-84 53t-46 64.5v119h234v-162 q27 -18 63.5 -25.5t89.5 -7.5q55 0 89 5.5t67 21.5v168h223v-119q-6 -35 -39 -65.5t-85 -53t-117.5 -36t-139.5 -13.5z" />
<glyph unicode="&#x48c;" horiz-adv-x="1437" d="M23 1167h301v152h-187v115h621v-115h-205v-152h442v-114h-442v-199q41 6 100.5 10t106.5 4q115 0 223.5 -18.5t192.5 -66.5t134 -130t50 -207q0 -121 -53.5 -205.5t-141.5 -140t-202.5 -81t-239.5 -25.5q-10 0 -44 1t-77 2l-89 2q-46 1 -81 1h-295v115h187v938h-301v114z M709 754q-55 0 -91 -3t-65 -10v-622q12 -4 33.5 -5t46 -3t47.5 -2h35q78 0 148.5 18t123.5 59t85 105.5t32 157.5q0 82 -27.5 140t-79 95t-125 53.5t-163.5 16.5z" />
<glyph unicode="&#x48d;" horiz-adv-x="1171" d="M10 1075h230v359h-174v102h389v-461h325v-112h-325v-324q37 4 87 10t142 6q188 0 294.5 -75.5t106.5 -237.5q0 -86 -34.5 -150.5t-97 -109.5t-148.5 -67.5t-191 -22.5q-61 0 -142 4t-169 4h-213v102h150v861h-230v112zM455 96q29 -2 59.5 -5t58.5 -3q131 0 206 61.5 t75 194.5q0 61 -20.5 102t-55.5 66t-82 36t-98 11q-35 0 -72 -2t-71 -8v-453z" />
<glyph unicode="&#x48e;" horiz-adv-x="1366" d="M66 1319v115h213q92 0 199.5 8t207.5 8q113 0 221.5 -21.5t192.5 -72.5t136 -136t52 -212q0 -158 -89 -258.5t-224 -149.5l104 -151l-98 -66l-127 184q-92 -18 -195 -18h-36q-25 0 -52.5 1t-52 3t-37.5 4v-442h205v-115h-620v115h186v1204h-186zM481 674q10 -4 32 -5 t46.5 -3t47.5 -2h36q76 0 135 14l-149 219l98 64l162 -236q66 41 104.5 109.5t38.5 173.5q0 168 -105.5 247.5t-287.5 79.5q-55 0 -92 -3t-66 -9v-649z" />
<glyph unicode="&#x48f;" horiz-adv-x="1304" d="M588 -410h-518v103h151v1280h-151v102h366v-215h2q45 109 128 172.5t218 63.5q203 0 314.5 -125t111.5 -410q0 -195 -75.5 -330t-210.5 -200l135 -183l-96 -71l-160 215q-31 -6 -63.5 -10.5t-67.5 -4.5q-41 0 -73 2.5t-58.5 6.5t-52 12t-52.5 18v-323h152v-103zM705 958 q-111 0 -175.5 -62t-93.5 -177v-600q41 -27 91.5 -36t134.5 -9q41 0 71 8l-133 180l96 76l144 -197q68 61 104.5 170t36.5 250q0 88 -14.5 161t-46 125t-84.5 81.5t-131 29.5z" />
<glyph unicode="&#x490;" horiz-adv-x="1110" d="M66 1319v115h847l41 45v235h131v-395h-604v-1204h221v-115h-636v115h186v1204h-186z" />
<glyph unicode="&#x491;" horiz-adv-x="921" d="M750 1075l41 41v215h131v-358h-467v-871h207v-102h-574v102h152v871h-152v102h662z" />
<glyph unicode="&#x492;" horiz-adv-x="1220" d="M104 1319v115h1051v-424h-147v264l-41 45h-447v-533h342v-114h-342v-557h221v-115h-637v115h187v557h-205v114h205v533h-187z" />
<glyph unicode="&#x493;" horiz-adv-x="993" d="M942 1075v-358h-131v215l-41 41h-315v-393h254v-113h-254v-365h207v-102h-574v102h152v365h-168v113h168v393h-152v102h854z" />
<glyph unicode="&#x494;" horiz-adv-x="1404" d="M66 1319v115h1050v-424h-147v264l-41 45h-447v-567q61 33 157.5 62.5t252.5 29.5q94 0 172 -29t134 -91t87 -163.5t31 -247.5q0 -145 -30 -271t-95.5 -222t-173 -155.5t-260.5 -72.5l-17 80q102 31 168 90.5t105 140.5t53 178t14 206q0 219 -68.5 330.5t-222.5 111.5 q-98 0 -171.5 -24.5t-135.5 -59.5v-530h211v-115h-626v115h186v1204h-186z" />
<glyph unicode="&#x495;" horiz-adv-x="1263" d="M942 1075v-358h-131v215l-41 41h-315v-496q55 55 132 90t189 35q156 0 243 -106.5t87 -319.5v-92q0 -233 -107.5 -367.5t-310.5 -144.5l-18 84q61 18 104 57t68.5 94.5t37 126t11.5 150.5v49q0 184 -46 264t-153 80q-63 0 -123.5 -18.5t-113.5 -46.5v-310h207v-102h-574 v102h152v871h-152v102h854z" />
<glyph unicode="&#x496;" horiz-adv-x="2211" d="M825 680l-512 -680h-313v115h123l272 319l100 117l87 102l62 73l24 28l-457 565h-160v115h510v-115h-153l399 -537h154v537h-158v115h536v-115h-157v-537h161l402 537h-164v115h510v-115h-174l-440 -549l557 -655h153v-447h-141v287l-41 45h-162l-522 680h-139v-565h157 v-115h-536v115h158v565h-136z" />
<glyph unicode="&#x497;" horiz-adv-x="1714" d="M1389 0l-342 500h-111v-398h121v-102h-447v102h121v398h-121l-329 -500h-281v102h106l361 488l-315 383h-107v102h401v-102h-120l290 -391h115v391h-121v102h447v-102h-121v-391h115l286 391h-116v102h403v-102h-129l-299 -375l375 -496h123v-409h-131v266l-41 41h-133z " />
<glyph unicode="&#x498;" horiz-adv-x="1251" d="M465 -410v385q-106 6 -196.5 29t-155.5 51v342h131v-229l30 -39q18 -10 50 -17.5t68 -12.5t73 -7t65 -2q84 0 153 22.5t117 63.5t74.5 97.5t26.5 123.5q0 80 -27.5 133.5t-73.5 85t-107.5 44t-129.5 12.5h-178v131h260q104 33 159.5 100.5t55.5 165.5q0 133 -83 203.5 t-234 70.5q-68 0 -132.5 -12t-91.5 -28l-26 -39v-203h-131v313q37 25 84 40.5t99 25.5t105.5 14t102.5 4q94 0 189.5 -14t172 -54t126 -109t49.5 -175q0 -104 -69 -196.5t-216 -141.5v-8q70 -10 130 -36t105 -68t71 -103t26 -145q0 -100 -40 -177t-108.5 -130.5t-162 -84 t-197.5 -39.5v-387h-164z" />
<glyph unicode="&#x499;" horiz-adv-x="1089" d="M500 90q59 0 104 18.5t76 49t46 69.5t15 78q0 94 -47 132t-129 50h-215v111h232q20 8 42.5 25.5t42 44t32 61.5t12.5 80q0 102 -59.5 139t-159.5 37q-51 0 -90.5 -4t-51.5 -10l-39 -45v-178h-131v274q47 25 126 49.5t224 24.5q190 0 293 -60.5t103 -185.5 q0 -53 -22.5 -96t-59.5 -77t-82 -57.5t-90 -35.5q63 -6 117.5 -25.5t95.5 -52.5t64.5 -80t23.5 -107q0 -152 -100.5 -237.5t-274.5 -101.5v-388h-164v388q-94 10 -167.5 46.5t-123.5 82.5v204h131v-141l35 -45q23 -14 68 -25.5t123 -11.5z" />
<glyph unicode="&#x49a;" horiz-adv-x="1497" d="M1128 0l-538 680h-109v-565h170v-115h-585v115h186v1204h-186v115h585v-115h-170v-537h133l447 537h-166v115h506v-115h-162l-487 -547l579 -657h142v-447h-142v287l-41 45h-162z" />
<glyph unicode="&#x49b;" horiz-adv-x="1280" d="M950 0l-381 510h-116v-408h147v-102h-514v102h152v871h-152v102h481v-102h-114v-381h106l320 381h-129v102h424v-102h-132l-317 -367l418 -504h137v-409h-131v266l-41 41h-158z" />
<glyph unicode="&#x49c;" horiz-adv-x="1630" d="M635 782v312h127v-312h24l447 537h-166v115h506v-115h-162l-487 -547l579 -657h127v-115h-330l-538 680v-307h-127v307h-154v-565h170v-115h-585v115h186v1204h-186v115h585v-115h-170v-537h154z" />
<glyph unicode="&#x49d;" horiz-adv-x="1449" d="M700 592h64l319 381h-129v102h424v-102h-131l-317 -367l418 -504h102v-102h-295l-381 510h-74v-268h-110v268h-137v-408h147v-102h-514v102h152v871h-152v102h481v-102h-114v-381h137v280h110v-280z" />
<glyph unicode="&#x49e;" horiz-adv-x="1533" d="M45 1194h283v125h-187v115h586v-115h-170v-125h248v-111h-248v-301h133l447 537h-166v115h506v-115h-162l-488 -547l580 -657h127v-115h-330l-538 680h-109v-565h170v-115h-586v115h187v968h-283v111z" />
<glyph unicode="&#x49f;" horiz-adv-x="1191" d="M10 1317h195v117h-174v102h389v-219h360v-113h-360v-612h72l313 381h-156v102h451v-102h-131l-318 -367l418 -504h102v-102h-294l-381 510h-76v-408h147v-102h-514v102h152v1102h-195v113z" />
<glyph unicode="&#x4a0;" horiz-adv-x="1736" d="M893 782l446 537h-165v115h505v-115h-161l-488 -547l580 -657h127v-115h-330l-539 680h-108v-565h170v-115h-586v115h186v1204h-317l-41 -45v-264h-131v424h889v-115h-170v-537h133z" />
<glyph unicode="&#x4a1;" horiz-adv-x="1411" d="M211 973l-41 -41v-213h-131v356h713v-102h-136v-381h107l319 381h-129v102h424v-102h-131l-317 -367l418 -504h102v-102h-295l-381 510h-117v-408h148v-102h-514v102h151v871h-190z" />
<glyph unicode="&#x4a2;" horiz-adv-x="1689" d="M1028 0v115h170v563h-717v-563h170v-115h-585v115h186v1204h-186v115h585v-115h-170v-526h717v526h-170v115h586v-115h-187v-1204h228v-447h-142v287l-40 45h-445z" />
<glyph unicode="&#x4a3;" horiz-adv-x="1415" d="M821 0v102h135v387h-501v-387h135v-102h-502v102h152v871h-152v102h502v-102h-135v-373h501v373h-135v102h502v-102h-152v-871h195v-409h-131v266l-41 41h-373z" />
<glyph unicode="&#x4a4;" horiz-adv-x="2086" d="M651 115v-115h-585v115h186v1204h-186v115h585v-115h-170v-526h717v526h-170v115h1034v-424h-147v264l-41 45h-447v-1204h222v-115h-621v115h170v563h-717v-563h170z" />
<glyph unicode="&#x4a5;" horiz-adv-x="1712" d="M805 973v102h833v-358h-131v215l-41 41h-295v-871h152v-102h-502v102h135v387h-501v-387h135v-102h-502v102h152v871h-152v102h502v-102h-135v-373h501v373h-151z" />
<glyph unicode="&#x4a6;" horiz-adv-x="2326" d="M2236 313q0 -160 -32.5 -292t-102 -228t-180.5 -152.5t-264 -68.5l-17 80q102 31 171 89t111 140t60.5 183.5t18.5 222.5q0 229 -68.5 335.5t-222.5 106.5q-98 0 -172 -24.5t-135 -59.5v-530h186v-115h-585v115h170v1204h-693v-1204h170v-115h-585v115h186v1204h-186v115 h1523v-115h-186v-567q61 33 152.5 62.5t220.5 29.5q106 0 192 -28t145.5 -91t91 -164t31.5 -248z" />
<glyph unicode="&#x4a7;" horiz-adv-x="1941" d="M590 0h-502v102h152v871h-152v102h1233v-102h-152v-494q55 53 131 88t189 35q156 0 243 -106.5t87 -319.5v-92q0 -233 -107.5 -367.5t-310.5 -144.5l-19 84q61 18 104.5 57t69 94.5t37 126t11.5 150.5v49q0 184 -46.5 264t-152.5 80q-63 0 -122.5 -18.5t-113.5 -46.5 v-310h152v-102h-502v102h135v871h-499v-871h135v-102z" />
<glyph unicode="&#x4a8;" horiz-adv-x="1949" d="M1825 68q-61 -51 -134 -72t-192 -21q-39 0 -79 7.5t-76.5 19.5t-68.5 26.5t-52 26.5q-37 -27 -118 -53.5t-183 -26.5q-178 0 -327 55.5t-254 155t-164.5 235.5t-59.5 298q0 150 49 284t141 235t222 160.5t292 59.5q74 0 133.5 -13t96.5 -46l-41 -82q-23 14 -55.5 20 t-67.5 6q-125 0 -221.5 -48t-161 -132t-98 -198.5t-33.5 -249.5q0 -131 39 -245t113.5 -199t184 -133t253.5 -48q88 0 155 23q-74 33 -145.5 90t-128 135t-91 177t-34.5 218q0 131 47 244t125 194.5t181.5 128t215.5 46.5q104 0 201.5 -38t174.5 -115t123 -191.5t46 -270.5 q0 -123 -46 -224t-114.5 -180t-147.5 -131.5t-145 -76.5q23 -10 61 -19.5t75 -9.5q82 0 139 23.5t110 64.5zM975 717q0 -100 24.5 -185.5t64.5 -154t93 -121.5t109 -88q70 35 128 93t98 132t62.5 161t22.5 183q0 109 -16.5 199t-51 155.5t-88 102.5t-127.5 37 q-84 0 -144 -40t-99 -108.5t-57.5 -162.5t-18.5 -203z" />
<glyph unicode="&#x4a9;" horiz-adv-x="1523" d="M1456 41q-6 -12 -26.5 -23.5t-49 -19.5t-59.5 -13t-55 -5q-33 0 -69 3t-69.5 10t-62.5 17t-49 25q-59 -27 -133 -41t-133 -14q-139 0 -260 39.5t-209 112.5t-138.5 175.5t-50.5 229.5q0 117 38 219t108.5 177t171 119t227.5 44q72 0 113 -9.5t67 -25.5l-20 -74 q-27 6 -58.5 9t-54.5 3q-84 -2 -151.5 -35.5t-114.5 -94t-74 -145.5t-27 -187q0 -98 35 -182.5t96.5 -146t144.5 -97t179 -35.5q41 0 86 3t62 9q-68 18 -128.5 60t-106.5 100.5t-72.5 127t-26.5 138.5q0 123 38 212t100 145.5t142 83t166 26.5q70 0 142.5 -24.5t132 -78 t97.5 -136.5t38 -197q0 -82 -31 -157t-79 -135t-106.5 -103.5t-115.5 -61.5q31 -10 73 -12t83 -2q61 0 155 53zM811 520q0 -133 50 -236.5t147 -154.5q39 20 76.5 60t67.5 95.5t47.5 125t17.5 151.5q0 61 -10.5 119.5t-35 103.5t-63.5 73t-94 28q-100 0 -151.5 -101.5 t-51.5 -263.5z" />
<glyph unicode="&#x4aa;" horiz-adv-x="1429" d="M1165 377h131v-322q-61 -33 -161.5 -55.5t-198.5 -24.5v-385h-164v394q-154 14 -275.5 66t-206.5 142.5t-129 220.5t-44 304q0 201 61.5 341t166 229t241.5 130t288 41q74 0 133.5 -5t107.5 -15.5t89 -24.5t80 -31v-350h-131v215l-29 41q-23 10 -70.5 24.5t-154.5 14.5 q-111 0 -207 -35t-166.5 -108.5t-111.5 -189t-41 -277.5q0 -293 148.5 -452t416.5 -159q74 0 124 11.5t75 29.5l28 39v191z" />
<glyph unicode="&#x4ab;" horiz-adv-x="1071" d="M987 131q-41 -55 -128 -101t-204 -53v-385h-163v398q-203 39 -301.5 183t-98.5 364q0 272 144.5 415.5t392.5 143.5q113 0 186.5 -14.5t134.5 -45.5v-266h-184v197q-31 18 -123 18q-78 0 -137.5 -22.5t-100 -73.5t-61 -137t-20.5 -211q0 -82 22.5 -157t67.5 -131 t113.5 -89t160.5 -33q49 0 87 7t66.5 18.5t51 26t43.5 30.5z" />
<glyph unicode="&#x4ac;" horiz-adv-x="1429" d="M1057 -332h-142v287l-41 45h-485v115h211v1204h-367l-40 -45v-264h-148v424h1339v-424h-147v264l-41 45h-367v-1204h228v-447z" />
<glyph unicode="&#x4ad;" horiz-adv-x="1144" d="M313 0v102h152v871h-209l-41 -41v-215h-131v358h977v-358h-131v215l-41 41h-209v-871h199v-409h-131v266l-41 41h-394z" />
<glyph unicode="&#x4ae;" horiz-adv-x="1488" d="M979 1434h510v-115h-174l-436 -711v-493h186v-115h-602v115h186v491l-463 713h-186v115h618v-115h-172l371 -596l350 596h-188v115z" />
<glyph unicode="&#x4af;" horiz-adv-x="1169" d="M852 -410h-518v103h151v307l-387 973h-121v102h488v-102h-129l235 -649l56 -193h12l55 188q2 4 13 34l26 76l36 105q19 58 42 119l113 320h-125v102h393v-102h-129l-363 -973v-307h152v-103z" />
<glyph unicode="&#x4b0;" horiz-adv-x="1488" d="M979 1434h510v-115h-174l-434 -707h329v-114h-331v-383h186v-115h-602v115h186v383h-332v114h328l-459 707h-186v115h618v-115h-172l371 -596l350 596h-188v115z" />
<glyph unicode="&#x4b1;" horiz-adv-x="1169" d="M207 113h233l-342 860h-121v102h488v-102h-129l235 -649l56 -193h12l55 188l13 37q10 31 27 78l38 106l41 117l111 316h-125v102h393v-102h-129l-322 -860h238v-113h-279v-307h152v-103h-518v103h151v307h-278v113z" />
<glyph unicode="&#x4b2;" horiz-adv-x="1548" d="M920 1434h516v-115h-168l-402 -551l471 -653h187v-447h-142v287l-41 45h-413v115h149l-360 506l-340 -506h158v-115h-515v115h173l448 606l-430 598h-182v115h610v-115h-164l318 -457l307 457h-180v115z" />
<glyph unicode="&#x4b3;" horiz-adv-x="1222" d="M674 0v102h137l-252 357l-254 -357h113v-102h-395v102h129l342 430l-344 441h-113v102h491v-102h-133l236 -326l229 326h-112v102h385v-102h-127l-316 -398l363 -473h170v-409h-131v266l-41 41h-377z" />
<glyph unicode="&#x4b4;" horiz-adv-x="2019" d="M1522 115v1204h-148v115h563v-115h-186v-1204h234v-447h-142v289l-41 43h-1413v115h211v1204h-367l-40 -45v-264h-148v424h1198v-424h-147v264l-41 45h-226v-1204h693z" />
<glyph unicode="&#x4b5;" horiz-adv-x="1792" d="M680 102h629v871h-135v102h501v-102h-151v-871h198v-409h-131v266l-41 41h-1237v102h152v871h-209l-41 -41v-215h-131v358h977v-358h-131v215l-41 41h-209v-871z" />
<glyph unicode="&#x4b6;" horiz-adv-x="1542" d="M1280 115h227v-447h-141v287l-41 45h-487v115h213v520q-63 -33 -166 -62.5t-236 -29.5q-96 0 -176 16t-138.5 59.5t-91 117t-32.5 188.5v395h-186v115h565v-115h-150v-348q0 -143 63.5 -228.5t215.5 -85.5q96 0 182 25t150 59v578h-164v115h579v-115h-186v-1204z" />
<glyph unicode="&#x4b7;" horiz-adv-x="1288" d="M649 0v102h185v385q-55 -55 -132 -91t-190 -36q-156 0 -242 82t-86 222v309h-151v102h499v-102h-133v-266q0 -98 45 -159t152 -61q63 0 123.5 18.5t114.5 49.5v418h-134v102h500v-102h-151v-871h198v-409h-131v266l-41 41h-426z" />
<glyph unicode="&#x4b8;" horiz-adv-x="1595" d="M1343 115h187v-115h-629v115h213v520q-43 -23 -113.5 -44.5t-156.5 -35.5v-293h-115v281h-59q-96 0 -179 16t-145.5 59.5t-98.5 117t-36 188.5v395h-186v115h565v-115h-150v-348q0 -141 63.5 -225t225.5 -89v306h115v-299q78 10 150.5 30.5t119.5 46.5v578h-164v115h580 v-115h-187v-1204z" />
<glyph unicode="&#x4b9;" horiz-adv-x="1429" d="M651 367q-49 -6 -98 -7q-201 0 -285 82t-84 222v309h-151v102h499v-102h-133v-266q0 -98 57.5 -159t180.5 -61h14v344h111v-335q66 8 122 22t93 37v418h-133v102h499v-102h-151v-871h151v-102h-550v102h184v385q-33 -33 -89.5 -59.5t-125.5 -42.5v-184h-111v166z" />
<glyph unicode="&#x4ba;" horiz-adv-x="1531" d="M252.078 1319.01h-185.988v114.993h627.961v-114.993h-212.986v-519.968q62.9961 32.998 165.989 62.4961q102.994 29.498 235.986 29.498q95.9941 0 175.989 -15.999t138.491 -59.4961q58.4961 -43.498 90.9941 -116.993t32.498 -188.488v-394.977h185.989v-114.992 h-564.966v114.992h149.991v347.979q0 142.991 -63.4971 228.485q-63.4961 85.4951 -215.486 85.4951q-95.9941 0 -181.989 -24.998q-85.9941 -24.999 -149.99 -58.9971v-577.965h169.989v-114.992h-584.964v114.992h185.988v1203.93z" />
<glyph unicode="&#x4bb;" horiz-adv-x="1353" d="M1315 0h-502v102h135v504q0 170 -45 261t-160 91q-61 0 -114.5 -20t-94 -53t-70.5 -73t-44 -79v-631h135v-102h-502v102h152v1332h-174v102h389v-678h2q47 100 148.5 169t242.5 69q80 0 145.5 -19.5t110.5 -71t69.5 -137.5t24.5 -219v-547h152v-102z" />
<glyph unicode="&#x4bc;" horiz-adv-x="1882" d="M1108 1458q147 0 268 -38t207 -114.5t134 -191.5t48 -268q0 -53 -4 -88t-10 -68h-1126q0 -145 48 -250.5t128 -175t183 -103.5t216 -34t225.5 33t210.5 98l45 -65q-45 -59 -107.5 -100.5t-132 -67t-142 -38t-140.5 -12.5q-164 0 -304 45.5t-244.5 134.5t-165 223 t-66.5 312q-190 4 -284.5 82t-94.5 240v159h272v-188l-127 -57q29 -72 91.5 -95.5t144.5 -25.5q14 162 76.5 284.5t161 204.5t224.5 123t265 41zM1110 1343q-213 0 -343 -138t-142 -400h891q2 23 3 43t1 41q0 104 -30 188t-84 143.5t-130 91t-166 31.5z" />
<glyph unicode="&#x4bd;" horiz-adv-x="1394" d="M1257 141q-53 -76 -150 -120t-226 -44q-135 0 -238.5 39t-173.5 112t-105.5 176.5t-35.5 230.5q-80 2 -140.5 23.5t-101.5 58t-62.5 84t-21.5 102.5v170h217v-162l-94 -49q0 -20 13.5 -44t38 -43.5t63.5 -31.5t92 -12q23 229 157 347t361 118q82 0 161 -20.5t140 -67.5 t99 -125t38 -193q0 -35 -4 -73.5t-12 -81.5h-713q0 -90 23.5 -164t71.5 -127.5t120 -83t170 -29.5q80 0 148.5 26.5t109.5 61.5zM842 999q-63 0 -111.5 -18t-83.5 -61t-55.5 -114t-26.5 -175h494q2 18 3 37.5t1 36.5q0 135 -54 214.5t-167 79.5z" />
<glyph unicode="&#x4be;" horiz-adv-x="1882" d="M1108 1458q147 0 268 -38t207 -114.5t134 -191.5t48 -268q0 -53 -4 -88t-10 -68h-1126q0 -145 48 -250.5t128 -175t183 -103.5t216 -34t225.5 33t210.5 98l45 -65q-41 -51 -93 -89t-111.5 -65t-122 -42t-123.5 -22v-385h-164v385q-147 12 -271 62.5t-215.5 139.5 t-144.5 218t-57 295q-190 4 -284.5 82t-94.5 240v159h272v-188l-127 -57q29 -72 91.5 -95.5t144.5 -25.5q14 162 76.5 284.5t161 204.5t224.5 123t265 41zM1110 1343q-213 0 -343 -138t-142 -400h891q2 23 3 43t1 41q0 104 -30 188t-84 143.5t-130 91t-166 31.5z" />
<glyph unicode="&#x4bf;" horiz-adv-x="1394" d="M1257 141q-49 -70 -136 -113.5t-199 -50.5v-385h-164v394q-213 33 -321.5 178t-108.5 371q-80 2 -140.5 23.5t-101.5 58t-62.5 84t-21.5 102.5v170h217v-162l-94 -49q0 -20 13.5 -44t38 -43.5t63.5 -31.5t92 -12q23 229 157 347t361 118q82 0 161 -20.5t140 -67.5 t99 -125t38 -193q0 -35 -4 -73.5t-12 -81.5h-713q0 -90 23.5 -164t71.5 -127.5t120 -83t170 -29.5q80 0 148.5 26.5t109.5 61.5zM842 999q-63 0 -111.5 -18t-83.5 -61t-55.5 -114t-26.5 -175h494q2 18 3 37.5t1 36.5q0 135 -54 214.5t-167 79.5z" />
<glyph unicode="&#x4c0;" horiz-adv-x="815" d="M709 0h-603v115h187v1204h-187v115h603v-115h-187v-1204h187v-115z" />
<glyph unicode="&#x4c3;" horiz-adv-x="1458" d="M758 782q119 -31 228.5 -87t193.5 -137t134 -187.5t50 -237.5q0 -117 -45 -217t-121 -175t-176 -121t-213 -52l-18 102q63 16 124.5 53t108.5 92.5t75.5 130t28.5 167.5q0 109 -43 202t-113.5 165.5t-161.5 123.5t-185 76h-146v-565h170v-115h-586v115h187v1204h-187v115 h586v-115h-170v-537h133l426 537h-164v115h508v-115h-165z" />
<glyph unicode="&#x4c4;" horiz-adv-x="1247" d="M715 600q72 -33 152.5 -81t148 -116.5t113 -159.5t45.5 -210q0 -94 -39 -173t-103.5 -139.5t-146.5 -99.5t-168 -51l-31 82q125 35 198.5 127t73.5 219q0 100 -38.5 184t-97 149.5t-127 110.5t-128.5 68h-114v-408h147v-102h-514v102h152v871h-152v102h481v-102h-114 v-381h106l320 381h-129v102h424v-102h-132z" />
<glyph unicode="&#x4c5;" horiz-adv-x="1513" d="M604 1319q-10 -289 -31.5 -482.5t-49 -325.5t-62.5 -217t-72 -155q-18 -35 -45 -69l-55 -70h-238v258h238q31 51 62.5 136t56 213t40 304t15.5 408h-213v115h1198v-115h-186v-1204h249l19 -45l-336 -439h-68l152 369h-422v115h176v1204h-428z" />
<glyph unicode="&#x4c6;" horiz-adv-x="1273" d="M238 219q39 51 65.5 136t42.5 187.5t23.5 214t7.5 216.5h-160v102h948v-102h-151v-871h215l16 -45l-272 -415h-84l143 358h-368v102h135v871h-299q-2 -193 -23.5 -352.5t-58.5 -283.5t-85 -209t-104 -128h-184v219h193z" />
<glyph unicode="&#x4c7;" horiz-adv-x="1679" d="M651 115v-115h-585v115h186v1204h-186v115h585v-115h-170v-526h717v526h-170v115h586v-115h-187v-1245q0 -143 -38.5 -235.5t-94 -149t-118 -83t-113.5 -36.5l-47 94q37 18 69.5 43t57 66t40 103.5t15.5 158.5v643h-717v-563h170z" />
<glyph unicode="&#x4c8;" horiz-adv-x="1396" d="M590 0h-502v102h152v871h-152v102h502v-102h-135v-373h501v373h-135v102h502v-102h-152v-846q0 -154 -42 -254t-99 -162.5t-115.5 -92.5t-91.5 -40l-59 96q27 12 59.5 37t62 69t50 112.5t20.5 170.5v426h-501v-387h135v-102z" />
<glyph unicode="&#x4c9;" horiz-adv-x="1681" d="M651 115v-115h-585v115h186v1204h-186v115h585v-115h-170v-526h717v526h-170v115h586v-115h-187v-1204h252l19 -45l-336 -439h-68l152 369h-418v115h170v563h-717v-563h170z" />
<glyph unicode="&#x4ca;" horiz-adv-x="1431" d="M590 0h-502v102h152v871h-152v102h502v-102h-135v-373h501v373h-135v102h502v-102h-152v-871h215l17 -45l-273 -415h-83l143 358h-369v102h135v387h-501v-387h135v-102z" />
<glyph unicode="&#x4cb;" horiz-adv-x="1531" d="M1280 115h186v-115h-460l-41 -45v-287h-142v447h228v520q-63 -33 -166 -62.5t-236 -29.5q-96 0 -176 16t-138.5 59.5t-91 117t-32.5 188.5v395h-186v115h565v-115h-150v-348q0 -143 63.5 -228.5t215.5 -85.5q96 0 182 25t150 59v578h-164v115h579v-115h-186v-1204z" />
<glyph unicode="&#x4cc;" horiz-adv-x="1286" d="M33 1075h499v-102h-133v-266q0 -98 45 -159t152 -61q63 0 123.5 18.5t114.5 49.5v418h-134v102h500v-102h-151v-871h151v-102h-438v-307h-131v409h203v385q-55 -55 -132 -91t-190 -36q-156 0 -242 82t-86 222v309h-151v102z" />
<glyph unicode="&#x4cd;" horiz-adv-x="2015" d="M66 1319v115h466l484 -918l493 918h441v-115h-187v-1204h250l19 -45l-336 -439h-68l152 369h-424v115h186v913q0 4 1 42t3 83q2 51 6 115h-18l-88 -219l-420 -742h-125l-409 742l-91 239h-20v-121q0 -47 1 -89t1 -50v-913h174v-115h-491v115h186v1204h-186z" />
<glyph unicode="&#x4ce;" horiz-adv-x="1689" d="M489 0h-409v102h151v871h-145v102h455l297 -659h6l307 659h444v-102h-151v-871h201l16 -45l-272 -415h-84l143 358h-344v102h135v871h-18l-394 -830h-63l-391 830h-19v-871h135v-102z" />
<glyph unicode="&#x4cf;" horiz-adv-x="702" d="M92 1434v102h518v-102h-151v-1332h151v-102h-518v102h152v1332h-152z" />
<glyph unicode="&#x4d0;" horiz-adv-x="1546" d="M502 0h-502v115h160l530 1319h217l486 -1319h153v-115h-585v115h182l-133 360h-545l-139 -360h176v-115zM512 590h463l-168 473l-51 217h-8l-60 -221zM797 1522q-211 0 -311.5 69.5t-100.5 212.5h237v-162q29 -14 76 -21t101 -7q39 0 92 6t84 16v168h227 q0 -141 -95 -211.5t-310 -70.5z" />
<glyph unicode="&#x4d1;" horiz-adv-x="1165" d="M950 285q0 -47 2 -95.5t6 -87.5h136v-102h-322l-20 195h-11q-10 -41 -37.5 -80t-69.5 -70t-99.5 -49.5t-126.5 -18.5q-70 0 -128.5 20.5t-101.5 57.5t-66.5 89.5t-23.5 117.5q0 100 42 166t124 103.5t205 54t286 18.5q4 33 5 63v58q0 127 -43 193.5t-154 66.5 q-41 0 -88 -4t-86 -25v-188h-184v227q74 39 174 70t235 31q117 0 187.5 -30t108.5 -78t49.5 -108.5t11.5 -119.5q0 -129 -5.5 -246.5t-5.5 -228.5zM502 115q49 0 88 15t68.5 39t51 52.5t35.5 54.5v244q-133 0 -216 -17.5t-130 -46t-64.5 -68.5t-17.5 -85q0 -92 49.5 -140 t135.5 -48zM588 1204q-74 0 -139.5 13.5t-115.5 37t-84 53t-46 64.5v119h233v-162q27 -18 64 -25.5t90 -7.5q55 0 89 5.5t67 21.5v168h223v-119q-6 -35 -39 -65.5t-85 -53t-117.5 -36t-139.5 -13.5z" />
<glyph unicode="&#x4d2;" horiz-adv-x="1546" d="M502 0h-502v115h160l530 1319h217l486 -1319h153v-115h-585v115h182l-133 360h-545l-139 -360h176v-115zM512 590h463l-168 473l-51 217h-8l-60 -221zM393 1630q0 59 38 89t95 30q59 0 98 -29.5t39 -89.5q0 -53 -39 -81.5t-98 -28.5q-57 0 -95 28.5t-38 81.5zM909 1630 q0 59 39 89t94 30q59 0 98 -29.5t39 -89.5q0 -53 -39 -81.5t-98 -28.5q-55 0 -94 28.5t-39 81.5z" />
<glyph unicode="&#x4d3;" horiz-adv-x="1165" d="M950 285q0 -47 2 -95.5t6 -87.5h136v-102h-322l-20 195h-11q-10 -41 -37.5 -80t-69.5 -70t-99.5 -49.5t-126.5 -18.5q-70 0 -128.5 20.5t-101.5 57.5t-66.5 89.5t-23.5 117.5q0 100 42 166t124 103.5t205 54t286 18.5q4 33 5 63v58q0 127 -43 193.5t-154 66.5 q-41 0 -88 -4t-86 -25v-188h-184v227q74 39 174 70t235 31q117 0 187.5 -30t108.5 -78t49.5 -108.5t11.5 -119.5q0 -129 -5.5 -246.5t-5.5 -228.5zM502 115q49 0 88 15t68.5 39t51 52.5t35.5 54.5v244q-133 0 -216 -17.5t-130 -46t-64.5 -68.5t-17.5 -85q0 -92 49.5 -140 t135.5 -48zM191 1409q0 59 36 95t95 36t95 -36t36 -95q0 -55 -36 -91t-95 -36t-95 36t-36 91zM695 1409q0 59 37.5 95t95.5 36q59 0 94 -36t35 -95q0 -55 -35 -91t-94 -36q-57 0 -95 36t-38 91z" />
<glyph unicode="&#x4d4;" horiz-adv-x="2103" d="M1931 1434v-336h-131v176l-41 45h-495v-531h346l30 31v86h132v-350h-132v86l-30 33h-346v-559h536l41 41v200h131v-356h-1118v115h180v403h-446l-264 -403h192v-115h-516v115h168l799 1204h-123v115h1087zM657 633h377v616h-4l-92 -190z" />
<glyph unicode="&#x4d5;" horiz-adv-x="1792" d="M502 117q49 0 88 15t68.5 38t50 51.5t34.5 54.5v244q-131 0 -214 -17.5t-130 -46t-64.5 -68.5t-17.5 -85q0 -92 49.5 -139t135.5 -47zM801 215q-16 -27 -43 -66.5t-70 -77.5t-105.5 -64.5t-148.5 -26.5q-160 0 -253 76.5t-93 205.5q0 100 41 166t124 103.5t205 54 t285 18.5q6 63 7 121q0 127 -43 193.5t-154 66.5q-41 0 -88 -4t-86 -25v-188h-184v227q74 39 174 70t235 31q123 0 193.5 -32t107.5 -83q57 61 149.5 88t192.5 27q82 0 161 -20.5t140.5 -67.5t99.5 -125t38 -193q0 -35 -4.5 -73.5t-12.5 -81.5h-711q0 -90 24 -164t71 -127.5 t118.5 -83t169.5 -29.5q80 0 149 26.5t109 61.5l56 -78q-53 -76 -150.5 -120t-226.5 -44q-174 0 -292.5 62.5t-184.5 175.5zM1239 999q-63 0 -111.5 -18t-83 -61t-55 -114t-26.5 -175h493q2 18 3 37.5t1 36.5q0 135 -54 214.5t-167 79.5z" />
<glyph unicode="&#x4d6;" horiz-adv-x="1320" d="M1155 1434v-336h-131v176l-41 45h-502v-531h346l31 31v86h131v-350h-131v86l-31 33h-346v-559h537l41 41v200h131v-356h-1124v115h186v1204h-186v115h1089zM672 1522q-211 0 -311.5 69.5t-100.5 212.5h237v-162q29 -14 76 -21t101 -7q39 0 92 6t84 16v168h227 q0 -141 -95 -211.5t-310 -70.5z" />
<glyph unicode="&#x4d7;" horiz-adv-x="1159" d="M1022 141q-53 -76 -150.5 -120t-226.5 -44q-135 0 -238.5 40t-173 113t-105.5 176.5t-36 230.5q0 274 137.5 416.5t384.5 142.5q82 0 161 -20.5t140.5 -67.5t99.5 -125t38 -193q0 -35 -4.5 -73.5t-12.5 -81.5h-712q0 -90 23.5 -164t71.5 -127.5t119.5 -83t170.5 -29.5 q80 0 148.5 26.5t109.5 61.5zM606 999q-63 0 -111.5 -18t-83 -61t-55 -114t-26.5 -175h493q2 18 3 37.5t1 36.5q0 135 -54 214.5t-167 79.5zM612 1204q-74 0 -139.5 13.5t-115.5 37t-84 53t-46 64.5v119h233v-162q27 -18 64 -25.5t90 -7.5q55 0 89 5.5t67 21.5v168h223v-119 q-6 -35 -39 -65.5t-85 -53t-117.5 -36t-139.5 -13.5z" />
<glyph unicode="&#x4d8;" horiz-adv-x="1634" d="M823 -25q-164 0 -295 41t-222 122t-140 205t-49 290q0 29 2 64.5t6 68.5h1147q-4 137 -42 244.5t-113 181.5t-186.5 112.5t-260.5 38.5q-29 0 -66 -2t-76 -6t-73.5 -10t-59.5 -14l-33 -47v-240h-131v350q80 35 198 59.5t253 24.5q416 0 626 -186.5t210 -554.5 q0 -182 -50.5 -321.5t-142.5 -232.5t-220 -140.5t-282 -47.5zM821 90q209 0 326 136t125 425h-903l-4 -45q-2 -23 -3 -43q0 -100 32 -187t91.5 -150.5t144.5 -99.5t191 -36z" />
<glyph unicode="&#x4d9;" horiz-adv-x="1196" d="M555 985q-53 0 -97 -5t-85 -19l-41 -41v-158h-131v229q43 25 84 44.5t87 32.5t101 20.5t129 7.5q129 0 223.5 -39t155.5 -112t91 -176t30 -232q0 -274 -137.5 -415.5t-384.5 -141.5q-82 0 -166 23.5t-152.5 76.5t-112 138t-43.5 206q0 33 3.5 68.5t11.5 74.5h758 q0 92 -18.5 169t-57.5 132.5t-100.5 86t-147.5 30.5zM588 76q129 0 200.5 93t83.5 302h-534q-2 -16 -2 -30v-29q0 -158 67.5 -247t184.5 -89z" />
<glyph unicode="&#x4da;" horiz-adv-x="1634" d="M823 -25q-164 0 -295 41t-222 122t-140 205t-49 290q0 29 2 64.5t6 68.5h1147q-4 137 -42 244.5t-113 181.5t-186.5 112.5t-260.5 38.5q-29 0 -66 -2t-76 -6t-73.5 -10t-59.5 -14l-33 -47v-240h-131v350q80 35 198 59.5t253 24.5q416 0 626 -186.5t210 -554.5 q0 -182 -50.5 -321.5t-142.5 -232.5t-220 -140.5t-282 -47.5zM821 90q209 0 326 136t125 425h-903l-4 -45q-2 -23 -3 -43q0 -100 32 -187t91.5 -150.5t144.5 -99.5t191 -36zM369 1630q0 59 38 89t95 30q59 0 98 -29.5t39 -89.5q0 -53 -39 -81.5t-98 -28.5q-57 0 -95 28.5 t-38 81.5zM885 1630q0 59 39 89t94 30q59 0 98 -29.5t39 -89.5q0 -53 -39 -81.5t-98 -28.5q-55 0 -94 28.5t-39 81.5z" />
<glyph unicode="&#x4db;" horiz-adv-x="1196" d="M555 985q-53 0 -97 -5t-85 -19l-41 -41v-158h-131v229q43 25 84 44.5t87 32.5t101 20.5t129 7.5q129 0 223.5 -39t155.5 -112t91 -176t30 -232q0 -274 -137.5 -415.5t-384.5 -141.5q-82 0 -166 23.5t-152.5 76.5t-112 138t-43.5 206q0 33 3.5 68.5t11.5 74.5h758 q0 92 -18.5 169t-57.5 132.5t-100.5 86t-147.5 30.5zM588 76q129 0 200.5 93t83.5 302h-534q-2 -16 -2 -30v-29q0 -158 67.5 -247t184.5 -89zM215 1409q0 59 36 95t95 36t95 -36t36 -95q0 -55 -36 -91t-95 -36t-95 36t-36 91zM719 1409q0 59 37.5 95t95.5 36q59 0 94 -36 t35 -95q0 -55 -35 -91t-94 -36q-57 0 -95 36t-38 91z" />
<glyph unicode="&#x4dc;" horiz-adv-x="2156" d="M825 680l-512 -680h-313v115h123l272 319l100 117l87 102l62 73l24 28l-457 565h-160v115h510v-115h-153l399 -537h154v537h-158v115h536v-115h-157v-537h161l402 537h-164v115h510v-115h-174l-440 -549l557 -655h123v-115h-314l-522 680h-139v-565h157v-115h-536v115 h158v565h-136zM686 1630q0 59 38 89t95 30q59 0 98 -29.5t39 -89.5q0 -53 -39 -81.5t-98 -28.5q-57 0 -95 28.5t-38 81.5zM1202 1630q0 59 39 89t94 30q59 0 98 -29.5t39 -89.5q0 -53 -39 -81.5t-98 -28.5q-55 0 -94 28.5t-39 81.5z" />
<glyph unicode="&#x4dd;" horiz-adv-x="1667" d="M1217 1075h407v-102h-129l-299 -375l375 -496h96v-102h-278l-342 500h-111v-398h121v-102h-447v102h121v398h-121l-329 -500h-281v102h106l361 488l-315 383h-107v102h401v-102h-120l290 -391h115v391h-121v102h447v-102h-121v-391h115l286 391h-120v102zM451 1409 q0 59 36 95t95 36t95 -36t36 -95q0 -55 -36 -91t-95 -36t-95 36t-36 91zM955 1409q0 59 37.5 95t95.5 36q59 0 94 -36t35 -95q0 -55 -35 -91t-94 -36q-57 0 -95 36t-38 91z" />
<glyph unicode="&#x4de;" horiz-adv-x="1251" d="M535 -25q-127 0 -236 22.5t-186 57.5v342h131v-229l30 -39q18 -10 50 -17.5t68 -12.5t73 -7t65 -2q84 0 153 22.5t117 63.5t74.5 97.5t26.5 123.5q0 80 -27.5 133.5t-73.5 85t-107.5 44t-129.5 12.5h-178v131h260q104 33 159.5 100.5t55.5 165.5q0 133 -83 203.5 t-234 70.5q-68 0 -132.5 -12t-91.5 -28l-26 -39v-203h-131v313q37 25 84 40.5t99 25.5t105.5 14t102.5 4q94 0 189.5 -14t172 -54t126 -109t49.5 -175q0 -104 -69 -196.5t-216 -141.5v-8q70 -10 130 -36t105 -68t71 -103t26 -145q0 -111 -49.5 -193t-132.5 -135t-191 -79 t-229 -26zM213 1630q0 59 38 89t95 30q59 0 98 -29.5t39 -89.5q0 -53 -39 -81.5t-98 -28.5q-57 0 -95 28.5t-38 81.5zM729 1630q0 59 39 89t94 30q59 0 98 -29.5t39 -89.5q0 -53 -39 -81.5t-98 -28.5q-55 0 -94 28.5t-39 81.5z" />
<glyph unicode="&#x4df;" horiz-adv-x="1089" d="M500 90q59 0 104 18.5t76 49t46 69.5t15 78q0 94 -47 132t-129 50h-215v111h232q20 8 42.5 25.5t42 44t32 61.5t12.5 80q0 102 -59.5 139t-159.5 37q-51 0 -90.5 -4t-51.5 -10l-39 -45v-178h-131v274q47 25 126 49.5t224 24.5q190 0 293 -60.5t103 -185.5 q0 -53 -22.5 -96t-59.5 -77t-82 -57.5t-90 -35.5q63 -6 117.5 -25.5t95.5 -52.5t64.5 -80t23.5 -107q0 -86 -34 -149.5t-95.5 -105t-147.5 -63t-192 -21.5q-119 0 -210 37.5t-151 91.5v204h131v-141l35 -45q23 -14 68 -25.5t123 -11.5zM146 1409q0 59 36 95t95 36t95 -36 t36 -95q0 -55 -36 -91t-95 -36t-95 36t-36 91zM650 1409q0 59 37.5 95t95.5 36q59 0 94 -36t35 -95q0 -55 -35 -91t-94 -36q-57 0 -95 36t-38 91z" />
<glyph unicode="&#x4e0;" horiz-adv-x="1249" d="M621 795q246 0 379 -105.5t133 -277.5q0 -115 -51.5 -197t-136.5 -135t-193.5 -79t-223.5 -26q-127 0 -232.5 22.5t-182.5 57.5v342h131v-241l41 -39q12 -6 40.5 -11.5t63.5 -8.5t71 -5t64 -2q84 0 152.5 23.5t118 65.5t76 97.5t26.5 120.5q0 82 -31.5 137.5t-83 88 t-118 46t-134.5 13.5h-184v131h170l303 399l70 74v8l-131 -14h-471l-21 -35v-178h-131v367h940v-66l-350 -471z" />
<glyph unicode="&#x4e1;" horiz-adv-x="1081" d="M455 -305q84 0 145.5 25.5t100 70.5t57 106.5t18.5 131.5q0 80 -26.5 133t-71.5 86t-105.5 48t-126.5 15h-135v111h103l368 510h-493l-41 -41v-174h-148v358h830v-143l-377 -510q225 0 331.5 -102.5t106.5 -278.5q0 -117 -42 -202t-113.5 -142t-169 -85t-207.5 -28 q-109 0 -204 38t-155 91v226h148v-179l37 -43q29 -10 69 -16t101 -6z" />
<glyph unicode="&#x4e2;" horiz-adv-x="1705" d="M651 0h-585v115h186v1204h-186v115h585v-115h-170v-879l-24 -153l110 162l670 825v45h-186v115h589v-115h-186v-1204h186v-115h-589v115h174v876l22 154l-100 -154l-680 -835v-41h184v-115zM506 1612v131h696v-131h-696z" />
<glyph unicode="&#x4e3;" horiz-adv-x="1415" d="M88 1075h492v-102h-136v-631l-12 -221h12l78 182l406 772h399v-102h-151v-871h151v-102h-491v102h135v656l22 211h-12l-86 -203l-412 -766h-395v102h152v871h-152v102zM422 1368v113h590v-113h-590z" />
<glyph unicode="&#x4e4;" horiz-adv-x="1705" d="M651 0h-585v115h186v1204h-186v115h585v-115h-170v-879l-24 -153l110 162l670 825v45h-186v115h589v-115h-186v-1204h186v-115h-589v115h174v876l22 154l-100 -154l-680 -835v-41h184v-115zM465 1630q0 59 38 89t95 30q59 0 98 -29.5t39 -89.5q0 -53 -39 -81.5t-98 -28.5 q-57 0 -95 28.5t-38 81.5zM981 1630q0 59 39 89t94 30q59 0 98 -29.5t39 -89.5q0 -53 -39 -81.5t-98 -28.5q-55 0 -94 28.5t-39 81.5z" />
<glyph unicode="&#x4e5;" horiz-adv-x="1415" d="M88 1075h492v-102h-136v-631l-12 -221h12l78 182l406 772h399v-102h-151v-871h151v-102h-491v102h135v656l22 211h-12l-86 -203l-412 -766h-395v102h152v871h-152v102zM326 1409q0 59 36 95t95 36t95 -36t36 -95q0 -55 -36 -91t-95 -36t-95 36t-36 91zM830 1409 q0 59 37.5 95t95.5 36q59 0 94 -36t35 -95q0 -55 -35 -91t-94 -36q-57 0 -95 36t-38 91z" />
<glyph unicode="&#x4e6;" horiz-adv-x="1699" d="M117 717q0 160 49 296t142 235.5t229.5 154.5t310.5 55t311 -55t231.5 -154.5t143.5 -235.5t49 -296t-49 -296t-143.5 -235.5t-231.5 -155t-311 -55.5t-310.5 55.5t-229.5 155t-142 235.5t-49 296zM373 717q0 -131 29.5 -246t91 -199t154.5 -133t220 -49q117 0 203 49 t142.5 133t85 199t28.5 246t-29.5 245.5t-91 198.5t-155 133t-222.5 49q-123 0 -210 -49t-142 -133t-79.5 -198.5t-24.5 -245.5zM457 1630q0 59 38 89t95 30q59 0 98 -29.5t39 -89.5q0 -53 -39 -81.5t-98 -28.5q-57 0 -95 28.5t-38 81.5zM973 1630q0 59 39 89t94 30 q59 0 98 -29.5t39 -89.5q0 -53 -39 -81.5t-98 -28.5q-55 0 -94 28.5t-39 81.5z" />
<glyph unicode="&#x4e7;" horiz-adv-x="1273" d="M92 537q0 135 39 239.5t109.5 175t172 107.5t224.5 37q143 0 246.5 -40t169 -113t97.5 -176t32 -230q0 -135 -38 -238.5t-108.5 -174.5t-172 -107.5t-226.5 -36.5q-139 0 -241.5 39.5t-170 112.5t-100.5 175.5t-33 229.5zM324 537q0 -98 18 -182.5t60 -146t109 -97 t163 -35.5q121 0 198.5 110.5t77.5 350.5q0 98 -18.5 183t-58 147.5t-102 97t-153.5 34.5q-135 0 -214.5 -110t-79.5 -352zM254 1409q0 59 36 95t95 36t95 -36t36 -95q0 -55 -36 -91t-95 -36t-95 36t-36 91zM758 1409q0 59 37.5 95t95.5 36q59 0 94 -36t35 -95 q0 -55 -35 -91t-94 -36q-57 0 -95 36t-38 91z" />
<glyph unicode="&#x4e8;" horiz-adv-x="1699" d="M117 717q0 160 49 296t142 235.5t229.5 154.5t310.5 55t311 -55t231.5 -154.5t143.5 -235.5t49 -296t-49 -296t-143.5 -235.5t-231.5 -155t-311 -55.5t-310.5 55.5t-229.5 155t-142 235.5t-49 296zM868 90q111 0 195 44t141.5 122t88 183.5t34.5 228.5h-954 q6 -123 38.5 -228.5t94 -183.5t151.5 -122t211 -44zM829 1343q-115 0 -197.5 -41.5t-138 -115.5t-84 -175.5t-34.5 -217.5h950q-8 117 -42 218t-95.5 175t-150.5 115.5t-208 41.5z" />
<glyph unicode="&#x4e9;" horiz-adv-x="1273" d="M92 537q0 135 39 239.5t109.5 175t172 107.5t224.5 37q143 0 246.5 -40t169 -113t97.5 -176t32 -230q0 -135 -38 -238.5t-108.5 -174.5t-172 -107.5t-226.5 -36.5q-139 0 -241.5 39.5t-170 112.5t-100.5 175.5t-33 229.5zM618 999q-127 0 -204.5 -95t-87.5 -302h624 q-6 86 -27.5 159t-61.5 126t-100.5 82.5t-142.5 29.5zM676 76q115 0 190.5 98t83.5 313h-626q2 -88 23.5 -163.5t64.5 -131t107.5 -86t156.5 -30.5z" />
<glyph unicode="&#x4ea;" horiz-adv-x="1699" d="M117 717q0 160 49 296t142 235.5t229.5 154.5t310.5 55t311 -55t231.5 -154.5t143.5 -235.5t49 -296t-49 -296t-143.5 -235.5t-231.5 -155t-311 -55.5t-310.5 55.5t-229.5 155t-142 235.5t-49 296zM868 90q111 0 195 44t141.5 122t88 183.5t34.5 228.5h-954 q6 -123 38.5 -228.5t94 -183.5t151.5 -122t211 -44zM829 1343q-115 0 -197.5 -41.5t-138 -115.5t-84 -175.5t-34.5 -217.5h950q-8 117 -42 218t-95.5 175t-150.5 115.5t-208 41.5zM457 1630q0 59 38 89t95 30q59 0 98 -29.5t39 -89.5q0 -53 -39 -81.5t-98 -28.5 q-57 0 -95 28.5t-38 81.5zM973 1630q0 59 39 89t94 30q59 0 98 -29.5t39 -89.5q0 -53 -39 -81.5t-98 -28.5q-55 0 -94 28.5t-39 81.5z" />
<glyph unicode="&#x4eb;" horiz-adv-x="1273" d="M92 537q0 135 39 239.5t109.5 175t172 107.5t224.5 37q143 0 246.5 -40t169 -113t97.5 -176t32 -230q0 -135 -38 -238.5t-108.5 -174.5t-172 -107.5t-226.5 -36.5q-139 0 -241.5 39.5t-170 112.5t-100.5 175.5t-33 229.5zM618 999q-127 0 -204.5 -95t-87.5 -302h624 q-6 86 -27.5 159t-61.5 126t-100.5 82.5t-142.5 29.5zM676 76q115 0 190.5 98t83.5 313h-626q2 -88 23.5 -163.5t64.5 -131t107.5 -86t156.5 -30.5zM254 1409q0 59 36 95t95 36t95 -36t36 -95q0 -55 -36 -91t-95 -36t-95 36t-36 91zM758 1409q0 59 37.5 95t95.5 36 q59 0 94 -36t35 -95q0 -55 -35 -91t-94 -36q-57 0 -95 36t-38 91z" />
<glyph unicode="&#x4ec;" horiz-adv-x="1404" d="M414 672v131h624q-37 524 -540 524q-68 0 -117 -12t-72 -27l-28 -41v-188h-131v315q74 47 175 65.5t199 18.5q180 0 321.5 -42t240 -131t150.5 -226t52 -326q0 -195 -60.5 -337t-161.5 -236t-236.5 -139.5t-282.5 -45.5q-74 0 -134.5 4.5t-109.5 13.5t-90 22.5t-80 31.5 v354h131v-215l31 -43q29 -14 87 -25.5t114 -11.5q102 0 199.5 31t173 98.5t121.5 175t48 261.5h-624zM189 1630q0 59 38 89t95 30q59 0 98 -29.5t39 -89.5q0 -53 -39 -81.5t-98 -28.5q-57 0 -95 28.5t-38 81.5zM705 1630q0 59 39 89t94 30q59 0 98 -29.5t39 -89.5 q0 -53 -39 -81.5t-98 -28.5q-55 0 -94 28.5t-39 81.5z" />
<glyph unicode="&#x4ed;" horiz-adv-x="1130" d="M494 -20q-119 0 -205 37.5t-146 91.5v204h131v-139l31 -41q23 -12 67 -27.5t115 -15.5q154 0 237 105.5t83 289.5h-459v111h457q-4 115 -28.5 190.5t-67.5 121.5t-102.5 64.5t-129.5 18.5t-102.5 -8t-50.5 -16l-35 -41v-199h-131v293q31 16 63.5 30.5t74.5 25.5t95 18.5 t127 7.5q111 0 205 -29t164.5 -92t110.5 -167.5t40 -254.5q0 -154 -47 -263.5t-123.5 -180t-174 -103t-199.5 -32.5zM166 1409q0 59 36 95t95 36t95 -36t36 -95q0 -55 -36 -91t-95 -36t-95 36t-36 91zM670 1409q0 59 37.5 95t95.5 36q59 0 94 -36t35 -95q0 -55 -35 -91 t-94 -36q-57 0 -95 36t-38 91z" />
<glyph unicode="&#x4ee;" horiz-adv-x="1519" d="M1196 1319h-190v115h514v-115h-166l-441 -907q-63 -129 -123.5 -234.5t-121.5 -177.5h-195v252h227q33 49 48 94l-574 973h-174v115h614v-115h-184l375 -668l47 -131h4l47 135zM445 1612v131h696v-131h-696z" />
<glyph unicode="&#x4ef;" horiz-adv-x="1163" d="M96 973h-121v102h529v-102h-172l278 -680l41 -156h11l38 158l220 678h-125v102h393v-102h-131l-336 -973q-29 -84 -62.5 -154.5t-65.5 -125t-61.5 -88t-50.5 -42.5h-207v185h209q14 16 26.5 32.5t25 41t26.5 60.5t33 91h-76zM328 1368v113h590v-113h-590z" />
<glyph unicode="&#x4f0;" horiz-adv-x="1519" d="M1196 1319h-190v115h514v-115h-166l-441 -907q-63 -129 -123.5 -234.5t-121.5 -177.5h-195v252h227q33 49 48 94l-574 973h-174v115h614v-115h-184l375 -668l47 -131h4l47 135zM428 1630q0 59 38 89t95 30q59 0 98 -29.5t39 -89.5q0 -53 -39 -81.5t-98 -28.5 q-57 0 -95 28.5t-38 81.5zM944 1630q0 59 39 89t94 30q59 0 98 -29.5t39 -89.5q0 -53 -39 -81.5t-98 -28.5q-55 0 -94 28.5t-39 81.5z" />
<glyph unicode="&#x4f1;" horiz-adv-x="1163" d="M96 973h-121v102h529v-102h-172l278 -680l41 -156h11l38 158l220 678h-125v102h393v-102h-131l-336 -973q-29 -84 -62.5 -154.5t-65.5 -125t-61.5 -88t-50.5 -42.5h-207v185h209q14 16 26.5 32.5t25 41t26.5 60.5t33 91h-76zM242 1409q0 59 36 95t95 36t95 -36t36 -95 q0 -55 -36 -91t-95 -36t-95 36t-36 91zM746 1409q0 59 37.5 95t95.5 36q59 0 94 -36t35 -95q0 -55 -35 -91t-94 -36q-57 0 -95 36t-38 91z" />
<glyph unicode="&#x4f2;" horiz-adv-x="1519" d="M1196 1319h-190v115h514v-115h-166l-441 -907q-63 -129 -123.5 -234.5t-121.5 -177.5h-195v252h227q33 49 48 94l-574 973h-174v115h614v-115h-184l375 -668l47 -131h4l47 135zM740 1860l206 -50v-49l-362 -211l-45 39zM1143 1860l217 -45v-52l-471 -217l-51 39z" />
<glyph unicode="&#x4f3;" horiz-adv-x="1163" d="M96 973h-121v102h529v-102h-172l278 -680l41 -156h11l38 158l220 678h-125v102h393v-102h-131l-336 -973q-29 -84 -62.5 -154.5t-65.5 -125t-61.5 -88t-50.5 -42.5h-207v185h209q14 16 26.5 32.5t25 41t26.5 60.5t33 91h-76zM496 1651l199 -45v-54l-318 -266l-55 33z M897 1651l201 -60v-51l-459 -254l-47 37z" />
<glyph unicode="&#x4f4;" horiz-adv-x="1531" d="M1280 115h186v-115h-628v115h213v520q-63 -33 -166 -62.5t-236 -29.5q-96 0 -176 16t-138.5 59.5t-91 117t-32.5 188.5v395h-186v115h565v-115h-150v-348q0 -143 63.5 -228.5t215.5 -85.5q96 0 182 25t150 59v578h-170v115h585v-115h-186v-1204zM352 1630q0 59 38 89 t95 30q59 0 98 -29.5t39 -89.5q0 -53 -39 -81.5t-98 -28.5q-57 0 -95 28.5t-38 81.5zM868 1630q0 59 39 89t94 30q59 0 98 -29.5t39 -89.5q0 -53 -39 -81.5t-98 -28.5q-55 0 -94 28.5t-39 81.5z" />
<glyph unicode="&#x4f5;" horiz-adv-x="1288" d="M33 1075h499v-102h-133v-266q0 -98 45 -159t152 -61q63 0 123.5 20.5t114.5 51.5v414h-134v102h500v-102h-151v-871h151v-102h-551v102h185v385q-55 -55 -132 -91t-190 -36q-156 0 -242 82t-86 222v309h-151v102zM238 1409q0 59 36 95t95 36t95 -36t36 -95q0 -55 -36 -91 t-95 -36t-95 36t-36 91zM742 1409q0 59 37.5 95t95.5 36q59 0 94 -36t35 -95q0 -55 -35 -91t-94 -36q-57 0 -95 36t-38 91z" />
<glyph unicode="&#x4f6;" horiz-adv-x="1140" d="M66 0v115h186v1204h-186v115h1050v-424h-147v264l-41 45h-447v-1204h228v-447h-142v287l-41 45h-460z" />
<glyph unicode="&#x4f7;" horiz-adv-x="993" d="M88 0v102h152v871h-152v102h854v-358h-131v215l-41 41h-315v-871h207v-409h-132v266l-41 41h-401z" />
<glyph unicode="&#x4f8;" horiz-adv-x="1951" d="M66 1319v115h618v-115h-203v-465q45 6 102.5 10t104.5 4q113 0 216.5 -18.5t182 -65.5t126 -129t47.5 -209q0 -121 -52.5 -205.5t-138.5 -140t-195.5 -81t-222.5 -25.5q-10 0 -43 1t-76 2l-88 2q-45 1 -79 1h-299v115h186v1204h-186zM1292 1319v115h594v-115h-186v-1204 h186v-115h-594v115h178v1204h-178zM635 754q-53 0 -89 -3t-65 -10v-622q10 -4 32 -5t46.5 -3t46.5 -2h35q80 0 146.5 20.5t114.5 62t75 106t27 151.5q0 305 -369 305zM600 1630q0 59 38 89t95 30q59 0 98 -29.5t39 -89.5q0 -53 -39 -81.5t-98 -28.5q-57 0 -95 28.5t-38 81.5 zM1116 1630q0 59 39 89t94 30q59 0 98 -29.5t39 -89.5q0 -53 -39 -81.5t-98 -28.5q-55 0 -94 28.5t-39 81.5z" />
<glyph unicode="&#x4f9;" horiz-adv-x="1724" d="M455 639q37 4 86 10t141 6q174 0 277.5 -75.5t103.5 -237.5q0 -86 -33 -150.5t-92 -109.5t-142 -67.5t-184 -22.5q-61 0 -142 4t-169 4h-213v102h152v871h-152v102h504v-102h-137v-334zM455 96q29 -2 59.5 -5t58.5 -3q258 0 258 256q0 61 -20 102t-53 66t-77 36t-89 11 q-31 0 -67 -2t-70 -8v-453zM1636 0h-501v102h135v871h-137v102h503v-102h-151v-871h151v-102zM485 1409q0 59 36 95t95 36t95 -36t36 -95q0 -55 -36 -91t-95 -36t-95 36t-36 91zM989 1409q0 59 37.5 95t95.5 36q59 0 94 -36t35 -95q0 -55 -35 -91t-94 -36q-57 0 -95 36 t-38 91z" />
<glyph unicode="&#x4fc;" horiz-adv-x="1548" d="M377 115h158v-115h-515v115h173l448 606l-430 598h-182v115h610v-115h-164l318 -457l307 457h-180v115h516v-115h-168l-402 -551l241 -306q97 -122 156.5 -210t86 -158.5t26.5 -150.5q0 -88 -32.5 -158t-89 -118t-135.5 -73.5t-171 -25.5h-10l-8 76q115 29 166 86t51 168 q0 41 -15.5 97t-61.5 139t-131 202t-222 285z" />
<glyph unicode="&#x4fd;" horiz-adv-x="1198" d="M305 102h113v-102h-395v102h129l342 430l-344 441h-113v102h491v-102h-133l236 -326l229 326h-112v102h385v-102h-127l-316 -398q45 -57 114.5 -135t134.5 -167t112 -182t47 -181q0 -178 -112 -255t-304 -77l-12 64q121 20 167 77.5t46 169.5q0 74 -39 155t-91.5 159 t-106.5 144.5t-87 111.5z" />
<glyph unicode="&#x510;" horiz-adv-x="1257" d="M698 -25q-121 0 -227 24t-185 73t-125 126.5t-46 188.5q0 84 27.5 148.5t74.5 110.5t109.5 75t132.5 39v8q-156 43 -219.5 129t-63.5 190q0 111 48 183.5t125 113.5t171 57.5t189 16.5q49 0 101 -5t103.5 -16.5t98.5 -28.5t84 -42v-313h-131v202l-39 45q-23 14 -73 28.5 t-122 14.5q-166 0 -245.5 -67.5t-79.5 -210.5q0 -98 55 -158.5t160 -93.5h253v-131h-190q-68 0 -128 -17.5t-106.5 -54.5t-73 -94t-26.5 -137q0 -135 91 -212t276 -77q27 0 60.5 3t66.5 9.5t61.5 14.5t48.5 16l37 49v228h131v-342q-78 -35 -186.5 -64t-237.5 -29z" />
<glyph unicode="&#x511;" horiz-adv-x="1081" d="M623 111q111 0 190.5 30.5t126.5 61.5l45 -76q-49 -59 -149.5 -106.5t-253.5 -47.5q-104 0 -190.5 21.5t-147 62.5t-94 99.5t-33.5 130.5q0 111 74.5 175t205.5 93q-106 39 -169.5 112.5t-63.5 161.5q0 70 31.5 120t89 83t138.5 48.5t177 15.5q41 0 89 -7.5t92 -17.5 t83 -23.5t62 -25.5v-272h-131v170l-29 36q-12 6 -24.5 11.5t-31 9.5t-46 6t-68.5 2q-98 0 -157.5 -43t-59.5 -158q0 -35 12 -65.5t31.5 -55t42 -42t43.5 -25.5h229v-111h-213q-78 -8 -127 -49t-49 -135q0 -45 22.5 -80t60.5 -59.5t88.5 -37.5t103.5 -13z" />
<glyph unicode="&#x512;" horiz-adv-x="1513" d="M1032 1319h-428q-10 -289 -31.5 -482.5t-49 -325.5t-62.5 -217t-72 -155q-18 -35 -45 -69l-55 -70h-238v258h238q31 51 62.5 136t56 213t40 304t15.5 408h-213v115h1198v-115h-186v-1241q0 -145 -38 -238.5t-93.5 -150t-119 -83t-114.5 -36.5l-47 94q35 18 67.5 42t57 64 t40 102t17.5 163v1284z" />
<glyph unicode="&#x513;" horiz-adv-x="1239" d="M238 219q39 51 65.5 136t42.5 187.5t23.5 214t7.5 216.5h-160v102h948v-102h-151v-846q0 -154 -42 -254t-99.5 -162.5t-116 -92.5t-90.5 -40l-60 96q27 12 59.5 37t62.5 70t50.5 116.5t20.5 178.5v897h-299q-2 -193 -23.5 -352.5t-58.5 -283.5t-85 -209t-104 -128h-184 v219h193z" />
<glyph unicode="&#x51c;" horiz-adv-x="2162" d="M1837 1319h-178v115h504v-115h-170l-342 -1319h-238l-319 1135l-322 -1135h-237l-359 1319h-176v115h612v-115h-194l219 -877l53 -272h8l80 276q0 2 13 47l32 113l45 159l52 181l139 488h151l291 -988l64 -272h10l61 277z" />
<glyph unicode="&#x51d;" horiz-adv-x="1679" d="M360 0l-260 973h-123v102h484v-102h-137l170 -690l24 -158h12l31 160l246 764h162l209 -719l45 -205h10l39 201l162 647h-127v102h395v-102h-129l-270 -973h-240l-164 612q-2 2 -7 30t-13 63q-8 39 -21 88h-12l-25 -88l-18 -62q-8 -27 -8 -31l-209 -612h-226z" />
<glyph unicode="&#x524;" horiz-adv-x="1665" d="M481 1319v-1204h170v-115h-585v115h186v1204h-186v115h1523v-115h-186v-1204h227v-447h-141v287l-41 45h-444v115h170v1204h-693z" />
<glyph unicode="&#x525;" horiz-adv-x="1435" d="M819 0v102h135v871h-499v-871h135v-102h-502v102h152v871h-152v102h1233v-102h-152v-871h197v-409h-131v266l-41 41h-375z" />
<glyph unicode="&#x526;" horiz-adv-x="1562" d="M231 1319h-165v115h608v-115h-213v-520q63 33 165.5 62.5t235.5 29.5q94 0 175 -16.5t139.5 -59.5t91 -116.5t32.5 -188.5v-395h228v-447h-142v287l-40 45h-424v115h149v348q0 143 -63.5 228t-214.5 85q-96 0 -182.5 -24.5t-149.5 -59.5v-577h164v-115h-559v115h165v1204 z" />
<glyph unicode="&#x527;" horiz-adv-x="1370" d="M813 0v102h135v504q0 170 -45 261t-160 91q-61 0 -114.5 -20t-94 -53t-70.5 -73t-44 -79v-631h135v-102h-502v102h152v1332h-174v102h389v-678h2q47 100 148.5 169t242.5 69q80 0 145.5 -19.5t110.5 -71t69.5 -137.5t24.5 -219v-547h195v-409h-131v266l-41 41h-373z" />
<glyph unicode="&#x1e30;" horiz-adv-x="1458" d="M614 782l447 537h-166v115h506v-115h-162l-487 -547l579 -657h127v-115h-330l-538 680h-109v-565h170v-115h-585v115h186v1204h-186v115h585v-115h-170v-537h133zM948 1872l252 -68v-82l-524 -147l-27 49z" />
<glyph unicode="&#x1e31;" horiz-adv-x="1191" d="M649 1075h451v-102h-131l-318 -367l418 -504h102v-102h-294l-381 510h-76v-408h151v-102h-518v102h152v1332h-174v102h389v-944h72l313 381h-156v102zM793 1536h258v-84l-402 -240l-57 48z" />
<glyph unicode="&#x1e3e;" horiz-adv-x="2015" d="M66 1319v115h466l484 -918l493 918h441v-115h-187v-1204h187v-115h-594v115h186v913q2 10 3 48t3 81q2 51 4 111h-18l-88 -219l-420 -742h-125l-409 742l-91 239h-20v-127q0 -47 1 -89t1 -44v-913h174v-115h-491v115h186v1204h-186zM1180 1872l252 -68v-82l-524 -147 l-27 49z" />
<glyph unicode="&#x1e3f;" horiz-adv-x="1988" d="M1264 0h-496v102h133v498q0 86 -7 153.5t-28.5 112.5t-62.5 68.5t-107 23.5q-49 0 -90 -17t-73.5 -48t-56 -71t-38.5 -85v-635h133v-102h-499v102h151v871h-151v102h366v-217h2q35 100 124 169t218 69q53 0 105.5 -10.5t95.5 -39t75 -78.5t44 -132q20 51 54 98t80 83 t103.5 57.5t124.5 21.5q84 0 146.5 -20.5t104.5 -71t62.5 -137.5t20.5 -222v-543h152v-102h-500v102h133v537q0 76 -8 136.5t-30.5 100t-63.5 61t-109 21.5q-109 0 -169 -66.5t-87 -174.5v-615h148v-102zM1149 1536h258v-84l-402 -240l-57 48z" />
<glyph unicode="&#x1e54;" horiz-adv-x="1366" d="M66 1319v115h213q92 0 199.5 8t207.5 8q113 0 221.5 -21.5t192.5 -72.5t136 -136t52 -212q0 -121 -53 -208t-140 -142.5t-201 -82t-235 -26.5h-36q-25 0 -52.5 1t-52 3t-37.5 4v-442h205v-115h-620v115h186v1204h-186zM481 674q10 -4 32 -5t46.5 -3t47.5 -2h36 q80 0 150.5 19t124 60t84 106.5t30.5 158.5q0 168 -105.5 247.5t-287.5 79.5q-55 0 -92 -3t-66 -9v-649zM834 1872l252 -68v-82l-524 -147l-27 49z" />
<glyph unicode="&#x1e55;" horiz-adv-x="1302" d="M588 -410h-518v103h151v1280h-151v102h366v-215h2q45 109 128 172.5t218 63.5q203 0 314.5 -125t111.5 -410q0 -135 -37.5 -243.5t-108.5 -184.5t-170 -116t-222 -40q-41 0 -73 2.5t-58.5 6.5t-52 12t-52.5 18v-323h152v-103zM705 958q-111 0 -175.5 -62t-93.5 -177v-600 q41 -27 91.5 -36t134.5 -9q76 0 135 35.5t100 100t62.5 154t21.5 197.5q0 88 -14.5 161t-46 125t-84.5 81.5t-131 29.5zM766 1536h258v-84l-402 -240l-57 48z" />
<glyph unicode="&#x1e9e;" horiz-adv-x="1501" d="M215 1032q0 127 52 210t130 131t169 66.5t171 18.5q125 0 213 -21.5t147.5 -58.5t94.5 -86t53 -102l-424 -340q125 -23 228.5 -64t179.5 -101t118 -140t42 -180q0 -90 -35 -162t-93.5 -121t-136 -75.5t-161.5 -26.5q-111 0 -211.5 21.5t-182.5 76.5l58 100 q76 -41 139 -54t125 -13q117 0 189.5 56t72.5 173q0 61 -28.5 118.5t-93 107.5t-167 89t-250.5 64v98l408 350q-35 76 -105.5 126t-164.5 50q-61 0 -116.5 -14t-97.5 -53t-68 -106.5t-26 -172.5v-997h-378v115h149v917z" />
<glyph unicode="&#x2000;" horiz-adv-x="1026" />
<glyph unicode="&#x2001;" horiz-adv-x="2052" />
<glyph unicode="&#x2002;" horiz-adv-x="1026" />
<glyph unicode="&#x2003;" horiz-adv-x="2052" />
<glyph unicode="&#x2004;" horiz-adv-x="684" />
<glyph unicode="&#x2005;" horiz-adv-x="512" />
<glyph unicode="&#x2006;" horiz-adv-x="342" />
<glyph unicode="&#x2007;" horiz-adv-x="342" />
<glyph unicode="&#x2008;" horiz-adv-x="256" />
<glyph unicode="&#x2009;" horiz-adv-x="409" />
<glyph unicode="&#x200a;" horiz-adv-x="112" />
<glyph unicode="&#x2010;" horiz-adv-x="972" d="M164 643h647v-131h-647v131z" />
<glyph unicode="&#x2011;" horiz-adv-x="972" d="M164 643h647v-131h-647v131z" />
<glyph unicode="&#x2012;" horiz-adv-x="972" d="M164 643h647v-131h-647v131z" />
<glyph unicode="&#x2013;" horiz-adv-x="1439" d="M166 643h1106v-131h-1106v131z" />
<glyph unicode="&#x2014;" horiz-adv-x="2035" d="M166 643h1704v-131h-1704v131z" />
<glyph unicode="&#x2018;" horiz-adv-x="671" d="M514 1653q-43 -12 -78 -39t-59.5 -60.5t-36.5 -72.5t-8 -76h119q16 -23 26 -51.5t10 -50.5q0 -35 -10 -67t-26 -56h-230q-33 76 -37 145q0 117 44 195.5t108.5 127t140.5 64.5z" />
<glyph unicode="&#x2019;" horiz-adv-x="671" d="M154 926q43 12 77.5 39t59 60.5t36 72.5t9.5 76h-117q-16 25 -26.5 50.5t-10.5 53.5q0 25 5.5 46.5t13.5 40t18 34.5h227q16 -41 26.5 -80t10.5 -79q0 -57 -19.5 -121t-57.5 -113q-31 -41 -85.5 -82t-130.5 -57z" />
<glyph unicode="&#x201a;" horiz-adv-x="671" d="M154 -248q43 12 77.5 39t59 60.5t36 72.5t9.5 76h-117q-16 25 -26.5 50.5t-10.5 53.5q0 25 5.5 46.5t13.5 40t18 34.5h227q16 -41 26.5 -80t10.5 -79q0 -57 -19.5 -121t-57.5 -113q-31 -41 -85.5 -82t-130.5 -57z" />
<glyph unicode="&#x201c;" horiz-adv-x="1095" d="M936 1653q-43 -12 -78 -39t-59.5 -60.5t-36.5 -72.5t-8 -76h119q16 -23 26 -51.5t10 -50.5q0 -35 -10 -67t-26 -56h-230q-33 76 -37 145q0 117 44 195.5t108.5 127t140.5 64.5zM514 1653q-43 -12 -78 -39t-59.5 -60.5t-36.5 -72.5t-8 -76h119q16 -23 26 -51.5t10 -50.5 q0 -35 -10 -67t-26 -56h-230q-33 76 -37 145q0 117 44 195.5t108.5 127t140.5 64.5z" />
<glyph unicode="&#x201d;" horiz-adv-x="1095" d="M576 926q43 12 77.5 39t59 60.5t36 72.5t9.5 76h-117q-16 25 -26.5 50.5t-10.5 53.5q0 25 5.5 46.5t13.5 40t18 34.5h227q16 -41 26.5 -80t10.5 -79q0 -57 -19.5 -121t-57.5 -113q-31 -41 -85.5 -82t-130.5 -57zM154 926q43 12 77.5 39t59 60.5t36 72.5t9.5 76h-117 q-16 25 -26.5 50.5t-10.5 53.5q0 25 5.5 46.5t13.5 40t18 34.5h227q16 -41 26.5 -80t10.5 -79q0 -57 -19.5 -121t-57.5 -113q-31 -41 -85.5 -82t-130.5 -57z" />
<glyph unicode="&#x201e;" horiz-adv-x="1095" d="M576 -248q43 12 77.5 39t59 60.5t36 72.5t9.5 76h-117q-16 25 -26.5 50.5t-10.5 53.5q0 25 5.5 46.5t13.5 40t18 34.5h227q16 -41 26.5 -80t10.5 -79q0 -57 -19.5 -121t-57.5 -113q-31 -41 -85.5 -82t-130.5 -57zM154 -248q43 12 77.5 39t59 60.5t36 72.5t9.5 76h-117 q-16 25 -26.5 50.5t-10.5 53.5q0 25 5.5 46.5t13.5 40t18 34.5h227q16 -41 26.5 -80t10.5 -79q0 -57 -19.5 -121t-57.5 -113q-31 -41 -85.5 -82t-130.5 -57z" />
<glyph unicode="&#x2020;" horiz-adv-x="1124" d="M72 848v207h51l399 -70l-86 399v50h252v-50l-86 -399l399 70h52v-207h-58l-393 72l74 -250v-45l-86 -1035h-55l-91 1037v43l78 250l-399 -72h-51z" />
<glyph unicode="&#x2021;" horiz-adv-x="1124" d="M444 543l78 377l-401 -72h-49v207h49l401 -70l-86 399v50h252v-50l-88 -399l404 70h49v-207h-56l-397 72l76 -377v-43l-76 -379l397 72h56v-207h-49l-404 69l88 -399v-49h-252v49l86 399l-401 -69h-49v207h49l401 -72l-78 381v41z" />
<glyph unicode="&#x2022;" horiz-adv-x="1052" d="M201 637q0 63 25.5 117.5t69.5 92.5t103.5 59.5t126.5 21.5q68 0 127.5 -19.5t102.5 -57.5t68.5 -92t25.5 -122t-25.5 -122t-68.5 -91t-102.5 -56.5t-127.5 -19.5t-127 19.5t-103 56.5t-69.5 91t-25.5 122z" />
<glyph unicode="&#x2026;" horiz-adv-x="2041" d="M1561 119q0 63 43 100t114 37q72 0 117 -37t45 -100q0 -61 -45 -98t-117 -37t-114.5 37t-42.5 98zM862 119q0 63 43 100t115 37t117 -37t45 -100q0 -61 -45 -98t-117 -37t-115 37t-43 98zM164 119q0 63 43 100t115 37t116.5 -37t44.5 -100q0 -61 -45 -98t-116 -37 q-72 0 -115 37t-43 98z" />
<glyph unicode="&#x202f;" horiz-adv-x="409" />
<glyph unicode="&#x2030;" horiz-adv-x="2760" d="M1550 1462l84 -78l-1345 -1404l-80 79zM118 1110q0 80 31 143.5t84 109.5t128 70.5t161 24.5q88 0 161.5 -21.5t127 -64.5t83 -108.5t29.5 -153.5q0 -80 -29.5 -144.5t-83 -109.5t-127 -69.5t-161.5 -24.5q-86 0 -161 21.5t-128 64.5t-84 108.5t-31 153.5zM315 1110 q0 -123 53 -196.5t154 -73.5q205 0 205 270t-205 270q-100 0 -153.5 -67.5t-53.5 -202.5zM932 326q0 80 31 143.5t84 109.5t128 70.5t161 24.5q88 0 161.5 -21.5t127 -64.5t83 -108.5t29.5 -153.5q0 -80 -29.5 -144.5t-83 -109.5t-127 -69.5t-161.5 -24.5q-86 0 -161 21.5 t-128 64.5t-84 108.5t-31 153.5zM1129 326q0 -123 53 -196.5t154 -73.5q205 0 205 270t-205 270q-100 0 -153.5 -67.5t-53.5 -202.5zM1839 326q0 80 31 143.5t84 109.5t128 70.5t161 24.5q88 0 161.5 -21.5t127 -64.5t83 -108.5t29.5 -153.5q0 -80 -29.5 -144.5t-83 -109.5 t-127 -69.5t-161.5 -24.5q-86 0 -161 21.5t-128 64.5t-84 108.5t-31 153.5zM2036 326q0 -123 53 -196.5t154 -73.5q205 0 205 270t-205 270q-100 0 -153.5 -67.5t-53.5 -202.5z" />
<glyph unicode="&#x2039;" horiz-adv-x="647" d="M55 530l400 422l57 -41l-240 -366l254 -387l-53 -41z" />
<glyph unicode="&#x203a;" horiz-adv-x="647" d="M180 117l-59 43l256 375l-244 378l60 39l401 -420z" />
<glyph unicode="&#x2044;" horiz-adv-x="729" d="M991 1462l84 -78l-1345 -1404l-80 79z" />
<glyph unicode="&#x205f;" horiz-adv-x="512" />
<glyph unicode="&#x2081;" horiz-adv-x="983" d="M840 -205h-645v103h229v632l-203 -75l-45 92l248 108h186v-757h230v-103z" />
<glyph unicode="&#x2082;" horiz-adv-x="983" d="M293 313h-131v254q35 23 67.5 41.5t71.5 32.5t88 21.5t119 7.5q88 0 148.5 -19.5t97.5 -51.5t53 -75t16 -92q0 -68 -36.5 -136.5t-104.5 -134t-161 -126t-204 -111.5v-12l72 12h352v139h131v-268h-737v129q94 47 182.5 102.5t157 117t110.5 127t42 132.5q0 39 -8.5 69 t-30 51.5t-58 32.5t-94.5 11q-41 0 -76.5 -6t-66.5 -22v-226z" />
<glyph unicode="&#x2083;" horiz-adv-x="983" d="M473 -123q55 0 94 14.5t63.5 37t36 50t11.5 54.5q0 86 -54.5 123t-179.5 37h-77v65l299 295h-390v-193h-131v295h684v-102l-301 -268v-2l72 8q55 0 104.5 -15.5t87 -45t60 -74.5t22.5 -105q0 -133 -115.5 -201.5t-312.5 -68.5q-94 0 -182 32.5t-147 71.5v148h184v-109 q20 -12 61 -29.5t111 -17.5z" />
<glyph unicode="&#x2084;" horiz-adv-x="983" d="M887 -205h-492v103h183v141h-512v102l512 514h172v-514h194v-102h-194v-141h137v-103zM578 500l-367 -359h367v359z" />
<glyph unicode="&#x20ac;" d="M-47 901h160q23 145 84 249.5t153 172.5t209 99.5t250 31.5q76 0 133 -4t103.5 -13.5t84 -22.5t76.5 -30v-352h-131v238l-41 47q-27 10 -60.5 18t-99.5 8q-223 0 -359 -104t-173 -338h686l-35 -115h-665v-69v-38q0 -17 2 -36h620l-35 -115h-571q18 -100 60 -181t109 -139 t157 -90t204 -32q78 0 119 11.5t56 21.5l41 47v211h131v-314q-35 -25 -84.5 -40t-102.5 -25t-108.5 -14t-102.5 -4q-307 0 -486 135t-224 413h-195l35 115h147q-4 18 -4 38v42v32q0 15 4 31h-182z" />
<glyph unicode="&#x20b4;" d="M98 786v107h596q78 59 131.5 128t53.5 134q0 100 -74 144t-209 44q-51 0 -107.5 -8t-82.5 -20l-48 -53v-177h-131v285q72 31 168.5 57.5t222.5 26.5q109 0 198 -17.5t151.5 -54t97.5 -96t35 -143.5q0 -66 -36 -128.5t-99 -121.5h163v-107h-1030zM1128 645v-106h-596 q-74 -53 -123 -122t-49 -138q0 -55 25 -92t66 -59t92 -30t106 -8q78 0 140.5 10.5t80.5 22.5l41 51v203h131v-301q-49 -35 -157.5 -65.5t-241.5 -30.5q-256 0 -380 80.5t-124 240.5q0 63 32 125.5t83 112.5h-156v106h1030z" />
<glyph unicode="&#x20b6;" d="M68 676h182v655h-166v103h192q92 0 183.5 8t189.5 8q115 0 215.5 -20.5t176 -69.5t118.5 -133t43 -211q0 -113 -45 -197t-127 -139t-193.5 -83t-244.5 -28h-113v-141h451v-106h-451v-220h226v-102h-621v102h166v220h-182v106h182v141h-182v107zM604 1343q-55 0 -76.5 -3 t-48.5 -9v-655h113q172 0 265 79t93 261q0 166 -81 246.5t-265 80.5z" />
<glyph unicode="&#x20b7;" d="M68 676h182v655h-166v103h192q92 0 183.5 8t189.5 8q115 0 215.5 -20.5t176 -69.5t118.5 -133t43 -211q0 -113 -45 -197t-127 -139t-193.5 -83t-244.5 -28h-113v-141h451v-106h-451v-220h226v-102h-621v102h166v220h-182v106h182v141h-182v107zM604 1343q-55 0 -76.5 -3 t-48.5 -9v-655h113q172 0 265 79t93 261q0 166 -81 246.5t-265 80.5z" />
</font>
</defs>
</svg>
